<?xml version="1.0" standalone="no"?>
<!DOCTYPE svg PUBLIC "-//W3C//DTD SVG 20010904//EN"
 "http://www.w3.org/TR/2001/REC-SVG-20010904/DTD/svg10.dtd">
<svg version="1.0" xmlns="http://www.w3.org/2000/svg"
 width="700.000000pt" height="700.000000pt" viewBox="0 0 700.000000 700.000000"
 preserveAspectRatio="xMidYMid meet">
<metadata>
Created by potrace 1.14, written by Peter Selinger 2001-2017
</metadata>
<g transform="translate(0.000000,700.000000) scale(0.100000,-0.100000)"
fill="#000000" stroke="none">
<path d="M3227 6990 c-860 -78 -1615 -428 -2213 -1026 -272 -273 -485 -572
-659 -929 -175 -359 -279 -710 -331 -1120 -25 -195 -25 -615 0 -810 88 -694
358 -1317 797 -1839 l92 -109 -32 -106 c-49 -159 -113 -317 -204 -501 l-82
-165 0 -85 c0 -72 4 -92 27 -135 34 -65 90 -118 152 -146 45 -19 60 -21 150
-15 333 22 696 107 1034 242 l163 65 89 -35 c901 -357 1922 -321 2796 99 1048
502 1766 1467 1948 2617 42 263 54 652 27 878 -78 669 -318 1266 -709 1768
-584 751 -1407 1217 -2362 1337 -148 19 -544 27 -683 15z m618 -1165 c879
-139 1596 -745 1868 -1580 77 -235 111 -454 111 -720 0 -358 -68 -667 -218
-990 -79 -169 -237 -410 -349 -532 l-39 -42 33 -98 c40 -122 111 -290 152
-363 73 -128 15 -274 -125 -311 -112 -30 -486 44 -746 147 l-113 45 -77 -29
c-284 -109 -535 -156 -842 -156 -197 0 -303 11 -495 51 -685 143 -1291 616
-1599 1248 -83 169 -126 287 -170 465 -48 196 -66 345 -66 560 0 377 74 700
234 1025 232 468 590 829 1052 1059 265 132 530 207 849 240 86 9 444 -4 540
-19z"/>
</g>
</svg>
