<svg id="_404" data-name="404" xmlns="http://www.w3.org/2000/svg" width="684.575" height="404.862" viewBox="0 0 684.575 404.862">
  <g id="Componente_13_1" data-name="Componente 13 – 1">
    <g id="Grupo_1033" data-name="Grupo 1033" transform="translate(-617.719 -317.75)">
      <path id="Caminho_8766" data-name="Caminho 8766" d="M874.07,419.12h-.02l3.49-12.98a17.852,17.852,0,0,0-3-14.19l-10.89-13.62.46-1.7,16.25-6.33a17.866,17.866,0,0,0,9.7-10.78l3.49-12.98h.02a4.411,4.411,0,0,0,5.4-3.13l.19-.71a4.41,4.41,0,0,0-3.11-5.41l-46.97-12.62a4.434,4.434,0,0,0-5.42,3.12l-.19.71a4.439,4.439,0,0,0,3.12,5.42l-3.47,12.99a17.748,17.748,0,0,0,2.96,14.17l10.91,13.64-.45,1.68-16.29,6.33a17.763,17.763,0,0,0-9.67,10.78l-3.49,12.98h0a4.434,4.434,0,0,0-5.42,3.12l-.19.71a4.439,4.439,0,0,0,3.12,5.42l46.97,12.62a4.411,4.411,0,0,0,5.4-3.13l.19-.71A4.384,4.384,0,0,0,874.07,419.12Zm-2.86-.77-3.56-.96-34.15-9.17-3.56-.96,3.49-12.98a14.933,14.933,0,0,1,7.9-8.79l16.98-6.61a1.493,1.493,0,0,0,.89-.99l.84-3.12a1.481,1.481,0,0,0-.26-1.3l-11.39-14.22a14.972,14.972,0,0,1-2.43-11.56l3.49-12.98,41.26,11.08-3.49,12.98a15.06,15.06,0,0,1-7.93,8.8l-16.92,6.6a1.482,1.482,0,0,0-.91.98l-.84,3.13a1.485,1.485,0,0,0,.27,1.3l11.36,14.2a15.059,15.059,0,0,1,2.46,11.59Z" fill="#3c3c3c" opacity="0.1"/>
      <path id="Caminho_8767" data-name="Caminho 8767" d="M1006.74,670.68h-.02l3.49-12.98a17.852,17.852,0,0,0-3-14.19l-10.89-13.62.46-1.7,16.25-6.33a17.866,17.866,0,0,0,9.7-10.78l3.49-12.98h.02a4.411,4.411,0,0,0,5.4-3.13l.19-.71a4.41,4.41,0,0,0-3.11-5.41l-46.97-12.62a4.434,4.434,0,0,0-5.42,3.12l-.19.71a4.439,4.439,0,0,0,3.12,5.42l-3.47,12.99a17.748,17.748,0,0,0,2.96,14.17l10.91,13.64-.45,1.68-16.29,6.33a17.763,17.763,0,0,0-9.67,10.78l-3.49,12.98h0a4.434,4.434,0,0,0-5.42,3.12l-.19.71a4.439,4.439,0,0,0,3.12,5.42l46.97,12.62a4.411,4.411,0,0,0,5.4-3.13l.19-.71A4.384,4.384,0,0,0,1006.74,670.68Zm-2.86-.77-3.56-.96-34.15-9.17-3.56-.96,3.49-12.98a14.933,14.933,0,0,1,7.9-8.79l16.98-6.61a1.492,1.492,0,0,0,.89-.99l.84-3.12a1.481,1.481,0,0,0-.26-1.3l-11.39-14.22a14.972,14.972,0,0,1-2.43-11.56l3.49-12.98,41.26,11.08-3.49,12.98a15.06,15.06,0,0,1-7.93,8.8l-16.92,6.6a1.482,1.482,0,0,0-.91.98l-.84,3.13a1.485,1.485,0,0,0,.27,1.3l11.36,14.2a15.059,15.059,0,0,1,2.46,11.59Z" fill="#3c3c3c" opacity="0.1"/>
      <g id="Grupo_1022" data-name="Grupo 1022" opacity="0.1">
        <g id="Grupo_1021" data-name="Grupo 1021">
          <path id="Caminho_8768" data-name="Caminho 8768" d="M1274.95,639.77c-.02.01-.05.03-.07.04l-2.51-3.87a35.142,35.142,0,1,0-38.15-59.03l-2.53-3.91a1.839,1.839,0,1,0-2.01-3.08,43.485,43.485,0,0,0-16.45,53.3,1.838,1.838,0,0,0,1.31,1.09,1.835,1.835,0,0,0,2.08-2.51,39.682,39.682,0,0,1,12.07-46.63l2.54,3.92a35.144,35.144,0,0,0,37.94,58.71l2.52,3.89a39.8,39.8,0,0,1-47.06-7.71,1.839,1.839,0,0,0-2.65,2.55,43.148,43.148,0,0,0,20.47,11.96l-.98,4.58-6.48-1.39a9.221,9.221,0,0,0-10.93,7.08,1.852,1.852,0,0,0,1.42,2.19l30.98,6.62a1.852,1.852,0,0,0,2.19-1.42,9.221,9.221,0,0,0-7.08-10.93l-6.48-1.39.98-4.59a43.442,43.442,0,0,0,30.9-6.37,1.85,1.85,0,0,0-2.02-3.1Zm-16.58-59.52,4.62-3.79a31.569,31.569,0,0,1,21.74,27.9l-.51.29a4.083,4.083,0,0,0-1.23,1.07l-.15-1.07a3.811,3.811,0,0,0-.43-1.31l-1.22-2.25a3.884,3.884,0,0,0-2.6-1.95l-1.99-.43a2.444,2.444,0,0,0-2.81,3.23,14.475,14.475,0,0,1-3.93,1.33l-1.46-5.26.22-1.05a1.828,1.828,0,0,0-.28-1.42l-1.96-2.87a1.767,1.767,0,0,0-.56-.53l-6.6-4.03a1.719,1.719,0,0,0-.58-.23l-6.2-1.33a6.686,6.686,0,0,0-5.65,1.4l-.99-2.29,2.66-3.87,8.96-1.14A1.8,1.8,0,0,0,1258.37,580.25Zm.86,39.9c.12,1.38.12,1.38-.55,1.85-.12.08-.23.16-.33.23a5.956,5.956,0,0,0-2.15,2.26,1.579,1.579,0,0,1-.58.57,6.047,6.047,0,0,0-1.02.88,4.911,4.911,0,0,0-.87,1.44c-.15.35-.2.45-.3.53a6.239,6.239,0,0,1-2.55,1.23,12.532,12.532,0,0,1-.59-2.99,18.245,18.245,0,0,0-.35-1.91c-.26-1.21-.56-2.58-.19-3.23l.16-.28a6.369,6.369,0,0,0,1.12-4.89,5.123,5.123,0,0,0-.73-1.73,3.069,3.069,0,0,1-.29-.57,2.854,2.854,0,0,1,.09-.54,3.829,3.829,0,0,0-.52-3.31c-1.32-1.9-3.35-1.83-4.57-1.79-.35.01-.68.02-.94,0a4.377,4.377,0,0,1-3.73-2.6,4.827,4.827,0,0,1,.66-4.87,9.883,9.883,0,0,1,2.1-1.86c.19-.14.39-.28.58-.43.34-.26.72-.61,1.12-.98a11.225,11.225,0,0,1,1.5-1.25,9.409,9.409,0,0,1,2.78.24c.39.07.76.13,1.1.18a2.356,2.356,0,0,0-.04.28,1.846,1.846,0,0,0,.65,1.51c.2.17.49.47.79.78a8.135,8.135,0,0,0,3.19,2.37,2.733,2.733,0,0,0,2.36-.43c.01-.01.03-.02.04-.03a1.669,1.669,0,0,0,.28-.18c.1.05.21.11.31.16a10.6,10.6,0,0,1,2.17,1.32,9.143,9.143,0,0,1,.74,2.88c.09.54.18,1.1.29,1.61.05.21.09.42.14.64a8.965,8.965,0,0,0,2.07,4.69,5,5,0,0,0,1.7,1.05c-.4.28-.85.55-1.32.83C1261.61,615.01,1258.92,616.62,1259.23,620.15Zm-29.99-.75-1.97,4.66a31.388,31.388,0,0,1-5.39-19.32l2.96-.31,4.39,5.1a1.819,1.819,0,0,0,.67.49l3.14,1.34a1,1,0,0,1,.47,1.43,4.657,4.657,0,0,0-.61,2.85l.14,1.38a1.017,1.017,0,0,1-.9,1.11l-1.4.15A1.884,1.884,0,0,0,1229.24,619.4Zm17.5,17.8a31.315,31.315,0,0,1-16.88-9.81l2.35-5.55.32-.03a4.7,4.7,0,0,0,4.18-5.15l-.14-1.38a1,1,0,0,1,.13-.61,4.7,4.7,0,0,0-2.21-6.68l-2.75-1.17-4.74-5.51a1.844,1.844,0,0,0-1.59-.63l-3.1.32c.07-.39.14-.78.22-1.17a31.523,31.523,0,0,1,35.98-24.47l-2.07,1.7-9.25,1.18a1.875,1.875,0,0,0-1.29.78l-3.7,5.39a1.851,1.851,0,0,0-.17,1.78l2.64,6.08a1.639,1.639,0,0,0,.16.29,10.186,10.186,0,0,0-2.52,1.92c-.32.29-.64.59-.83.74s-.36.27-.55.4a12.924,12.924,0,0,0-2.85,2.59,8.546,8.546,0,0,0-1.11,8.59,8.073,8.073,0,0,0,6.76,4.79,11.23,11.23,0,0,0,1.41.02c1.09-.03,1.29.01,1.43.22a.076.076,0,0,1,.02.04c-.01.08-.04.25-.07.37a5.594,5.594,0,0,0-.17,1.45,4.755,4.755,0,0,0,.79,2.29,3.03,3.03,0,0,1,.29.56c.16.86-.02,1.22-.68,2.36l-.17.29c-1.09,1.88-.6,4.09-.22,5.85.12.56.24,1.09.29,1.54.46,3.96,1.26,5.05,1.99,5.59a3.429,3.429,0,0,0,1.31.59c2.61.56,5.66-1.85,5.81-1.97a4.678,4.678,0,0,0,1.37-1.93,2.287,2.287,0,0,1,.21-.42,3.5,3.5,0,0,1,.48-.4,5.244,5.244,0,0,0,1.6-1.71,2.462,2.462,0,0,1,1.05-1.05c.11-.08.23-.16.36-.25,2.4-1.7,2.24-3.47,2.08-5.19-.1-1.06.49-1.59,2.57-2.83a14.882,14.882,0,0,0,2.66-1.87,3.357,3.357,0,0,0,1.27-2.98c-.29-1.48-1.66-2-2.67-2.38a6.054,6.054,0,0,1-.93-.41,6.232,6.232,0,0,1-1.08-2.86c-.05-.24-.1-.47-.15-.7-.09-.39-.16-.86-.24-1.36a11.581,11.581,0,0,0-1.24-4.23c-.72-1.18-2.26-1.97-3.62-2.67-.43-.22-.83-.43-1.08-.59a1.945,1.945,0,0,0-1.02-.29,4.094,4.094,0,0,0-1.74.33,1.914,1.914,0,0,0-.43.29c-.25-.23-.52-.5-.75-.73a2.343,2.343,0,0,0,.05-1.3c-.48-2.03-3.24-2.49-3.79-2.56-.27-.03-.61-.09-.97-.16-.52-.09-1.09-.19-1.67-.26l.5-.8a2.959,2.959,0,0,1,3.12-1.33l5.9,1.26,5.99,3.66,1.29,1.89-.15.72a1.871,1.871,0,0,0,.03.88l2.02,7.27a1.849,1.849,0,0,0,2.04,1.33l1.07-.15a18.35,18.35,0,0,0,7.24-2.71,1.848,1.848,0,0,0,.84-1.48c.01.01.02.02.02.03l1.22,2.25a.144.144,0,0,1,.02.07l.74,5.32a1.857,1.857,0,0,0,1.06,1.42,1.708,1.708,0,0,0,.38.13,1.857,1.857,0,0,0,1.39-.26l1.04-.67a4.594,4.594,0,0,0,.73-.59c-.11.82-.25,1.65-.43,2.48A31.569,31.569,0,0,1,1246.74,637.2Zm4.05,21.61a5.524,5.524,0,0,1,4.32,4.69l-26.76-5.72a5.515,5.515,0,0,1,5.86-2.51Z" fill="#3c3c3c"/>
        </g>
      </g>
      <g id="Grupo_1023" data-name="Grupo 1023" opacity="0.1">
        <path id="Caminho_8769" data-name="Caminho 8769" d="M1063.69,325.76l-78.46-8a1.716,1.716,0,0,0-1.88,1.53l-1.22,11.94a1.716,1.716,0,0,0,1.53,1.88l18.53,1.89-21.93,48.17a12,12,0,0,0-14.6,15.73,11.879,11.879,0,0,0,6.27,6.71,12.02,12.02,0,0,0,3.76,1.02,12,12,0,0,0,7.69-22.04l22.41-49.23,15.4,1.57-5.58,54.7a12.01,12.01,0,1,0,3.41.35l5.58-54.7h0l20.47,2.09-5.58,54.7a12.01,12.01,0,1,0,3.41.35l5.58-54.7h0l13.64,1.39a1.716,1.716,0,0,0,1.88-1.53l1.22-11.94A1.7,1.7,0,0,0,1063.69,325.76Zm-78.75,65.92a8.584,8.584,0,1,1-7.17-5.53,8.623,8.623,0,0,1,2.67.72h0A8.537,8.537,0,0,1,984.94,391.68Zm39.7,12.81a8.574,8.574,0,1,1-7.66-9.4A8.588,8.588,0,0,1,1024.64,404.49Zm23.87,2.44a8.574,8.574,0,1,1-7.66-9.4A8.588,8.588,0,0,1,1048.51,406.93Zm12.25-69.41-75.05-7.66.87-8.53,75.05,7.66Z" fill="#3c3c3c"/>
        <path id="Caminho_8770" data-name="Caminho 8770" d="M968.39,381.52a1.763,1.763,0,0,0,.97-.19,1.706,1.706,0,0,0,.71-2.32l-5.78-10.93a1.716,1.716,0,0,0-3.03,1.61l5.78,10.93A1.747,1.747,0,0,0,968.39,381.52Z" fill="#3c3c3c"/>
        <path id="Caminho_8771" data-name="Caminho 8771" d="M972.16,378.93a1.707,1.707,0,0,0,1.51,1.4,1.562,1.562,0,0,0,.48-.02,1.727,1.727,0,0,0,1.39-1.99l-4.39-24.57a1.716,1.716,0,0,0-3.38.6Z" fill="#3c3c3c"/>
        <path id="Caminho_8772" data-name="Caminho 8772" d="M1056.67,335.38a2.573,2.573,0,1,0-2.3-2.82A2.578,2.578,0,0,0,1056.67,335.38Zm.35-3.41a.859.859,0,1,1-.94.77A.855.855,0,0,1,1057.02,331.97Z" fill="#3c3c3c"/>
        <path id="Caminho_8773" data-name="Caminho 8773" d="M990.16,328.59a2.573,2.573,0,1,0-2.3-2.82A2.579,2.579,0,0,0,990.16,328.59Zm.35-3.41a.859.859,0,1,1-.94.77A.85.85,0,0,1,990.51,325.18Z" fill="#3c3c3c"/>
      </g>
      <path id="Caminho_8774" data-name="Caminho 8774" d="M744.09,446.09l-11.73-10.32-17.28-15.2-5.87-23.27a4.5,4.5,0,0,0,3.26-5.45l-1.1-4.35a4.5,4.5,0,0,0-5.45-3.26l-26.12,6.59a4.5,4.5,0,0,0-3.26,5.45l1.1,4.35a4.489,4.489,0,0,0,5.45,3.25l5.87,23.27L680.12,451l-4.6,12.39a15.95,15.95,0,0,0,18.86,21.01l43.08-10.87a15.968,15.968,0,0,0,11.56-19.36A15.8,15.8,0,0,0,744.09,446.09Zm-63.2-50.9,26.12-6.59,1.1,4.35-26.13,6.59Zm55.47,73.99-43.08,10.87a11.457,11.457,0,0,1-13.54-15.1l5.81-15.68,8.11-21.86-6.21-24.62,17.41-4.39,1.1,4.35-8.71,2.2,1.1,4.35,8.71-2.2,1.1,4.35-4.35,1.1,1.1,4.35,4.35-1.1,1.1,4.35-8.71,2.2,1.1,4.35,9.74-2.46,14.62,12.86,14.02,12.34a11.479,11.479,0,0,1-4.77,19.74Z" fill="#3c3c3c" opacity="0.1"/>
      <path id="Caminho_8775" data-name="Caminho 8775" d="M1080.73,707.38l1.93.45a41.471,41.471,0,0,0,23.74-1.44l.05-.02a41.478,41.478,0,0,0,25.99-49.13l-.02-.07-11.19-48.45a2.128,2.128,0,0,0-1.15-1.43,2.092,2.092,0,0,0-1.61-.07,1.477,1.477,0,0,0-.22.1l-44.28,22.48c-.05.03-.1.05-.15.08l-.11.06a41.573,41.573,0,0,0,.83,75.08c.39.18.79.36,1.19.53l.75.32.05.81a37.884,37.884,0,0,0,2.22,10.42,2.091,2.091,0,0,0,3.93-1.43,34.054,34.054,0,0,1-1.64-6.33Zm-3.98-7.89-.24,1.89-1.69-.88a37.359,37.359,0,0,1,1.02-66.93,1.708,1.708,0,0,0,.23-.13l.12-.07,41.57-21.1,10.57,45.78.03.12a37.308,37.308,0,0,1-23.35,44.28h0l-.05.02a37.063,37.063,0,0,1-23.29.78l-1.03-.3.08-1.07a33.21,33.21,0,0,1,3.04-11.72l.86-1.85,26.64-9.74a2.091,2.091,0,1,0-1.43-3.93l-22.71,8.31,8.21-17.69,18.11-6.63a2.091,2.091,0,1,0-1.43-3.93l-14.18,5.19,13.03-28.05a2.093,2.093,0,0,0-1.01-2.78,2.091,2.091,0,0,0-2.78,1.02l-13.03,28.05-5.19-14.18a2.091,2.091,0,0,0-3.93,1.43l6.63,18.11-8.21,17.69-5.4-14.76a2.091,2.091,0,0,0-3.93,1.43l6.84,18.69-.86,1.85A36.945,36.945,0,0,0,1076.75,699.49Z" fill="#3c3c3c" opacity="0.1"/>
      <g id="Grupo_1029" data-name="Grupo 1029" opacity="0.1">
        <g id="Grupo_1024" data-name="Grupo 1024">
          <path id="Caminho_8776" data-name="Caminho 8776" d="M1218.3,506.94a8.025,8.025,0,0,1-4.93-3.78l-5.1-8.79-8.8,5.1a8.1,8.1,0,1,1-8.13-14.02l8.79-5.1-5.1-8.8a8.106,8.106,0,1,1,14.02-8.14l5.1,8.81,8.8-5.11a8.114,8.114,0,0,1,11.07,2.94,8.108,8.108,0,0,1-2.95,11.08l-8.8,5.11,5.1,8.79a8.108,8.108,0,0,1-2.95,11.08A7.888,7.888,0,0,1,1218.3,506.94Zm-8.85-17.06,6.76,11.64a4.811,4.811,0,0,0,6.58,1.75,4.819,4.819,0,0,0,1.75-6.59l-6.76-11.64,11.64-6.76a4.819,4.819,0,0,0,2.24-2.93,4.758,4.758,0,0,0-.49-3.65,4.831,4.831,0,0,0-6.58-1.75l-11.65,6.76-6.75-11.65a4.821,4.821,0,1,0-8.34,4.84l6.75,11.64-11.64,6.75a4.819,4.819,0,0,0-2.24,2.93,4.816,4.816,0,0,0,7.07,5.41Z" fill="#3c3c3c"/>
        </g>
        <g id="Grupo_1025" data-name="Grupo 1025">
          <path id="Caminho_8777" data-name="Caminho 8777" d="M1234.73,455.58l-30.18-8.02c-4.32-1.15-6.98-5.31-5.93-9.27s5.42-6.25,9.74-5.1l30.18,8.02c4.32,1.15,6.98,5.3,5.93,9.27a7.116,7.116,0,0,1-3.72,4.52A8.481,8.481,0,0,1,1234.73,455.58Zm-27.21-19.21c-2.57-.68-5.14.56-5.72,2.77s1.02,4.57,3.59,5.25l30.18,8.02a5.184,5.184,0,0,0,3.69-.34,3.856,3.856,0,0,0,2.04-2.43c.59-2.21-1.03-4.56-3.59-5.24Z" fill="#3c3c3c"/>
        </g>
        <g id="Grupo_1026" data-name="Grupo 1026">
          <path id="Caminho_8778" data-name="Caminho 8778" d="M1239.49,437.65l-30.18-8.02c-4.32-1.15-6.98-5.3-5.93-9.27s5.43-6.26,9.75-5.11l30.18,8.02c4.32,1.15,6.98,5.31,5.93,9.27a7.1,7.1,0,0,1-3.72,4.51A8.465,8.465,0,0,1,1239.49,437.65Zm-27.21-19.21c-2.57-.68-5.14.56-5.72,2.77s1.03,4.56,3.59,5.24l30.18,8.02a5.184,5.184,0,0,0,3.69-.34,3.818,3.818,0,0,0,2.03-2.42c.59-2.21-1.02-4.57-3.59-5.25Z" fill="#3c3c3c"/>
        </g>
        <g id="Grupo_1027" data-name="Grupo 1027">
          <path id="Caminho_8779" data-name="Caminho 8779" d="M1279.55,509.15l-30.18-8.02c-4.32-1.15-6.98-5.3-5.93-9.27s5.42-6.25,9.74-5.1l30.18,8.02c4.32,1.15,6.97,5.3,5.92,9.26S1283.87,510.29,1279.55,509.15Zm-27.21-19.21c-2.57-.68-5.14.56-5.72,2.77s1.03,4.56,3.59,5.24l30.18,8.02c2.57.68,5.13-.56,5.72-2.77s-1.02-4.56-3.59-5.24Z" fill="#3c3c3c"/>
        </g>
        <g id="Grupo_1028" data-name="Grupo 1028">
          <path id="Caminho_8780" data-name="Caminho 8780" d="M1273,473a8.107,8.107,0,0,1-5.75-9.91l1.93-7.26-7.25-1.93a8.108,8.108,0,1,1,4.17-15.67l7.25,1.93,1.93-7.26a8.1,8.1,0,0,1,15.66,4.16l-1.93,7.26,7.26,1.93a8.106,8.106,0,0,1-4.16,15.67l-7.26-1.93-1.93,7.26A8.133,8.133,0,0,1,1273,473Zm-7.75-31.59a4.816,4.816,0,1,0-2.47,9.31l10.43,2.77-2.77,10.43a4.816,4.816,0,0,0,9.31,2.47l2.77-10.43,10.44,2.77a4.816,4.816,0,1,0,2.47-9.31l-10.44-2.77,2.77-10.44a4.816,4.816,0,0,0-9.31-2.47l-2.77,10.44Z" fill="#3c3c3c"/>
        </g>
      </g>
      <g id="Grupo_1030" data-name="Grupo 1030" opacity="0.1">
        <path id="Caminho_8781" data-name="Caminho 8781" d="M653.38,577.66a3.322,3.322,0,0,0,4.01,2.44l33.01-7.97a3.322,3.322,0,0,0,2.44-4.01l-7.95-33.1a3.355,3.355,0,0,0-4.01-2.44l-33.1,7.95a3.322,3.322,0,0,0-2.44,4.01Zm27.97-41.3,7.77,32.23-32.21,7.77-7.77-32.21Z" fill="#3c3c3c"/>
        <path id="Caminho_8782" data-name="Caminho 8782" d="M659.78,583.63l-33.63-4.66a3.317,3.317,0,0,0-3.74,2.83l-4.66,33.65a3.317,3.317,0,0,0,2.83,3.74l33.63,4.66a3.317,3.317,0,0,0,3.74-2.83l4.66-33.65A3.308,3.308,0,0,0,659.78,583.63Zm-5.46,36.46-32.82-4.55,4.55-32.82,32.82,4.55Z" fill="#3c3c3c"/>
        <path id="Caminho_8783" data-name="Caminho 8783" d="M709.48,590.32l-31.31-13.15a3.376,3.376,0,0,0-4.36,1.84l-13.15,31.31a3.322,3.322,0,0,0,1.77,4.35h0l31.31,13.15a3.322,3.322,0,0,0,4.35-1.77h0l13.08-31.39A3.317,3.317,0,0,0,709.48,590.32Zm-14.64,33.74-30.58-12.72,12.83-30.54,30.54,12.83Z" fill="#3c3c3c"/>
        <path id="Caminho_8784" data-name="Caminho 8784" d="M662.16,565.81a1.674,1.674,0,0,0,.85,1.06,1.808,1.808,0,0,0,1.4.19,1.477,1.477,0,0,0,1.11-.79,8.68,8.68,0,0,0,.45-2.14l.37-2.64,7.69-1.85,1.48,2.09.68.9a3.874,3.874,0,0,0,.67.73,1.607,1.607,0,0,0,1.46.3,1.864,1.864,0,0,0,1.11-.81,1.773,1.773,0,0,0,.19-1.35,6.3,6.3,0,0,0-1.08-1.88l-7.89-11.01-.93-1.33a5.133,5.133,0,0,0-.8-.88,2.647,2.647,0,0,0-1.05-.58,3.131,3.131,0,0,0-2.65.65,2.6,2.6,0,0,0-.67,1,5.975,5.975,0,0,0-.32,1.39c-.07.54-.14,1-.19,1.39l-1.86,13.45c-.04.56-.07.99-.08,1.29A2.868,2.868,0,0,0,662.16,565.81Zm10.09-8.84-5.65,1.36.9-8.42Z" fill="#3c3c3c"/>
        <path id="Caminho_8785" data-name="Caminho 8785" d="M632.03,608.66a2.481,2.481,0,0,0,1.79.83l5.89.82a22.512,22.512,0,0,0,2.6.12,7.785,7.785,0,0,0,2.1-.24,5.01,5.01,0,0,0,2.49-1.54,5.322,5.322,0,0,0,1.24-2.8,4.758,4.758,0,0,0-3.15-5.24,4.61,4.61,0,0,0,3.41-5.46,4.767,4.767,0,0,0-.6-1.5,4.67,4.67,0,0,0-1.06-1.2,5.162,5.162,0,0,0-1.75-.92,14.567,14.567,0,0,0-2.36-.5l-6.13-.85a2.485,2.485,0,0,0-1.92.3,2.592,2.592,0,0,0-.81,1.77l-2.01,14.48A2.643,2.643,0,0,0,632.03,608.66Zm5.58-15.28,3.08.43a8.015,8.015,0,0,1,3.09.92,1.872,1.872,0,0,1,.78,1.99,2.434,2.434,0,0,1-.5,1.19,2.127,2.127,0,0,1-1.36.88,7.044,7.044,0,0,1-2.29-.04l-3.56-.49Zm-1.07,7.77,4.01.56a5.811,5.811,0,0,1,2.97,1.09,2.373,2.373,0,0,1,.69,2.24c-.26,1.9-1.71,2.66-4.35,2.3l-4.19-.58Z" fill="#3c3c3c"/>
        <path id="Caminho_8786" data-name="Caminho 8786" d="M677.71,605.91a7.786,7.786,0,0,0,1.12,2.23,7.606,7.606,0,0,0,1.76,1.73,12.91,12.91,0,0,0,2.47,1.36,9.106,9.106,0,0,0,3.53.77,7.412,7.412,0,0,0,2.97-.68,7.151,7.151,0,0,0,2.08-1.41,5.182,5.182,0,0,0,1.2-1.72,1.639,1.639,0,0,0,.01-1.32,1.68,1.68,0,0,0-.93-.92,1.42,1.42,0,0,0-1.3-.01,4.149,4.149,0,0,0-1.05.91,5.023,5.023,0,0,1-2.58,1.52,4.807,4.807,0,0,1-2.96-.41,4.907,4.907,0,0,1-2.18-1.49,4.743,4.743,0,0,1-.78-2.76,9.8,9.8,0,0,1,.86-3.65,8.393,8.393,0,0,1,3.36-4.41,4.659,4.659,0,0,1,4.28-.2,4.456,4.456,0,0,1,2.09,1.64,5.965,5.965,0,0,1,.83,2.69,5.269,5.269,0,0,0,.3,1.47,1.612,1.612,0,0,0,.91.77,1.523,1.523,0,0,0,1.27-.03,1.673,1.673,0,0,0,.9-.91,4.585,4.585,0,0,0,.1-2.79,7.653,7.653,0,0,0-1.78-3.3,9.1,9.1,0,0,0-3.44-2.36,9.623,9.623,0,0,0-3.66-.79,8.515,8.515,0,0,0-3.52.7,9.1,9.1,0,0,0-3.03,2.18,12.052,12.052,0,0,0-2.25,3.6,13.251,13.251,0,0,0-.81,2.62,10.405,10.405,0,0,0-.18,2.55A8.465,8.465,0,0,0,677.71,605.91Z" fill="#3c3c3c"/>
      </g>
      <g id="Grupo_1031" data-name="Grupo 1031" opacity="0.1">
        <path id="Caminho_8787" data-name="Caminho 8787" d="M1113.74,391.44a3.322,3.322,0,0,0,4.01,2.44l33.01-7.97a3.322,3.322,0,0,0,2.44-4.01l-7.95-33.1a3.355,3.355,0,0,0-4.01-2.44l-33.1,7.95a3.322,3.322,0,0,0-2.44,4.01Zm27.97-41.31,7.77,32.23-32.21,7.77-7.77-32.21Z" fill="#3c3c3c"/>
        <path id="Caminho_8788" data-name="Caminho 8788" d="M1120.14,397.41l-33.63-4.66a3.317,3.317,0,0,0-3.74,2.83l-4.66,33.65a3.317,3.317,0,0,0,2.83,3.74l33.63,4.66a3.317,3.317,0,0,0,3.74-2.83l4.66-33.65A3.315,3.315,0,0,0,1120.14,397.41Zm-5.46,36.46-32.82-4.55,4.55-32.82,32.82,4.55Z" fill="#3c3c3c"/>
        <path id="Caminho_8789" data-name="Caminho 8789" d="M1169.83,404.1l-31.31-13.15a3.376,3.376,0,0,0-4.36,1.84l-13.15,31.31a3.322,3.322,0,0,0,1.77,4.35h0l31.31,13.15a3.322,3.322,0,0,0,4.35-1.77h0l13.08-31.39A3.309,3.309,0,0,0,1169.83,404.1Zm-14.63,33.74-30.58-12.72,12.83-30.54,30.54,12.83Z" fill="#3c3c3c"/>
        <path id="Caminho_8790" data-name="Caminho 8790" d="M1122.51,379.59a1.674,1.674,0,0,0,.85,1.06,1.808,1.808,0,0,0,1.4.19,1.477,1.477,0,0,0,1.11-.79,8.677,8.677,0,0,0,.45-2.14l.37-2.64,7.69-1.85,1.48,2.09.68.9a3.876,3.876,0,0,0,.67.73,1.607,1.607,0,0,0,1.46.3,1.864,1.864,0,0,0,1.11-.81,1.772,1.772,0,0,0,.19-1.35,6.3,6.3,0,0,0-1.08-1.88L1131,362.39l-.93-1.33a5.131,5.131,0,0,0-.8-.88,2.648,2.648,0,0,0-1.05-.58,3.131,3.131,0,0,0-2.65.65,2.6,2.6,0,0,0-.67,1,5.969,5.969,0,0,0-.32,1.39c-.07.54-.14,1-.19,1.39l-1.86,13.45c-.04.56-.07.99-.08,1.29A3.271,3.271,0,0,0,1122.51,379.59Zm10.09-8.84-5.65,1.36.9-8.42Z" fill="#3c3c3c"/>
        <path id="Caminho_8791" data-name="Caminho 8791" d="M1092.39,422.44a2.481,2.481,0,0,0,1.79.83l5.89.82a22.518,22.518,0,0,0,2.6.12,7.785,7.785,0,0,0,2.1-.24,5.01,5.01,0,0,0,2.49-1.54,5.321,5.321,0,0,0,1.24-2.8,4.758,4.758,0,0,0-3.15-5.24,4.61,4.61,0,0,0,3.41-5.46,4.766,4.766,0,0,0-.6-1.5,4.67,4.67,0,0,0-1.06-1.2,5.162,5.162,0,0,0-1.75-.92,14.569,14.569,0,0,0-2.36-.5l-6.13-.85a2.485,2.485,0,0,0-1.92.3,2.593,2.593,0,0,0-.81,1.77l-2.01,14.48A2.551,2.551,0,0,0,1092.39,422.44Zm5.58-15.28,3.08.43a8.014,8.014,0,0,1,3.09.92,1.872,1.872,0,0,1,.78,1.99,2.434,2.434,0,0,1-.5,1.19,2.128,2.128,0,0,1-1.36.88,7.042,7.042,0,0,1-2.29-.04l-3.56-.49Zm-1.08,7.77,4.01.56a5.81,5.81,0,0,1,2.97,1.09,2.373,2.373,0,0,1,.69,2.24c-.26,1.9-1.71,2.66-4.35,2.3l-4.19-.58Z" fill="#3c3c3c"/>
        <path id="Caminho_8792" data-name="Caminho 8792" d="M1138.06,419.69a7.787,7.787,0,0,0,1.12,2.23,7.6,7.6,0,0,0,1.76,1.73,12.908,12.908,0,0,0,2.47,1.36,9.106,9.106,0,0,0,3.53.77,7.412,7.412,0,0,0,2.97-.68,7.149,7.149,0,0,0,2.08-1.41,5.18,5.18,0,0,0,1.2-1.72,1.64,1.64,0,0,0,.01-1.32,1.68,1.68,0,0,0-.93-.92,1.42,1.42,0,0,0-1.3-.01,4.15,4.15,0,0,0-1.05.91,5.022,5.022,0,0,1-2.58,1.52,4.806,4.806,0,0,1-2.96-.41,4.907,4.907,0,0,1-2.18-1.49,4.742,4.742,0,0,1-.78-2.76,9.8,9.8,0,0,1,.86-3.65,8.393,8.393,0,0,1,3.36-4.41,4.659,4.659,0,0,1,4.28-.2,4.455,4.455,0,0,1,2.09,1.64,5.964,5.964,0,0,1,.83,2.69,5.267,5.267,0,0,0,.3,1.47,1.611,1.611,0,0,0,.91.77,1.523,1.523,0,0,0,1.27-.03,1.673,1.673,0,0,0,.9-.91,4.586,4.586,0,0,0,.1-2.79,7.654,7.654,0,0,0-1.78-3.3,9.1,9.1,0,0,0-3.44-2.36,9.624,9.624,0,0,0-3.66-.79,8.516,8.516,0,0,0-3.52.7,9.1,9.1,0,0,0-3.03,2.18,12.052,12.052,0,0,0-2.25,3.6,13.256,13.256,0,0,0-.81,2.62,10.405,10.405,0,0,0-.18,2.55A9.233,9.233,0,0,0,1138.06,419.69Z" fill="#3c3c3c"/>
      </g>
      <g id="Grupo_1032" data-name="Grupo 1032" opacity="0.1">
        <path id="Caminho_8793" data-name="Caminho 8793" d="M786.79,634.99a45.292,45.292,0,0,0-10.9,46.19c4.96,15.37,17.6,26.82,33.81,30.64,8.1,1.91,16.54,1.52,23.15-1.07,5.04-1.97,11.47-6.15,13.53-14.88,1.48-6.28-1.41-10.63-3.96-14.46-2.91-4.36-3.85-7.18-3.25-9.7s2.69-4.62,7.24-7.23c4-2.29,8.52-4.88,10-11.17,2.83-12.02-5.61-21.5-14.46-26.38a43.955,43.955,0,0,0-11.14-4.23C816.57,619.37,799.31,622.21,786.79,634.99Zm53.42-4.9c9.97,5.49,14.72,13.87,12.7,22.41-1.12,4.77-4.61,6.76-8.3,8.88-5.3,3.04-8.15,6.06-8.96,9.5-.8,3.41.43,7.51,3.77,12.53,2.36,3.54,4.58,6.88,3.46,11.65-1.45,6.15-5.8,10.59-12.57,12.84-5.69,1.89-12.88,2.04-19.74.43h0c-15.01-3.54-26.71-14.1-31.28-28.26a41.753,41.753,0,0,1,10.04-42.57C804.14,622.4,826.14,622.34,840.21,630.09Z" fill="#3c3c3c"/>
        <path id="Caminho_8794" data-name="Caminho 8794" d="M857.93,722.58a1.785,1.785,0,0,0,2.08-1.34c.62-2.63,2.63-5.04,4.76-7.58,2.36-2.83,4.81-5.75,5.63-9.22l.02-.08a8,8,0,0,0-1-6c-.04-.06-.08-.12-.12-.19l-.42-.63.28-.66c1.58-3.68,6.95-16.61,9.73-28.4a262.743,262.743,0,0,0,4.54-28.41c.42-4.23-3.67-5.79-4.57-6.08a6.2,6.2,0,0,0-7.16,3.86,261.037,261.037,0,0,0-8.45,26.94c-2.78,11.78-3.76,25.76-4,29.76l-.04.72-.62.36a7.99,7.99,0,0,0-3.83,5.12c-1.21,5.13.55,15.3,1.78,20.5A1.759,1.759,0,0,0,857.93,722.58Zm17.11-83.47a2.619,2.619,0,0,1,3.04-1.62h.02c.06.01.11.03.17.04h0a1.986,1.986,0,0,1,1.58,2.18,259.514,259.514,0,0,1-4.46,27.94c-.62,2.62-1.41,5.46-2.42,8.69l-.37,1.18-7.81-1.84.2-1.22c.54-3.33,1.11-6.23,1.72-8.85A262.3,262.3,0,0,1,875.04,639.11Zm-3.57,41.83-.5,1.4c-1.82,5.13-3.63,9.57-4.54,11.77l-.46,1.1-1.14-.33c-.29-.08-.54-.14-.82-.19l-1.17-.21.08-1.19c.16-2.37.53-7.15,1.2-12.56l.18-1.47Zm-13.23,20.62a4.459,4.459,0,0,1,8.68,2.05c-.62,2.64-2.67,5.09-4.84,7.68-.41.49-.82.99-1.23,1.49l-1.93,2.38-.42-3.04C858.03,708.77,857.61,704.21,858.24,701.56Z" fill="#3c3c3c"/>
        <path id="Caminho_8795" data-name="Caminho 8795" d="M796.55,653.1a8.04,8.04,0,1,0,5.98,9.67A8.054,8.054,0,0,0,796.55,653.1Zm-2.86,12.16a4.455,4.455,0,1,1,5.36-3.31A4.454,4.454,0,0,1,793.69,665.26Z" fill="#3c3c3c"/>
        <path id="Caminho_8796" data-name="Caminho 8796" d="M807.41,678.99h0a8,8,0,0,0-3.66-1.97,8.146,8.146,0,0,0-2.1-.21,7.934,7.934,0,0,0-5.61,2.53,8.033,8.033,0,1,0,11.37-.35Zm-2.26,8.91a4.461,4.461,0,0,1-4.27,1.28,4.355,4.355,0,0,1-2.02-1.09,4.456,4.456,0,0,1-.19-6.3,4.465,4.465,0,0,1,6.3-.19,4.419,4.419,0,0,1,1.4,3.11A4.521,4.521,0,0,1,805.15,687.9Z" fill="#3c3c3c"/>
        <path id="Caminho_8797" data-name="Caminho 8797" d="M841.66,642.6a8.031,8.031,0,0,0-11.36.35,8.049,8.049,0,0,0,.34,11.36h0a8.04,8.04,0,0,0,11.02-11.71Zm-2.27,8.91a4.461,4.461,0,0,1-4.27,1.28,4.355,4.355,0,0,1-2.02-1.09,4.456,4.456,0,0,1-.19-6.3h0a4.465,4.465,0,0,1,6.3-.19,4.444,4.444,0,0,1,.18,6.3Z" fill="#3c3c3c"/>
        <path id="Caminho_8798" data-name="Caminho 8798" d="M830.03,683.5a8.037,8.037,0,1,0,3.9,4.77A8,8,0,0,0,830.03,683.5Zm.12,9.19a4.437,4.437,0,0,1-2.64,2.16,4.5,4.5,0,0,1-2.3.07,4.453,4.453,0,0,1-.27-8.6h0a4.454,4.454,0,0,1,5.21,6.37Z" fill="#3c3c3c"/>
        <path id="Caminho_8799" data-name="Caminho 8799" d="M815.64,635.64a8.038,8.038,0,1,0-1.49,14.78h0a8.042,8.042,0,0,0,1.49-14.78Zm.11,9.19a4.437,4.437,0,0,1-2.64,2.16,4.5,4.5,0,0,1-2.3.07,4.453,4.453,0,1,1,3.12-8.26,4.387,4.387,0,0,1,2.15,2.64A4.314,4.314,0,0,1,815.75,644.83Z" fill="#3c3c3c"/>
      </g>
    </g>
    <g id="Grupo_1039" data-name="Grupo 1039" transform="translate(-617.719 -317.75)">
      <path id="Caminho_8819" data-name="Caminho 8819" d="M967.6,398.68a102.5,102.5,0,0,0-75.83,171.48,102.129,102.129,0,0,1-7.64,19.55l-.02.02c-.47.91-.95,1.79-1.44,2.69l-.02.02a9.305,9.305,0,0,0-.47,2.92,9.182,9.182,0,0,0,6.87,8.91l1.57.12c1.22-.08,2.43-.17,3.63-.29a101.2,101.2,0,0,0,32.73-8.74,102.105,102.105,0,0,0,45.04,8.27c51.68-2.17,94.34-43.65,97.86-95.25A102.534,102.534,0,0,0,967.6,398.68Z" fill="#63b346"/>
      <g id="Grupo_1036" data-name="Grupo 1036">
        <g id="Grupo_1035" data-name="Grupo 1035">
          <path id="Caminho_8820" data-name="Caminho 8820" d="M681.4,539.14l67.13-146.55h46.45L729.65,537.34H827.5V576.9H681.4Zm87.95-56.94h41.06V610.47H769.35Z" fill="#63b346"/>
        </g>
      </g>
      <g id="Grupo_1038" data-name="Grupo 1038">
        <g id="Grupo_1037" data-name="Grupo 1037">
          <path id="Caminho_8821" data-name="Caminho 8821" d="M1092.5,539.14l67.13-146.55h46.45l-65.33,144.75h97.85V576.9H1092.5Zm87.96-56.94h41.06V610.47h-41.06Z" fill="#63b346"/>
        </g>
      </g>
      <circle id="Elipse_53" data-name="Elipse 53" cx="11.55" cy="11.55" r="11.55" transform="translate(956.06 489.98)" fill="#fff"/>
      <circle id="Elipse_54" data-name="Elipse 54" cx="11.55" cy="11.55" r="11.55" transform="translate(917.13 489.98)" fill="#fff"/>
      <circle id="Elipse_55" data-name="Elipse 55" cx="11.55" cy="11.55" r="11.55" transform="translate(994.99 489.98)" fill="#fff"/>
    </g>
  </g>
</svg>
