<svg id="Componente_13_1" data-name="Componente 13 – 1" xmlns="http://www.w3.org/2000/svg"  viewBox="0 0 105.51 112.17">
  <path id="Caminho_8824" data-name="Caminho 8824" d="M244,96.47V92.62c4.52-3.96,8.06-9.86,10.02-16.85a1.822,1.822,0,0,0,.51.18c2.29.39,4.75-3.83,5.51-9.43s-.49-10.45-2.77-10.83a2.123,2.123,0,0,0-1.55.41L257.4,45c.31-2.03.6-4.17-.14-6.08s-2.91-3.44-4.83-2.72c.4-2.02-.57-3.76-2.12-5.15a16.988,16.988,0,0,0-1.69-3.23c.01.44-.31,1.03-.33,1.45-.6-.42-3.51-2.33-3.61-3.05.06.39.11.77.17,1.16-1.41-.67-2.83-1.34-4.24-2.01l-9.38-1.38c.38.21.77.43,1.15.64l-14.35.69a1.292,1.292,0,0,0,.03,1.29,22.644,22.644,0,0,0-4.42.47c.14.42.27.84.41,1.26a11.549,11.549,0,0,0-7.78,3.33c1.36-.2,2.72-.41,4.08-.61a16.2,16.2,0,0,1-4.79,2.74l1.38.12-2.49,2.16c-.26.22-.54.5-.51.84s.59.54.69.22c-1.3,1.79-.98,4.21-.82,6.42.14-.16.26-.31.39-.47a32.643,32.643,0,0,0,.98,8.65c.26,1.24.52,2.47.78,3.71-.05.33-.11.66-.15.99a2.409,2.409,0,0,0-1.99-.76c-2.29.39-3.53,5.24-2.77,10.83s3.22,9.81,5.51,9.43a1.941,1.941,0,0,0,.51-.18c1.96,6.99,5.5,12.89,10.02,16.85v3.93c-15.69,1.71-29.42,6.25-39.17,12.58a64.74,64.74,0,0,0,105.51-.35C273.53,102.53,259.72,98.08,244,96.47Z" transform="translate(-177.92 -23.99)" fill="content"/>
</svg>
