<svg id="Componente_18_1" data-name="Componente 18 – 1" xmlns="http://www.w3.org/2000/svg" viewBox="0 0 94.98 123.433">
  <path id="Caminho_8826" data-name="Caminho 8826" d="M520.48,247.5v-9.78c5.62-3.82,10.03-10.38,12.24-18.37a3.312,3.312,0,0,0,.42.12c2.28.4,4.75-2.85,5.52-7.26a14.809,14.809,0,0,0,.19-3.59,3.434,3.434,0,1,0,4.25-5.29,3.618,3.618,0,0,0-.69-7c1.41-1.44,2.75-3.16,2.84-5.17a3.843,3.843,0,0,0-2.23-3.61c1.18-1.61,1.14-4.24-.63-5.11a4.268,4.268,0,0,0-2.11-5.99c1.06-1.18.6-3.18-.56-4.27a9.35,9.35,0,0,0-4.32-1.9c1.64-1.52.55-4.52-1.46-5.51s-4.38-.59-6.58-.18c.33-1.96-1.59-3.71-3.56-3.96s-3.9.57-5.72,1.37a4.08,4.08,0,0,0-3.8-3.52,6.1,6.1,0,0,0-4.93,2.31c-.54-2.03-3.15-2.89-5.16-2.28s-3.53,2.23-4.94,3.78c.25-1.93-2.41-3.16-4.17-2.34s-2.66,2.78-3.28,4.62a3.539,3.539,0,0,0-6.08,3.51c-1-1.49-3.49-1.1-4.62.29s-1.31,3.3-1.43,5.09c-1.11-1.58-3.89-.42-4.37,1.45s.49,3.77,1.43,5.45c-1.84-.13-3.19,2.09-2.73,3.88a5.08,5.08,0,0,0,2.41,2.95,1.571,1.571,0,0,0,.21.24c-1.96-.44-3.74,1.72-3.65,3.73s1.43,3.73,2.84,5.17a3.618,3.618,0,0,0-.69,7,3.434,3.434,0,1,0,4.25,5.29,14.345,14.345,0,0,0,.19,3.59c.77,4.4,3.24,7.65,5.52,7.26a2.9,2.9,0,0,0,.42-.12c2.22,7.99,6.62,14.55,12.24,18.37v9.78c-16.56,1.64-30.05,6.76-36.11,13.5a64.72,64.72,0,0,0,94.98,0C550.53,254.26,537.04,249.13,520.48,247.5Z" transform="translate(-461.63 -158.317)" fill="content"/>
</svg>
