<svg id="Componente_16_1" data-name="Componente 16 – 1" xmlns="http://www.w3.org/2000/svg" viewBox="0 0 97 116.425">
  <path id="Caminho_8822" data-name="Caminho 8822" d="M264.55,248.8a9.7,9.7,0,0,0,3.46-5.54,4.6,4.6,0,0,1-3.83.8c1.81-.88,2.29-3.02,2.29-5.59a6.949,6.949,0,0,1-6.47,2.42c4.09-1.81,5.96-5.52,4.39-12.15-2.67,4.68-5.98,9.08-14.31,7.05a5.381,5.381,0,0,1-4.12-3.74,33.084,33.084,0,0,0,8.5-14.49c.1.03.19.07.29.09,2.27.46,4.83-2.72,5.72-7.1s-.22-8.31-2.49-8.77a2.7,2.7,0,0,0-2.02.48,37.521,37.521,0,0,0-6-17.68,21.428,21.428,0,0,0-.68-4.29c-1-3.61-3.24-6.74-5.43-9.78-8.64-12-21.12-2.83-26.9,8.29-6.03,5.2-10.22,13.68-11.06,23.46a2.724,2.724,0,0,0-2.02-.48c-2.27.46-3.38,4.39-2.49,8.77s3.45,7.56,5.72,7.1a2.458,2.458,0,0,0,.29-.09c2.24,7.56,6.61,13.76,12.15,17.4v8.74c-18.02,1.83-32.32,7.92-37.12,15.72a64.733,64.733,0,0,0,97,0C276.88,255.27,271.62,251.6,264.55,248.8Z" transform="translate(-182.42 -164.855)" fill="content"/>
</svg>
