<svg id="Componente_14_1" data-name="Componente 14 – 1" xmlns="http://www.w3.org/2000/svg" viewBox="0 0 100.92 113.344">
  <path id="Caminho_8827" data-name="Caminho 8827" d="M380.79,96.04V88.6c5.27-3.88,9.36-10.15,11.37-17.67,2.06-.04,4.52-2.66,5.82-6.39,1.47-4.22.88-8.26-1.3-9.02a3.467,3.467,0,0,0-3.3,1.03c-.01-.16-.03-.32-.05-.47,2.07-4.29,3.66-8.77,3.54-13.48-.16-6.8-5.34-13.97-12.13-13.72a21.014,21.014,0,0,1-3.54.14c-2.35-.34-4.09-2.26-6-3.67a15.97,15.97,0,0,0-15.23-1.93A33.013,33.013,0,0,0,355,26.17l-.18-.17a15.566,15.566,0,0,1-1.58,1.23c-.43.3-.88.58-1.34.84s-.93.49-1.41.71a16.508,16.508,0,0,1-3,1c-.37.09-.75.16-1.14.23s-.78.14-1.16.21c-2.34.42-4.68.9-6.1,2.71A5.624,5.624,0,0,0,338,36.81a9.777,9.777,0,0,0,.43,2.37,13.479,13.479,0,0,0,.93,2.25c.7,1.33,1.54,2.61,2.27,3.93a17.821,17.821,0,0,1,.99,2.01,10.463,10.463,0,0,1,.64,2.13c.3,1.66.12,3.38.29,5.05-.09.66-.17,1.33-.23,2a3.467,3.467,0,0,0-3.3-1.03c-2.18.76-2.77,4.8-1.3,9.02,1.3,3.73,3.76,6.35,5.82,6.39,2.01,7.52,6.1,13.79,11.37,17.67v7.45c-15.82,1.98-29.38,7.64-38.02,15.42a64.741,64.741,0,0,0,100.92,0C410.17,103.68,396.61,98.02,380.79,96.04Z" transform="translate(-317.89 -22.306)" fill="content"/>
</svg>
