<svg id="Componente_17_1" data-name="Componente 17 – 1" xmlns="http://www.w3.org/2000/svg" viewBox="0 0 97.16 115.708">
  <path id="Caminho_8828" data-name="Caminho 8828" d="M381.2,241.69v-6.72a23.3,23.3,0,0,0,2.43-1.82c3.89-.89,7.92.07,14.14,2.4a11.13,11.13,0,0,1,3.95,3.27c-.27-.82-.48-1.47-.68-2.01.81.32,1.64.65,2.51,1-.21-.76-.4-1.52-.58-2.28a17.97,17.97,0,0,1,1.8,1.05,50.045,50.045,0,0,1-2.57-5.19c-.2-1.39-.36-2.78-.47-4.18a25.575,25.575,0,0,0,1.81,2.35c-.76-3.25-1.5-7.27-2.03-11.29.07-3.1.26-6.21.49-9.32.06.08.11.16.17.24-.03-.49-.05-.97-.08-1.46.25-3.24.52-6.47.72-9.68.29-4.54.39-9.31-1.63-13.38s-6.82-7.14-11.13-5.68c.25-3.16-1.98-6-4.47-7.97-7.09-5.63-17.23-6.93-25.72-3.78a31.04,31.04,0,0,0-18.09,19.07c-.22.64-.41,1.29-.59,1.94a91.066,91.066,0,0,1-7.65,9.85,26.132,26.132,0,0,0,6.22-1.89c-.39,3.78-.5,7.63-.7,11.44-1.25,4.61-2.62,9.2-4.1,13.74l3.15-3.45c-.21,1.5-.45,3-.72,4.49a39.649,39.649,0,0,1-5.46,9.41,10.205,10.205,0,0,0,3.86-1.91c-.81,3.23-1.74,6.43-2.83,9.58,1.4-.5,2.93-1.05,4.51-1.58a4.253,4.253,0,0,0-.62,1.7,30.3,30.3,0,0,1,4.35-2.87c6.31-1.85,13-2.97,17.24-.71v5.63c-15.48,2.17-28.75,8.66-37.21,17.63a64.714,64.714,0,0,0,97.16,0C409.95,250.35,396.67,243.86,381.2,241.69Z" transform="translate(-321.22 -165.562)" fill="content"/>
</svg>
