<svg id="Componente_15_1" data-name="Componente 15 – 1" xmlns="http://www.w3.org/2000/svg" viewBox="0 0 100.92 111.814">
  <path id="Caminho_8823" data-name="Caminho 8823" d="M527.29,98.93l-.54-.97a4.566,4.566,0,0,1,.65-5.33h-6.71v-.06c4.59-5.05,7.91-12.29,9.17-20.61,1.86-.6,3.87-3,4.99-6.25,1.47-4.22.88-8.26-1.3-9.02a3.384,3.384,0,0,0-3.15.89V44.92a4.708,4.708,0,0,0,.22-.73,7.517,7.517,0,0,0-.22-2.62V39.43a2.22,2.22,0,0,1,.48-.91,8.828,8.828,0,0,1,.08-4.99,1.831,1.831,0,0,0,.12-1.19c-.14-.35-.52-.58-.62-.95a4.6,4.6,0,0,1,0-.83c-.06-.9-1.12-1.3-2-1.5a.913.913,0,0,0-.39-1.29,2.608,2.608,0,0,0-1.52-.13,3.97,3.97,0,0,0-.36-1.36,11.265,11.265,0,0,0-3.04.57c.2-.61-.56-1.19-1.2-1.08a2.845,2.845,0,0,0-1.53,1.13,1.373,1.373,0,0,0-1.59-1.09,4,4,0,0,0-1.89,1,1.678,1.678,0,0,0-2.79-.55c.13-.71-.97-1.03-1.6-.67s-1.07,1.03-1.75,1.27c-.01-.84-1.04-1.35-1.85-1.16a4.2,4.2,0,0,0-1.99,1.46,1.78,1.78,0,0,0-2.25-1.3,4.425,4.425,0,0,0-2.01,1.37h-.39a2.246,2.246,0,0,0-1.93-1.56,3.644,3.644,0,0,0-2.74,1.03,1.361,1.361,0,0,0-.91-1.53,2.865,2.865,0,0,0-1.91.13,6.6,6.6,0,0,0-2.51,1.64c-.4-.41-.39-1.09-.77-1.52a1.394,1.394,0,0,0-1.63-.19,4.152,4.152,0,0,0-1.29,1.18,2.1,2.1,0,0,0-2.39-.19,5.1,5.1,0,0,0-1.51,1.31c-.14.04-.28.1-.41.15a1.289,1.289,0,0,0-1.7-.47A3.5,3.5,0,0,0,481.28,29c-.18-.16-.36-.32-.55-.48a6.681,6.681,0,0,0-.74,3.37,2.036,2.036,0,0,0-.39,2.81c-.34-.11-.67.29-.65.65a2.187,2.187,0,0,0,.44.97,4.6,4.6,0,0,1,.66,2.01v.94a4.457,4.457,0,0,1-.41,1.52,4,4,0,0,0-.49,1.22c-.1.82.48,1.5.9,2.24v1.03c-.53.48-.46,1.53-.32,2.33a14.087,14.087,0,0,1,.11,4.25l.2.14v5.62a3.328,3.328,0,0,0-3.15-.89c-2.18.76-2.77,4.8-1.3,9.02,1.13,3.24,3.13,5.65,4.99,6.25,1.26,8.32,4.58,15.56,9.17,20.61v.06h-6.71a4.566,4.566,0,0,1,.65,5.33l-.54.97c-11.67,2.73-21.57,7.56-28.4,13.72a64.741,64.741,0,0,0,100.92,0C548.86,106.49,538.96,101.66,527.29,98.93Z" transform="translate(-454.75 -25.056)" fill="content"/>
</svg>
