<svg id="Componente_19_1" data-name="Componente 19 – 1" xmlns="http://www.w3.org/2000/svg" viewBox="0 0 105.51 107.93">
  <path id="Caminho_8825" data-name="Caminho 8825" d="M104.77,178v-3.85c4.52-3.96,8.06-9.86,10.02-16.85a1.822,1.822,0,0,0,.51.18c2.29.39,4.75-3.83,5.51-9.43s-.49-10.45-2.77-10.83a2.134,2.134,0,0,0-1.58.43c-.34-15.91-3.09-27.88-25.14-27.88-22.19,0-24.84,11.97-25.15,27.88a2.2,2.2,0,0,0-1.57-.43c-2.29.39-3.53,5.24-2.77,10.83s3.22,9.81,5.51,9.43a1.941,1.941,0,0,0,.51-.18c1.96,6.99,5.5,12.89,10.02,16.85v3.93c-15.69,1.71-29.42,6.25-39.17,12.58a64.74,64.74,0,0,0,105.51-.35C134.31,184.06,120.5,179.61,104.77,178Z" transform="translate(-38.7 -109.77)" fill="content"/>
</svg>
