<svg id="Componente_12_1" data-name="Componente 12 – 1" xmlns="http://www.w3.org/2000/svg" width="320.53" height="200.16" viewBox="0 0 320.53 200.16">
  <rect id="Retângulo_639" data-name="Retângulo 639" width="295.89" height="195.67" rx="14.57" transform="translate(9.69)" fill="#464745"/>
  <path id="Caminho_8675" data-name="Caminho 8675" d="M54.47,1615.44H375a17.12,17.12,0,0,1-17.12,17.12H71.59a17.12,17.12,0,0,1-17.12-17.12h0Z" transform="translate(-54.47 -1432.4)" fill="#464745"/>
  <path id="Caminho_8676" data-name="Caminho 8676" d="M182.93,1613.6l3.98,6.33h55.98l3.69-6.33Z" transform="translate(-54.47 -1432.4)"/>
  <path id="Caminho_8677" data-name="Caminho 8677" d="M357.51,1613.6c0,.11-65.68.19-146.67.19s-146.68-.08-146.68-.19,65.66-.19,146.68-.19S357.51,1613.5,357.51,1613.6Z" transform="translate(-54.47 -1432.4)" fill="#1a2e35"/>
  <rect id="Retângulo_640" data-name="Retângulo 640" width="277.79" height="164.77" rx="3.27" transform="translate(18.16 11.26)" fill="#ececec"/>
  <path id="Caminho_8678" data-name="Caminho 8678" d="M350.12,1608.67H72.33l.3-152.7H350.12Z" transform="translate(-54.47 -1432.4)" fill="#fff"/>
  <path id="Caminho_8679" data-name="Caminho 8679" d="M95.41,1450a2.22,2.22,0,1,1-2.22-2.22A2.22,2.22,0,0,1,95.41,1450Z" transform="translate(-54.47 -1432.4)" fill="#1a2e35"/>
  <path id="Caminho_8680" data-name="Caminho 8680" d="M82,1450a2.22,2.22,0,1,1-2.22-2.22A2.22,2.22,0,0,1,82,1450Z" transform="translate(-54.47 -1432.4)" fill="#1a2e35"/>
  <path id="Caminho_8681" data-name="Caminho 8681" d="M88.42,1450a2.22,2.22,0,1,1-2.22-2.22A2.22,2.22,0,0,1,88.42,1450Z" transform="translate(-54.47 -1432.4)" fill="#1a2e35"/>
  <path id="Caminho_8682" data-name="Caminho 8682" d="M254.65,1519.78a25.08,25.08,0,0,1,11.8,15.25c3.07,11,12.47,39.62,12.47,39.62s5.37,6.32,5.95,11-.58,16-2.31,18.1a4.87,4.87,0,0,1-4.18,1.77l-22.61-2.15-8.9-59.6Z" transform="translate(-54.47 -1432.4)" fill="#63b346"/>
  <path id="Caminho_8683" data-name="Caminho 8683" d="M179.89,1518.74s-16.16,5.07-20.19,9.48l13.24,61.57-.21,19.42h76.62c0-1,.69-64.5.69-64.5l4.61-24.93-27.24-4.8-5.37-4.22-30.31,1.54-4.6,4.6Z" transform="translate(-54.47 -1432.4)" fill="#63b346"/>
  <g id="Grupo_1010" data-name="Grupo 1010" transform="translate(-54.47 -1432.4)" opacity="0.3">
    <path id="Caminho_8684" data-name="Caminho 8684" d="M186,1572.15c-.23-.52-.57-1.09-1.13-1.2-.93-.19-1.54.9-1.86,1.79A81.089,81.089,0,0,1,173,1592.39l-.2,9.45c4.47-3.75,8.87-7.78,11.72-12.88S188.44,1577.47,186,1572.15Z"/>
  </g>
  <path id="Caminho_8685" data-name="Caminho 8685" d="M159.7,1528.22s-5.32,7.26-7.53,12-20.54,44.54-21.65,48.65-3.94,17.06,4.43,20.06h17.22l17.28-35,.88-40.56Z" transform="translate(-54.47 -1432.4)" fill="#63b346"/>
  <path id="Caminho_8686" data-name="Caminho 8686" d="M153.27,1583.69a13.748,13.748,0,0,0-1.18-.79,13.215,13.215,0,0,0-3.61-1.31,16.8,16.8,0,0,0-2.64-.37,10.447,10.447,0,0,0-3,.2,11.2,11.2,0,0,0-5.79,3.63,15.849,15.849,0,0,0-3.29,6.11,29.831,29.831,0,0,0-1,5.63c-.16,1.63-.22,3-.28,3.87a9.446,9.446,0,0,1-.07,1,1.38,1.38,0,0,1,0,.37,1.529,1.529,0,0,1,0-.37v-1.06a33.781,33.781,0,0,1,.18-3.88,28.792,28.792,0,0,1,1-5.7,15.781,15.781,0,0,1,3.33-6.24,11.43,11.43,0,0,1,6-3.71,10.665,10.665,0,0,1,3.1-.18,18.005,18.005,0,0,1,2.67.42,12.425,12.425,0,0,1,3.63,1.43,6.01,6.01,0,0,1,.85.63A.868.868,0,0,0,153.27,1583.69Z" transform="translate(-54.47 -1432.4)" fill="#1a2e35"/>
  <path id="Caminho_8687" data-name="Caminho 8687" d="M145.1,1576.73a1.932,1.932,0,0,1,.58-.09,9.793,9.793,0,0,1,1.6,0,13.389,13.389,0,0,1,2.35.35,13.9,13.9,0,0,1,5.22,2.49,12.823,12.823,0,0,1,1.75,1.61,10.637,10.637,0,0,1,1,1.25,2.321,2.321,0,0,1,.29.51s-.52-.65-1.45-1.6a14.2,14.2,0,0,0-1.76-1.52,15.746,15.746,0,0,0-2.44-1.47,16.488,16.488,0,0,0-2.68-1,14.5,14.5,0,0,0-2.29-.41C145.94,1576.72,145.11,1576.79,145.1,1576.73Z" transform="translate(-54.47 -1432.4)" fill="#1a2e35"/>
  <path id="Caminho_8688" data-name="Caminho 8688" d="M160.67,1574.81a3.211,3.211,0,0,1-.8-.06c-.5-.06-1.24-.14-2.15-.2a38.239,38.239,0,0,0-7.13.15,38.7,38.7,0,0,0-7,1.53c-.87.28-1.56.53-2,.71a3.844,3.844,0,0,1-.76.25,3.7,3.7,0,0,1,.71-.37c.46-.22,1.15-.5,2-.81a32.422,32.422,0,0,1,14.18-1.7c.91.1,1.65.21,2.15.32a4.456,4.456,0,0,1,.8.18Z" transform="translate(-54.47 -1432.4)" fill="#1a2e35"/>
  <path id="Caminho_8689" data-name="Caminho 8689" d="M209.71,1540.8a1.238,1.238,0,0,1-.17-.2l-.47-.63c-.42-.59-1-1.39-1.73-2.4l-6-8.46h.27l-3,8.89-.07.2-.17-.11-.36-.23a18.356,18.356,0,0,1-3.75-3.16,23.294,23.294,0,0,1-2.68-3.71,31,31,0,0,1-2.94-7.12,47.248,47.248,0,0,1-1.12-5.07l-.24-1.39a1.13,1.13,0,0,0-.08-.35v-.12a5.762,5.762,0,0,1,.49,1.84c.25,1.2.59,2.93,1.21,5a31.8,31.8,0,0,0,3,7,22.162,22.162,0,0,0,2.65,3.64,18,18,0,0,0,3.69,3.1l.35.23-.24.09c1.08-3.16,2.12-6.17,3-8.89l.1-.28.17.24,5.9,8.53c.69,1,1.25,1.85,1.66,2.45l.43.66a1.306,1.306,0,0,1,.1.25Z" transform="translate(-54.47 -1432.4)" fill="#1a2e35"/>
  <g id="Grupo_1011" data-name="Grupo 1011" transform="translate(-54.47 -1432.4)" opacity="0.3">
    <path id="Caminho_8690" data-name="Caminho 8690" d="M229.66,1570.19a34.86,34.86,0,0,0,4.43,20.65c3.57,6.2,8.79,11.73,15.3,14.7.21-6.32-.09-13.76.12-20.08Z"/>
  </g>
  <path id="Caminho_8691" data-name="Caminho 8691" d="M228.94,1561.88s-2.78.77-.69,6.47,2.78,5.36,4.17,10.69,3,10.21,5.45,13.22,11.48,9.16,11.48,9.16l8.12-7.65s-1.34-5.71-1-9.58,1.13-13.38,1-15a28.367,28.367,0,0,0-1.85-5.56v-2.7l-4.18-12.85s-2.32-1-3.13,2.67l-1.39-3.94s-2.2-.35-2.78,4.17a45.59,45.59,0,0,0,.46,10.79l-1.16,7.89L241.7,1575l-1.51.23s-2.27-.62-3.51-4.89S232.07,1561,228.94,1561.88Z" transform="translate(-54.47 -1432.4)" fill="#ffbf9d"/>
  <path id="Caminho_8692" data-name="Caminho 8692" d="M254.75,1582.05a2.246,2.246,0,0,1,0-.29l-.06-.85c0-.78-.1-1.86-.17-3.2-.13-2.77-.3-6.62-.51-11.12v.09a1.64,1.64,0,0,0-1.64-.42,2.37,2.37,0,0,0-1.51,1.1c-.71,1.14-.74,2.63-1,4.06l-1.24,9.17c-.19,1.41-.39,2.75-.67,4a25.648,25.648,0,0,1-1,3.38,27.46,27.46,0,0,0-.87,2.76,8.1,8.1,0,0,0-.26,2.14,6.421,6.421,0,0,0,.32,1.82,2.061,2.061,0,0,1-.2-.44,5.091,5.091,0,0,1-.25-1.37,8.169,8.169,0,0,1,.21-2.19,26.168,26.168,0,0,1,.83-2.79,26.148,26.148,0,0,0,1-3.37c.26-1.23.46-2.56.64-4,.37-2.82.78-5.92,1.22-9.17.1-.73.18-1.44.3-2.16a5.72,5.72,0,0,1,.72-2,2.71,2.71,0,0,1,1.71-1.23,1.93,1.93,0,0,1,1.95.53h0c.15,4.5.28,8.35.38,11.12l.08,3.2v.85A1,1,0,0,1,254.75,1582.05Z" transform="translate(-54.47 -1432.4)" fill="#ff9a6c"/>
  <path id="Caminho_8693" data-name="Caminho 8693" d="M250.32,1567.43a3.129,3.129,0,0,1-.35-.72,19.6,19.6,0,0,1-.68-2.08,22.337,22.337,0,0,1-.58-3.2,9.49,9.49,0,0,1,0-1.93,4.12,4.12,0,0,1,.7-2,2.879,2.879,0,0,1,1.48-1.12h.13l.06.11c1.17,2.07,2.2,3.91,2.91,5.22l.84,1.56a2.321,2.321,0,0,1,.26.58,3.144,3.144,0,0,1-.36-.52l-.92-1.51c-.77-1.29-1.83-3.1-3-5.17l.18.08a2.511,2.511,0,0,0-1.3,1,3.85,3.85,0,0,0-.65,1.83,9.719,9.719,0,0,0,0,1.87,24.5,24.5,0,0,0,.51,3.17c.21.89.42,1.6.58,2.09a5.249,5.249,0,0,1,.19.74Z" transform="translate(-54.47 -1432.4)" fill="#ff9a6c"/>
  <path id="Caminho_8694" data-name="Caminho 8694" d="M248.38,1568.48a2.861,2.861,0,0,1-.08-.74c0-.55-.05-1.22-.08-2-.06-1.71-.11-4.06-.15-6.66a55.768,55.768,0,0,1,.11-6.68,10.052,10.052,0,0,1,.43-2,2.673,2.673,0,0,1,.3-.69,18.5,18.5,0,0,0-.5,2.7c-.16,1.68,0,4,0,6.64s.06,5,0,6.67v2a3.431,3.431,0,0,1-.03.76Z" transform="translate(-54.47 -1432.4)" fill="#ff9a6c"/>
  <path id="Caminho_8695" data-name="Caminho 8695" d="M241.51,1589.86s.46-.63,1.09-1.72a13.684,13.684,0,0,0,.94-2,15.763,15.763,0,0,0,.73-2.58,16,16,0,0,0,.22-2.67,13.628,13.628,0,0,0-.19-2.19c-.21-1.23-.48-2-.42-2a1.851,1.851,0,0,1,.23.5,8.272,8.272,0,0,1,.42,1.45,12.247,12.247,0,0,1,.27,2.22,13.92,13.92,0,0,1-.21,2.74,13.56,13.56,0,0,1-.76,2.63,12.581,12.581,0,0,1-1,2,8.566,8.566,0,0,1-.9,1.21C241.67,1589.74,241.53,1589.88,241.51,1589.86Z" transform="translate(-54.47 -1432.4)" fill="#ff9a6c"/>
  <path id="Caminho_8696" data-name="Caminho 8696" d="M255.76,1585.87l7.05,2.45s6.72-3.48,11.36,0,8.67,12.65,7.4,16.36c0,0-3.21,4-5.64,4.53s-11.9-1.71-15.84-2.54-10.74-5.25-10.74-5.25Z" transform="translate(-54.47 -1432.4)" fill="#ffbf9d"/>
  <path id="Caminho_8697" data-name="Caminho 8697" d="M256.63,1596.25a2.452,2.452,0,0,1-.08-.62c0-.48-.06-1-.1-1.7-.07-1.44-.17-3.43-.2-5.63a49.529,49.529,0,0,1,.16-5.63c.07-.72.14-1.3.22-1.7a2.481,2.481,0,0,1,.14-.61c.05,0-.06.89-.12,2.33s-.1,3.41-.07,5.61.08,4.09.11,5.62v1.71a2.37,2.37,0,0,1-.06.62Z" transform="translate(-54.47 -1432.4)" fill="#ff9a6c"/>
  <path id="Caminho_8698" data-name="Caminho 8698" d="M279.86,1588a23.208,23.208,0,0,0-2.34-2.11,12.89,12.89,0,0,0-14.29-.79,24.5,24.5,0,0,0-2.56,1.84,4.476,4.476,0,0,1,.59-.62,10.214,10.214,0,0,1,1.86-1.42,12.66,12.66,0,0,1,14.54.8,11.749,11.749,0,0,1,1.69,1.61,3.921,3.921,0,0,1,.51.69Z" transform="translate(-54.47 -1432.4)" fill="#1a2e35"/>
  <path id="Caminho_8699" data-name="Caminho 8699" d="M279,1582.17a13.71,13.71,0,0,0-2.93-1.62,13,13,0,0,0-7.93-.24,18.368,18.368,0,0,0-7.07,3.81c-.79.67-1.4,1.26-1.81,1.67a4.875,4.875,0,0,1-.67.62,6.124,6.124,0,0,1,.57-.71c.39-.43,1-1,1.75-1.76a18.282,18.282,0,0,1,3-2.18A17.718,17.718,0,0,1,268,1580a12.768,12.768,0,0,1,8.11.34,9.437,9.437,0,0,1,2.17,1.23,3.745,3.745,0,0,1,.51.44A2.136,2.136,0,0,1,279,1582.17Z" transform="translate(-54.47 -1432.4)" fill="#1a2e35"/>
  <path id="Caminho_8700" data-name="Caminho 8700" d="M279,1577.08c0,.06-1.25-.31-3.29-.59a25.375,25.375,0,0,0-3.61-.23,26.3,26.3,0,0,0-12.01,2.98c-1.83,1-2.86,1.73-2.9,1.67a6.875,6.875,0,0,1,.71-.56,10.508,10.508,0,0,1,.87-.6c.36-.22.75-.48,1.21-.72a23.3,23.3,0,0,1,3.32-1.53,26.432,26.432,0,0,1,4.33-1.17,27.617,27.617,0,0,1,4.47-.38,23.554,23.554,0,0,1,3.64.31c.52.06,1,.18,1.38.26a8.819,8.819,0,0,1,1,.27,3.611,3.611,0,0,1,.88.29Z" transform="translate(-54.47 -1432.4)" fill="#1a2e35"/>
  <path id="Caminho_8701" data-name="Caminho 8701" d="M225,1514.77a6,6,0,0,1,.48,1.88,18.189,18.189,0,0,1-.26,5.46,35,35,0,0,1-.91,3.81,28.679,28.679,0,0,1-1.85,4.23c-1.52,2.93-3.43,6.12-5.64,9.52l-.26.4v-7.54l.24.12-5.94,4.8.05-.08a63.1,63.1,0,0,0-2.64,14.29,167.387,167.387,0,0,0,.25,21.86c.32,6.73.52,12.79.73,17.88s.39,9.2.54,12c.08,1.41.15,2.51.19,3.28l.06.85v0l-.09-.85c-.07-.75-.16-1.85-.26-3.27-.19-2.84-.41-7-.64-12s-.5-11.15-.8-17.87a164.381,164.381,0,0,1-.28-21.91,62.621,62.621,0,0,1,2.67-14.36h0l5.95-4.79.25-.19v7.37l-.26-.07c4.37-6.78,7.93-12.67,8.47-17.44a18.94,18.94,0,0,0,.35-5.42,9.839,9.839,0,0,0-.26-1.41A2.254,2.254,0,0,0,225,1514.77Z" transform="translate(-54.47 -1432.4)" fill="#1a2e35"/>
  <path id="Caminho_8702" data-name="Caminho 8702" d="M213.62,1596.85h-.22a1.81,1.81,0,1,0,.22,0Z" transform="translate(-54.47 -1432.4)" fill="#fff"/>
  <path id="Caminho_8703" data-name="Caminho 8703" d="M213.62,1572.32h-.22a1.739,1.739,0,1,0,.22,0Z" transform="translate(-54.47 -1432.4)" fill="#fff"/>
  <path id="Caminho_8704" data-name="Caminho 8704" d="M213.39,1550.39a1.8,1.8,0,0,0,.23-3.59h-.22a1.8,1.8,0,0,0,0,3.59Z" transform="translate(-54.47 -1432.4)" fill="#fff"/>
  <path id="Caminho_8705" data-name="Caminho 8705" d="M185.92,1486a45,45,0,0,1-6.11-7.87,14.94,14.94,0,0,1-2.06-9.58c.32-1.92,1.13-3.75,1.26-5.69.18-2.67-.94-5.46,0-8,1.48-3.91,6.75-4.52,9.94-7.22,2.49-2.11,3.7-5.53,6.44-7.3,2.39-1.54,5.46-1.51,8.28-1.11s5.65,1.11,8.48.73a55.255,55.255,0,0,0,5.87-1.57,8,8,0,0,1,5.93.4c1.75,1,2.74,3.51,1.59,5.18,3.27-1.5,7.42,1,8.32,4.53s-.9,7.26-3.67,9.56-6.35,3.37-9.89,4c-10,1.89-20.89.82-29.53-4.6" transform="translate(-54.47 -1432.4)"/>
  <path id="Caminho_8706" data-name="Caminho 8706" d="M221.14,1519.73c-.49-3.8-.89-7-.91-7.36,0,0,12.67-2.84,12-15.66-.33-6.19-2.07-18.89-3.77-30.37A23.91,23.91,0,0,0,203.18,1446l-1.24.08c-13.27,1.67-19.26,13.88-17.23,27.1l7.16,44.33s3.06,9.8,9.59,11.5l8.25,11.78,1.37-5.07,6.15-5.35a24.385,24.385,0,0,0,3-4.51A9.91,9.91,0,0,0,221.14,1519.73Z" transform="translate(-54.47 -1432.4)" fill="#ffbf9d"/>
  <path id="Caminho_8707" data-name="Caminho 8707" d="M220.24,1512.19a29.86,29.86,0,0,1-17-3.63s4.57,9,17.27,6.94Z" transform="translate(-54.47 -1432.4)" fill="#ff9a6c"/>
  <path id="Caminho_8708" data-name="Caminho 8708" d="M224.31,1477.36a1.83,1.83,0,0,1-1.64,2,1.75,1.75,0,0,1-2-1.52,1.83,1.83,0,0,1,1.63-2,1.76,1.76,0,0,1,2.01,1.52Z" transform="translate(-54.47 -1432.4)" fill="#1a2e35"/>
  <path id="Caminho_8709" data-name="Caminho 8709" d="M226.1,1472.81c-.21.26-1.66-.68-3.63-.54s-3.35,1.22-3.58,1,.09-.54.69-1a5.049,5.049,0,0,1,2.84-1.09,4.79,4.79,0,0,1,2.91.73C226,1472.28,226.2,1472.7,226.1,1472.81Z" transform="translate(-54.47 -1432.4)" fill="#1a2e35"/>
  <path id="Caminho_8710" data-name="Caminho 8710" d="M205.72,1478.69a1.83,1.83,0,0,1-1.64,2,1.75,1.75,0,0,1-2-1.52,1.83,1.83,0,0,1,1.63-2,1.76,1.76,0,0,1,2.01,1.52Z" transform="translate(-54.47 -1432.4)" fill="#1a2e35"/>
  <path id="Caminho_8711" data-name="Caminho 8711" d="M206.78,1474.47c-.21.26-1.67-.67-3.63-.54s-3.35,1.22-3.58,1,.09-.54.69-1a5.049,5.049,0,0,1,2.84-1.09,4.789,4.789,0,0,1,2.91.73C206.65,1473.94,206.88,1474.36,206.78,1474.47Z" transform="translate(-54.47 -1432.4)" fill="#1a2e35"/>
  <path id="Caminho_8712" data-name="Caminho 8712" d="M214.9,1488.59a13.276,13.276,0,0,1,3.16-.79c.5-.08,1-.22,1-.57a2.62,2.62,0,0,0-.44-1.46c-.55-1.19-1.13-2.43-1.74-3.73-2.43-5.31-4.22-9.69-4-9.79s2.36,4.13,4.79,9.45c.58,1.31,1.14,2.55,1.68,3.75a2.869,2.869,0,0,1,.39,2,1.229,1.229,0,0,1-.78.79,3.266,3.266,0,0,1-.84.18,12.92,12.92,0,0,1-3.22.17Z" transform="translate(-54.47 -1432.4)" fill="#1a2e35"/>
  <path id="Caminho_8713" data-name="Caminho 8713" d="M206.77,1466.73c-.16.55-2.14.42-4.43.86s-4.11,1.18-4.45.72c-.15-.22.14-.74.86-1.31a7.328,7.328,0,0,1,3.24-1.38,7.488,7.488,0,0,1,3.52.17C206.38,1466.08,206.84,1466.47,206.77,1466.73Z" transform="translate(-54.47 -1432.4)" fill="#1a2e35"/>
  <path id="Caminho_8714" data-name="Caminho 8714" d="M225,1467.17c-.32.47-1.71.09-3.34.18s-3,.5-3.34.06c-.15-.22,0-.68.61-1.15a4.85,4.85,0,0,1,5.38-.19C224.91,1466.49,225.13,1466.94,225,1467.17Z" transform="translate(-54.47 -1432.4)" fill="#1a2e35"/>
  <path id="Caminho_8715" data-name="Caminho 8715" d="M186.39,1482.6c-.22-.08-9-2-8.11,6.72s10.34,5.89,10.33,5.64S186.39,1482.6,186.39,1482.6Z" transform="translate(-54.47 -1432.4)" fill="#ffbf9d"/>
  <path id="Caminho_8716" data-name="Caminho 8716" d="M184.74,1492.09a4.525,4.525,0,0,1-.39.27,1.52,1.52,0,0,1-1.14.13c-1-.25-1.87-1.63-2.07-3.2a5.1,5.1,0,0,1,.21-2.23,1.76,1.76,0,0,1,1-1.28.79.79,0,0,1,.94.33c.14.23.1.41.15.42s.17-.16.06-.51a1,1,0,0,0-.39-.52,1.21,1.21,0,0,0-.87-.14,2.16,2.16,0,0,0-1.45,1.52,5.17,5.17,0,0,0-.29,2.48c.23,1.76,1.29,3.32,2.59,3.56a1.639,1.639,0,0,0,1.37-.37C184.74,1492.3,184.77,1492.1,184.74,1492.09Z" transform="translate(-54.47 -1432.4)" fill="#ff9a6c"/>
  <path id="Caminho_8717" data-name="Caminho 8717" d="M227.79,1454.41c-.6,3.48-7.66,6.66-13.5,6.49-5.4-.16-8.06-2.83-12-4.73-2.47-1.2-2.47-1.2-5.84-.66-2.72.44-4.13,3.65-5.66,6,2.91,6.34,1.73,13.72.5,20.58a3.44,3.44,0,0,1-.88,2.09c-1,.87-2.58.35-3.54-.53a10.87,10.87,0,0,1-2.76-5.55,36.261,36.261,0,0,1-.87-14.21,24.631,24.631,0,0,1,5.92-12.83,23.239,23.239,0,0,1,15.88-7.24,28.58,28.58,0,0,1,16.94,4.8,16.859,16.859,0,0,1,5.79,5.84" transform="translate(-54.47 -1432.4)"/>
  <path id="Caminho_8718" data-name="Caminho 8718" d="M216.19,1493l-4.46-2.08a1.46,1.46,0,0,0-.81-.2,1.269,1.269,0,0,0-.77.52,4.15,4.15,0,0,0-.49,4.55,3.48,3.48,0,0,0,4.18,1.54c1.58-.66,2.34-2.49,2.47-4.19Z" transform="translate(-54.47 -1432.4)" fill="#ff9a6c"/>
  <path id="Caminho_8719" data-name="Caminho 8719" d="M214,1497.66a1.61,1.61,0,0,1-.65.26,3.8,3.8,0,0,1-1.92-.14,4,4,0,0,1-2.21-1.84,4.07,4.07,0,0,1-.27-3.51,4.3,4.3,0,0,1,1-1.56,4.232,4.232,0,0,1,.72-.54,1.179,1.179,0,0,1,.52-.17,1.162,1.162,0,0,1,.51.1,6.2,6.2,0,0,1,.7.4l.6.37,1.09.68a10.169,10.169,0,0,1,2.07,1.47,9.28,9.28,0,0,1-2.31-1.07l-1.12-.61-.63-.34a6.412,6.412,0,0,0-.63-.33.44.44,0,0,0-.48.05,3.141,3.141,0,0,0-.59.46,3.771,3.771,0,0,0-.86,1.33,3.62,3.62,0,0,0,.18,3,3.75,3.75,0,0,0,1.84,1.69,4.342,4.342,0,0,0,1.73.32C213.72,1497.65,214,1497.61,214,1497.66Z" transform="translate(-54.47 -1432.4)" fill="#1a2e35"/>
  <g id="Grupo_1012" data-name="Grupo 1012" transform="translate(-54.47 -1432.4)" opacity="0.3">
    <path id="Caminho_8720" data-name="Caminho 8720" d="M187.35,1517.69c-.89,8.64,2.39,17.75,9.32,23a2.12,2.12,0,0,0,1.87.59,2,2,0,0,0,1-1,16.84,16.84,0,0,0,2.07-11.09c-1.1,2.88-2,5.72-3.15,8.74C192.39,1534.25,188.63,1526.46,187.35,1517.69Z"/>
  </g>
  <path id="Caminho_8721" data-name="Caminho 8721" d="M210.79,1537.32l5.08-1.85.85,8.59s5.48-10,7.75-14.55,1.1-12.61,1.1-12.61.81,7-4.68,15.95l-4.15,6.74v-7.06Z" transform="translate(-54.47 -1432.4)" opacity="0.3"/>
  <g id="Grupo_1013" data-name="Grupo 1013" transform="translate(-54.47 -1432.4)" opacity="0.3">
    <path id="Caminho_8722" data-name="Caminho 8722" d="M151.67,1581a13.57,13.57,0,0,0-7.36-.93,14.181,14.181,0,0,0-7.33,2.78,8.16,8.16,0,0,0-3.2,6.91h.26c1.77-4.8,5.3-8.29,9.84-8.71A14.92,14.92,0,0,1,156,1586C155.69,1583.54,153.94,1582.08,151.67,1581Z"/>
  </g>
  <g id="Grupo_1014" data-name="Grupo 1014" transform="translate(-54.47 -1432.4)" opacity="0.3">
    <path id="Caminho_8723" data-name="Caminho 8723" d="M280.19,1585.91a11.719,11.719,0,0,0-6.57-3.38,14.75,14.75,0,0,0-12.24,3.55l1-.79a15.35,15.35,0,0,1,8.15-2.21,11.82,11.82,0,0,1,7.78,3.1,20.69,20.69,0,0,1,4.13,6.64A8.36,8.36,0,0,0,280.19,1585.91Z"/>
  </g>
  <path id="Caminho_8724" data-name="Caminho 8724" d="M247.43,1546a3,3,0,0,1,.23-.7l.72-1.85c.61-1.56,1.46-3.71,2.35-6.11s1.66-4.58,2.21-6.16l.66-1.87a2.722,2.722,0,0,1,.29-.68,3.6,3.6,0,0,1-.16.72c-.12.45-.32,1.1-.56,1.9-.5,1.61-1.24,3.81-2.13,6.21s-1.77,4.54-2.45,6.08c-.33.77-.61,1.39-.82,1.81a3.1,3.1,0,0,1-.34.65Z" transform="translate(-54.47 -1432.4)" fill="#1a2e35"/>
  <path id="Caminho_8725" data-name="Caminho 8725" d="M167.21,1546.62c-.08,0-.78-3-1.54-6.76s-1.31-6.81-1.22-6.83.78,3,1.55,6.76A68.381,68.381,0,0,1,167.21,1546.62Z" transform="translate(-54.47 -1432.4)" fill="#1a2e35"/>
  <path id="Caminho_8726" data-name="Caminho 8726" d="M166,1584.47c.21.1-2.33-19.83-2.33-19.83s1.6-15.12,2.5-15.82v-5.34s2.48-1.5,3.14.92c0,0,2.19-1.9,2.58,2.63s.46,9.17.46,9.17l4.88,12.2.81.41s1-9.56,1.65-11,1-4.83,3.35-4.31,2.5,2.42,2.09,5.54-.94,6.34-.74,8.36,1.1,6.45.82,10a19.89,19.89,0,0,1-4.23,9.85c-2,2.61-5.9,8-8,9.64C172.28,1597.45,166,1584.47,166,1584.47Z" transform="translate(-54.47 -1432.4)" fill="#ffbf9d"/>
  <path id="Caminho_8727" data-name="Caminho 8727" d="M168.48,1568.25a4.241,4.241,0,0,1,0-.85c0-.61.1-1.39.16-2.32.15-1.95.38-4.65.65-7.62.14-1.49.28-2.9.4-4.2a7.79,7.79,0,0,0,0-1.8,2.51,2.51,0,0,0-.61-1.37,2.73,2.73,0,0,0-2-.88,5.993,5.993,0,0,0-.83.11.429.429,0,0,0,.2-.1,2.115,2.115,0,0,1,.63-.14,2.8,2.8,0,0,1,2.16.85,2.741,2.741,0,0,1,.71,1.49,7.3,7.3,0,0,1,0,1.87c-.11,1.3-.24,2.71-.37,4.2-.27,3-.54,5.67-.75,7.61l-.26,2.31A4.748,4.748,0,0,1,168.48,1568.25Z" transform="translate(-54.47 -1432.4)" fill="#ff9a6c"/>
  <path id="Caminho_8728" data-name="Caminho 8728" d="M171.1,1560.1a7.276,7.276,0,0,0-.86,1.57,26.256,26.256,0,0,0-.81,4.31c-.27,1.7-.52,3.24-.72,4.35a10,10,0,0,1-.4,1.79,10.7,10.7,0,0,1,.16-1.82c.15-1.13.37-2.67.63-4.37a20.592,20.592,0,0,1,.92-4.34,4,4,0,0,1,.71-1.16,1.2,1.2,0,0,1,.37-.33Z" transform="translate(-54.47 -1432.4)" fill="#ff9a6c"/>
  <path id="Caminho_8729" data-name="Caminho 8729" d="M169.31,1544.14a2.808,2.808,0,0,1,.17.63c.09.41.2,1,.32,1.73.24,1.47.51,3.52.68,5.79s.2,4.33.18,5.82a12.225,12.225,0,0,1-.07,1.76,2.449,2.449,0,0,1-.07.65,21.46,21.46,0,0,1-.1-2.41c0-1.49-.11-3.54-.27-5.8s-.4-4.3-.58-5.77a19.052,19.052,0,0,1-.26-2.4Z" transform="translate(-54.47 -1432.4)" fill="#ff9a6c"/>
  <path id="Caminho_8730" data-name="Caminho 8730" d="M183.39,1562.83a1.819,1.819,0,0,1-1.64.14,1.868,1.868,0,0,1-1.29-1,8.495,8.495,0,0,0,1.38.72,10.212,10.212,0,0,0,1.55.14Z" transform="translate(-54.47 -1432.4)" fill="#ff9a6c"/>
  <path id="Caminho_8731" data-name="Caminho 8731" d="M166.29,1582l-12.9,5.42h-7.68s-7.6,2.37-8.77,9.5-1.34,10.79,2,11.67,12.78,1,17.46-.58,16.93-11.43,16.93-11.43l1.18-7.16Z" transform="translate(-54.47 -1432.4)" fill="#ffbf9d"/>
  <path id="Caminho_8732" data-name="Caminho 8732" d="M169.31,1589.86a2.508,2.508,0,0,1-.37-.33,8.715,8.715,0,0,1-.84-1.07,14.819,14.819,0,0,1-1.8-4.08,24.568,24.568,0,0,1-.79-4.38,8.149,8.149,0,0,1,0-1.84,11.9,11.9,0,0,1,.28,1.81,34.127,34.127,0,0,0,.88,4.32,17.4,17.4,0,0,0,1.68,4C168.88,1589.3,169.35,1589.82,169.31,1589.86Z" transform="translate(-54.47 -1432.4)" fill="#ff9a6c"/>
  <path id="Caminho_8733" data-name="Caminho 8733" d="M174.92,1592.12a13.362,13.362,0,0,0,.74-2.76,9.371,9.371,0,0,0-.15-3.07,9.259,9.259,0,0,0-1.58-3.4c-.79-1.1-1.67-2.06-2.41-3a13.563,13.563,0,0,1-1.74-2.64,6.8,6.8,0,0,1-.65-2,2,2,0,0,1,0-.78,8.679,8.679,0,0,0,.87,2.71,14.735,14.735,0,0,0,1.78,2.55c.74.9,1.63,1.85,2.44,3a9.261,9.261,0,0,1,1.6,3.52,8.81,8.81,0,0,1,.09,3.17,8.32,8.32,0,0,1-.59,2,4.924,4.924,0,0,1-.26.52C175,1592.07,174.93,1592.13,174.92,1592.12Z" transform="translate(-54.47 -1432.4)" fill="#ff9a6c"/>
  <path id="Caminho_8734" data-name="Caminho 8734" d="M155,1561.07a65,65,0,0,1-3.14-5.71c-1.65-3.21-2.93-5.83-2.85-5.87a61.618,61.618,0,0,1,3.14,5.71,63.576,63.576,0,0,1,2.85,5.87Z" transform="translate(-54.47 -1432.4)" fill="#fff"/>
  <path id="Caminho_8735" data-name="Caminho 8735" d="M175.9,1537.86a39.086,39.086,0,0,1,1.94-4.77,38.253,38.253,0,0,1,2.25-4.63,41.332,41.332,0,0,1-2,4.76,40.886,40.886,0,0,1-2.19,4.64Z" transform="translate(-54.47 -1432.4)" fill="#fff"/>
  <path id="Caminho_8736" data-name="Caminho 8736" d="M196.32,1552.92a58.9,58.9,0,0,1-5.59-6.75,29.2,29.2,0,0,1,2.92,3.27,30.013,30.013,0,0,1,2.67,3.48Z" transform="translate(-54.47 -1432.4)" fill="#fff"/>
  <path id="Caminho_8737" data-name="Caminho 8737" d="M191.62,1573.65a23.558,23.558,0,0,1,2.21-3.32,24.006,24.006,0,0,1,2.47-3.13,24.655,24.655,0,0,1-2.21,3.32,23.987,23.987,0,0,1-2.47,3.13Z" transform="translate(-54.47 -1432.4)" fill="#fff"/>
  <path id="Caminho_8738" data-name="Caminho 8738" d="M185.3,1602.92a6.338,6.338,0,0,1-.75-1.28c-.42-.81-1-2-1.5-3.23s-1-2.47-1.29-3.33a6.58,6.58,0,0,1-.4-1.42A6.469,6.469,0,0,1,182,1595l1.37,3.28c.53,1.21,1,2.31,1.41,3.26a7,7,0,0,1,.52,1.38Z" transform="translate(-54.47 -1432.4)" fill="#fff"/>
  <path id="Caminho_8739" data-name="Caminho 8739" d="M203.27,1590.48a45.352,45.352,0,0,1-7.67-1.49,45.315,45.315,0,0,1,7.67,1.49Z" transform="translate(-54.47 -1432.4)" fill="#fff"/>
  <path id="Caminho_8740" data-name="Caminho 8740" d="M217.2,1563.12a47.64,47.64,0,0,1,3.69-4.21,46.8,46.8,0,0,1,3.92-4,46.488,46.488,0,0,1-3.68,4.21,44.3,44.3,0,0,1-3.93,4Z" transform="translate(-54.47 -1432.4)" fill="#fff"/>
  <path id="Caminho_8741" data-name="Caminho 8741" d="M231.22,1599.6c-.07.06-2.13-2.32-4.59-5.32s-4.41-5.47-4.34-5.52,2.13,2.32,4.59,5.31S231.29,1599.54,231.22,1599.6Z" transform="translate(-54.47 -1432.4)" fill="#fff"/>
  <path id="Caminho_8742" data-name="Caminho 8742" d="M144.19,1584.05c.05.1-1.83,1-3.88,2.62s-3.47,3.12-3.55,3a5,5,0,0,1,.87-1.08,20.293,20.293,0,0,1,2.48-2.23,21,21,0,0,1,2.81-1.81,5.556,5.556,0,0,1,1.27-.5Z" transform="translate(-54.47 -1432.4)" fill="#fff"/>
  <path id="Caminho_8743" data-name="Caminho 8743" d="M149.44,1570a13.9,13.9,0,0,1-1.5,2.54,12.325,12.325,0,0,1-1.77,2.36,12.63,12.63,0,0,1,1.5-2.54A12.314,12.314,0,0,1,149.44,1570Z" transform="translate(-54.47 -1432.4)" fill="#fff"/>
  <path id="Caminho_8744" data-name="Caminho 8744" d="M161.25,1583.8a6.241,6.241,0,0,1-1.09-2.61,6.47,6.47,0,0,1-.15-2.83c.1,0,.13,1.26.48,2.75S161.34,1583.76,161.25,1583.8Z" transform="translate(-54.47 -1432.4)" fill="#fff"/>
  <path id="Caminho_8745" data-name="Caminho 8745" d="M163,1540a9.907,9.907,0,0,1-2.45.52,9.621,9.621,0,0,1-2.5.18,9.506,9.506,0,0,1,2.45-.51,9.375,9.375,0,0,1,2.5-.19Z" transform="translate(-54.47 -1432.4)" fill="#fff"/>
  <path id="Caminho_8746" data-name="Caminho 8746" d="M171.87,1524.22a10.054,10.054,0,0,1-2.15,1.38,10.156,10.156,0,0,1-2.3,1.09,9.515,9.515,0,0,1,2.14-1.38,9.909,9.909,0,0,1,2.31-1.09Z" transform="translate(-54.47 -1432.4)" fill="#fff"/>
  <path id="Caminho_8747" data-name="Caminho 8747" d="M196.81,1530.86a21.733,21.733,0,0,1-2.45-2.95,22.243,22.243,0,0,1-2.19-3.15,23.369,23.369,0,0,1,2.45,3,21.551,21.551,0,0,1,2.19,3.1Z" transform="translate(-54.47 -1432.4)" fill="#fff"/>
  <path id="Caminho_8748" data-name="Caminho 8748" d="M228.48,1546.68a11.3,11.3,0,0,1-2.29-2.86,11.442,11.442,0,0,1-1.56-3.32c.09,0,.78,1.44,1.84,3.14S228.56,1546.62,228.48,1546.68Z" transform="translate(-54.47 -1432.4)" fill="#fff"/>
  <path id="Caminho_8749" data-name="Caminho 8749" d="M240.57,1550.67a20,20,0,0,1-1.31,3.29,18.113,18.113,0,0,1-1.62,3.15,20,20,0,0,1,1.32-3.29,18.523,18.523,0,0,1,1.61-3.15Z" transform="translate(-54.47 -1432.4)" fill="#fff"/>
  <path id="Caminho_8750" data-name="Caminho 8750" d="M242.26,1534.17a35,35,0,0,1-3.22-3.6,35.9,35.9,0,0,1-3-3.82,36.367,36.367,0,0,1,3.22,3.6,35.9,35.9,0,0,1,3,3.82Z" transform="translate(-54.47 -1432.4)" fill="#fff"/>
  <path id="Caminho_8751" data-name="Caminho 8751" d="M223.8,1520.77a14.849,14.849,0,0,1-.29-3.08,14.639,14.639,0,0,1,0-3.1,14.078,14.078,0,0,1,.29,3.08,14.64,14.64,0,0,1,0,3.1Z" transform="translate(-54.47 -1432.4)" fill="#fff"/>
  <path id="Caminho_8752" data-name="Caminho 8752" d="M238.85,1519.93a24.931,24.931,0,0,1-3.93.7,24.132,24.132,0,0,1-4,.36,23.99,23.99,0,0,1,3.93-.69,24.886,24.886,0,0,1,4-.37Z" transform="translate(-54.47 -1432.4)" fill="#fff"/>
  <path id="Caminho_8753" data-name="Caminho 8753" d="M262.56,1537.35a38.55,38.55,0,0,1-2.37-4.51,37.826,37.826,0,0,1-2.06-4.65,39.523,39.523,0,0,1,2.36,4.51,40.989,40.989,0,0,1,2.07,4.65Z" transform="translate(-54.47 -1432.4)" fill="#fff"/>
  <path id="Caminho_8754" data-name="Caminho 8754" d="M258.56,1552.39a20.422,20.422,0,0,1,.56-3.62,19.522,19.522,0,0,1,.88-3.55,20.288,20.288,0,0,1-.56,3.62,19.521,19.521,0,0,1-.88,3.55Z" transform="translate(-54.47 -1432.4)" fill="#fff"/>
  <path id="Caminho_8755" data-name="Caminho 8755" d="M269.56,1564.26a81.2,81.2,0,0,1-3.46-9.89,81.2,81.2,0,0,1,3.46,9.89Z" transform="translate(-54.47 -1432.4)" fill="#fff"/>
  <path id="Caminho_8756" data-name="Caminho 8756" d="M268,1571.2a11.179,11.179,0,0,1-5.93-3.22c.06-.07,1.23.89,2.87,1.78S268.06,1571.1,268,1571.2Z" transform="translate(-54.47 -1432.4)" fill="#fff"/>
  <path id="Caminho_8757" data-name="Caminho 8757" d="M282.12,1587a9,9,0,0,1-1.15-2.16,8.849,8.849,0,0,1-.83-2.29,9.358,9.358,0,0,1,1.14,2.16A9.468,9.468,0,0,1,282.12,1587Z" transform="translate(-54.47 -1432.4)" fill="#fff"/>
  <path id="Caminho_8758" data-name="Caminho 8758" d="M198.92,1609.08a12.518,12.518,0,0,1-.49-2.82,12.109,12.109,0,0,1-.17-2.85,12.5,12.5,0,0,1,.49,2.81,12.2,12.2,0,0,1,.17,2.86Z" transform="translate(-54.47 -1432.4)" fill="#fff"/>
  <path id="Caminho_8759" data-name="Caminho 8759" d="M242.14,1608a12,12,0,0,1,.42-2.76,11.75,11.75,0,0,1,.74-2.68,23.851,23.851,0,0,1-1.16,5.44Z" transform="translate(-54.47 -1432.4)" fill="#fff"/>
</svg>
