<svg id="Componente_8_1" data-name="Componente 8 – 1" xmlns="http://www.w3.org/2000/svg" xmlns:xlink="http://www.w3.org/1999/xlink" width="509.49" height="145.63" viewBox="0 0 509.49 145.63">
  <defs>
    <clipPath id="clip-path">
      <rect id="Retângulo_528" data-name="Retângulo 528" width="509.49" height="144.44" transform="translate(0 273.99)" fill="none"/>
    </clipPath>
  </defs>
  <path id="Caminho_4724" data-name="Caminho 4724" d="M25.86,419.62s9-41.44,38-55.35c61.57-29.53,83.54,20.66,152.62-9.76,42.94-18.91,61.76-36.64,127.19-23,40.12,8.36,23.45,35.56,84.35,32,54.22-3.15,55.34,54.91,55.34,54.91Z" transform="translate(0 -273.99)" fill="#64b447" opacity="0.25"/>
  <g id="Grupo_994" data-name="Grupo 994" transform="translate(0 -273.99)" clip-path="url(#clip-path)">
    <path id="Caminho_4772" data-name="Caminho 4772" d="M377.75,400c-3.68,3.73-7.35,7.74-11.57,10.65a111.817,111.817,0,0,0-20.3,17.57c-2.58,2.9-4.61,6.07-7.19,9-2.72,3.32-5.46,7.52-2.95,12.16,2.22,4.1,5.61-4.91,7.52-6.84,3.53-4.15,7.47-7.88,11.42-11.89,8.57-8.7,18.11-16.18,26.68-24.89Z" fill="#cd8861"/>
    <path id="Caminho_4773" data-name="Caminho 4773" d="M393.5,361.18c-3.1-.78-2.72-4.85.58-4.46-2.71-.78-2.13-4.85.78-4.27-2.14-1-2.72-5,.19-4.26-2.71-1.36-.78-6.6,2.13-5.43a2.75,2.75,0,0,1,2.72-4.66c-1.94-1.74.39-6.2,2.91-4.65-1.75-2.91,2.13-6.79,4.07-2.72-1-2.52,2.52-6.4,4.65-3.29-.46-3.24,2.62-4.62,4.59-3.32,1.67-3,6.43-1.25,4.91,2.35,2.14-2.33,8.34-2.91,6,1.74,2.9-2.91,4.07,1,4.07,3.11,3.29-1.75,5.23.58,4.85,3.68,2.71-.58,6.2.39,4.26,4.07,2.13-1.36,6.21.2,4.27,3.1,2.32-.77,7,2.14,4.07,4.46,2.52-.58,5.43,2.53,2.71,4.46,2.33-.19,2.72,3.49.39,3.88,1.94,1.17,2.14,4.46-.58,4.27,1.75,1.55,2.33,4.65-.58,4.85,1.55,1.94,1,5-1.94,4.84,1.94,2.33-2.13,3.69-3.68,2.33,2.32,2.33-1.94,4.85-3.3,2.33,1.74,2.52-2.33,4.26-4.07,2.13,1.16,2.72-2.72,3.69-4.08,1.75.39,3.1-5,3.29-6.2,1-.19,2.32-4.65,2.52-5.43.38-.73,1.9-3.64,2-5,.76-1.63,1.4-5,2.73-5.69.6.77,4.07-4.85,2.13-4.08-1-.39,3.1-6.59,1.36-5.23-1-2.33.58-5.24-1.94-3.3-4.26-2.13,1.35-4.65-1.56-3.1-3.69-3.1.2-3.3-2.52-1.17-4.26a2.46,2.46,0,1,1-.72-4.82Z" fill="#8b4539"/>
    <path id="Caminho_4774" data-name="Caminho 4774" d="M409.44,377.75c1.29-.26,2.84-.13,4-.77s1.42-2.07,1.68-3.49a34.164,34.164,0,0,0,.06-5.64,14.551,14.551,0,0,0-1.35-.7,11.92,11.92,0,0,1-3-1.94c-1.07-.87-1.07-1.55-1.16-2.91-.2-2-.49-3.29-.88-5.42-.77-4.27-2.42-8.54-1.35-12.8.58-2.62,1.74-3.2,4.17-4a16.21,16.21,0,0,1,6.1-1c2.43.1,4.56.29,6.21,2.23a18.931,18.931,0,0,1,3,5.92,23.14,23.14,0,0,1,.38,13.09,12.111,12.111,0,0,1-3.78,6.9l1.84,7.25a8.68,8.68,0,0,0,8,5L429.19,387c-7.29-.37-13.73-1.28-21.07-2.21a35.006,35.006,0,0,1-.23-3.65C407.89,379.3,407.5,378.14,409.44,377.75Z" fill="#e8a77c"/>
    <path id="Caminho_4775" data-name="Caminho 4775" d="M429.64,352.52c-1.67.22-2.23-2.57-2.34-3.68-1.9.33-2-2.23-2-3.46-1.67.23-2.34-1.11-2.23-2.45-1.56.67-3.23,1-4.45-.44.22,2.11-3.23,1.89-3.9.55,0,2.12-3.23,1.56-4.13.45.12,1.56-2.22,2.23-3.45,1.78,1.89,2.45-1.78,5.8-2.12,1.12a8.26,8.26,0,0,1,5.24-8.69c5.57-2.68,14.37-2,18.39,3.12a13.559,13.559,0,0,1,2.34,6.79Z" fill="#8b4539"/>
    <path id="Caminho_4776" data-name="Caminho 4776" d="M422.44,361a3,3,0,0,1-.71,2.06,4.5,4.5,0,0,1-1.81,1.32,4.151,4.151,0,0,1-2.23.27,2.89,2.89,0,0,1-1.9-1.06,4.79,4.79,0,0,0,1.94.28,5.671,5.671,0,0,0,1.82-.41,6.319,6.319,0,0,0,1.62-.95,5.128,5.128,0,0,0,1.27-1.51Z" fill="#b57754"/>
    <path id="Caminho_4777" data-name="Caminho 4777" d="M415.72,352.24a6.83,6.83,0,0,1,1.19,2.19,2.44,2.44,0,0,1,0,1.44,9,9,0,0,1-.67,1.09.88.88,0,0,0-.22.72c0,.21.25.43.54.63a3.53,3.53,0,0,0,2.14.59,2,2,0,0,1-1.21.35,3.259,3.259,0,0,1-1.29-.25,1.79,1.79,0,0,1-1.09-1,1.81,1.81,0,0,1,.28-1.54c.25-.37.52-.68.65-.92a1.889,1.889,0,0,0,.11-.93C416.09,353.85,415.83,353.06,415.72,352.24Z" fill="#b57754"/>
    <path id="Caminho_4778" data-name="Caminho 4778" d="M423.53,347.24a4.51,4.51,0,0,0-1.59-1.23c-.58-.29-1.2-.5-2-.83a2.44,2.44,0,0,1,2.4-.06,2.3,2.3,0,0,1,1,.87,1.55,1.55,0,0,1,.19,1.25Z" fill="#8b4539"/>
    <path id="Caminho_4779" data-name="Caminho 4779" d="M411.19,345.24a3.68,3.68,0,0,0-1.38,1.44c-.32.55-.55,1.18-.95,1.92a2.57,2.57,0,0,1,.09-2.42,2.15,2.15,0,0,1,1-.9,1.55,1.55,0,0,1,1.24-.04Z" fill="#8b4539"/>
    <path id="Caminho_4780" data-name="Caminho 4780" d="M421.5,351.55c.15.91.64,1.59,1.1,1.51s.73-.87.58-1.78-.64-1.58-1.1-1.51S421.36,350.64,421.5,351.55Z" fill="#010101"/>
    <path id="Caminho_4781" data-name="Caminho 4781" d="M411,353.2c.14.91.64,1.59,1.1,1.52s.72-.88.58-1.78-.64-1.59-1.1-1.52S410.87,352.3,411,353.2Z" fill="#010101"/>
    <path id="Caminho_4782" data-name="Caminho 4782" d="M429.19,387l-3.33,5.91c-3.49,3.75-12.54,12.15-15.9,3.75-1.3-3-1.55-6.72-1.68-10.09a17.565,17.565,0,0,0-.16-1.78C415.46,385.69,421.9,386.6,429.19,387Z" fill="#fff"/>
    <path id="Caminho_4783" data-name="Caminho 4783" d="M375.53,414.92c-3.44-1.48-6.22-5.85-8-9h0c3-.29,2.32-2.07,4.22-3.73.82-.83,1.92-.57,3.15-1.26.95-.69,1.22-1.79,1.9-2.48,3-3,7.09-5.27,10.35-8,3-2.77,6.27-5.26,9-8,2.45-2.49,5.84-6.5,9.56-5.56,2.19.53,5.36,2.28,4.42,4.9a10.84,10.84,0,0,1-4.9,4.42Z" fill="#96a34f"/>
    <path id="Caminho_4784" data-name="Caminho 4784" d="M399.23,430.37c.39-.78.77-.78.77-1.94,0-.78-.38-1.16-.26-1.94a21.817,21.817,0,0,0,1-4.4c.13-1.29.39-2.71.52-4.13.25-2.59,1-5.3.38-7.89s-1.94-5.3-2.71-8a14.76,14.76,0,0,1,.77-8.15c.78-2.58,2.2-4.91,2.85-7.5s1.28-9.45,2.07-9.63a50.407,50.407,0,0,1,5.69-.23l3.42,21.76L432.43,378l3.9.57c2.33.39,6.33.9,6.46,3.88.26,3.49-2.19,5.56-4.26,8a38.55,38.55,0,0,0-7.11,15.52c-.78,4.91-.91,11.63,1.42,16.15a10,10,0,0,1,1,2.07c.26.65,0,1.3.52,1.81.39.78,1.29.78,1.55,1.68.13.52-.26,1.17-.13,1.81.26,1.42,3.23,5.17,3.23,5.17-.77,1.43-5,2.33-6.59,2.72l-8.14,1.55c-5.17.9-11.9,1.42-17.07.26a43.4,43.4,0,0,1-4.26-1.42c-.91-.39-3.75-1.3-4-2.07a39.826,39.826,0,0,1,.28-5.33Z" fill="#9fc059"/>
    <path id="Caminho_4785" data-name="Caminho 4785" d="M454.53,439.56c2-2.13,12.11-15.12,15.33-19.57,1.67-2.09,2.3-3.25.53-5.45-1.55-2-10.14-10.57-10.95-10.75-1.64-.56-4.23,2.72-5.58,3.59l-.08.11c2,1.78,7.76,8.15,8,9,.26,1.23-1,2.77-1.54,3.83-1.25,2.32-10.27,17.17-10.27,17.17Z" fill="#e8a77c"/>
    <path id="Caminho_4786" data-name="Caminho 4786" d="M458.53,416.34a11.389,11.389,0,0,1-2.65-2.25c-.33-.48-.25-.88-.45-1.38s.3-.69.14-.93-1.08-.24-1.37-.47c-1.18-1-.82-2.23-1.4-3.59s-2-2.46-2.95-3.51c-4.74-5.1-10.38-9.17-14.16-14.92a6.67,6.67,0,0,1,0-7.69c2.1-2.77,5-2.47,7.47-.59s4.76,5.19,6.66,7.67c2.05,2.6,4.83,4.83,7,7.28,1.07,1.16,1.13,2.58,2.2,3.74.62.7,1.87,1.31,2.36,2,.65,1,.91.92,1.77,1.46,1.3,1,.79,2,2.1,3,.58.44,2.39,2.27,2.37,2.14Z" fill="#9ec077"/>
    <path id="Caminho_4787" data-name="Caminho 4787" d="M354.11,351c1.94-.14,2.84-7.35,3-9a17,17,0,0,0-.77-8c-1-2.27-2.85-2.41-5-2.41h0c0-3.53-1.3-6.21-4.4-7.63-3.49-1.69-6.59.57-9.31,2.55s-5.3,3-8.66,2.12c-2.07-.43-7.37-2.26-8.53.56s4,5.23,5.82,5.94c-2.85.14-2.85,1.41-2.72,4.23a18.669,18.669,0,0,0,1.81,6.5c1,2.41,5.43,11,8.79,9.19Z" fill="#bd9b55"/>
    <path id="Caminho_4788" data-name="Caminho 4788" d="M332.17,360.08a61.429,61.429,0,0,1-3.76-10.78A18.72,18.72,0,0,1,330,337c6.37.28,12.85-.66,19.21-.28.13,2.6-.78,6.36,1,8.44a5,5,0,0,0,3,1.41c0,6.83-2.61,14.74-6.81,17.37a32.607,32.607,0,0,0,.84,3.68c.65,3.38,1.3,3.64,4.29,4.8l.78,10.39c-.26,3.38-1.43,6.75-4.81,7.66a30.869,30.869,0,0,1-9.22.78c-3.37-.13-10.12-.13-9.6-5.06a19,19,0,0,1,1.42-5.33c.65-1.3,1-4.28,2-5.32.65-.78,2.6-1.43,3.51-2.21A5.44,5.44,0,0,0,338,370a15.371,15.371,0,0,0,.11-4.8,10.12,10.12,0,0,1-5.94-5.12Z" fill="#f9c8bd"/>
    <path id="Caminho_4789" data-name="Caminho 4789" d="M351.39,351.12a3.4,3.4,0,0,1,5.19.52c2.21,4.28-4.15,7.27-7.4,5.71Z" fill="#f9c8bd"/>
    <path id="Caminho_4790" data-name="Caminho 4790" d="M330.35,351.64c-2.2-.26-4.28-1.17-4.54,2.08a5.35,5.35,0,0,0,2.21,4.8c1,.65,3.63.91,4.15-.52Z" fill="#f9c8bd"/>
    <path id="Caminho_4791" data-name="Caminho 4791" d="M347.23,343.59a14,14,0,0,0-2.34-1.68,27.379,27.379,0,0,0-2.72-1,3.93,3.93,0,0,1,3.18.15,3.6,3.6,0,0,1,1.88,2.53Z" fill="#7d6640"/>
    <path id="Caminho_4792" data-name="Caminho 4792" d="M334.76,340c-.55.69-1,1.23-1.4,1.84s-.8,1.21-1.32,1.92a3,3,0,0,1,.51-2.5,2.73,2.73,0,0,1,2.21-1.26Z" fill="#7d6640"/>
    <path id="Caminho_4793" data-name="Caminho 4793" d="M338.14,347a12.5,12.5,0,0,1,.26,4.93c-.13,1.3-1.81,3.63-1.56,4.93.27,1,3.12,2.6,4,1.69" fill="#f9c8bd"/>
    <path id="Caminho_4794" data-name="Caminho 4794" d="M338.14,347a9.649,9.649,0,0,1,.77,3.73,6.86,6.86,0,0,1-.21,2,18.521,18.521,0,0,1-.72,1.79,10,10,0,0,0-.64,1.65,1.45,1.45,0,0,0,0,.67,2,2,0,0,0,.42.59,5.72,5.72,0,0,0,1.45,1,1.81,1.81,0,0,0,1.7.15,1.11,1.11,0,0,1-.88.4,3.3,3.3,0,0,1-1-.09,5,5,0,0,1-1.79-.86,2.369,2.369,0,0,1-.73-.87,2.2,2.2,0,0,1-.06-1.18,9.254,9.254,0,0,1,.65-1.86c.26-.57.54-1.13.74-1.67a8.749,8.749,0,0,0,.33-1.72,19.062,19.062,0,0,0-.03-3.73Z" fill="#d15c5d"/>
    <path id="Caminho_4795" data-name="Caminho 4795" d="M344.45,348.27c.15.91.64,1.59,1.1,1.51s.73-.87.58-1.78-.64-1.59-1.1-1.51S344.3,347.36,344.45,348.27Z" fill="#010101"/>
    <path id="Caminho_4796" data-name="Caminho 4796" d="M334,349.92c.14.91.64,1.59,1.1,1.51s.72-.87.58-1.78-.64-1.58-1.11-1.51S333.82,349,334,349.92Z" fill="#010101"/>
    <path id="Caminho_4797" data-name="Caminho 4797" d="M345.8,359.17c-.9,2.6-6,4.28-8.18,2.6" fill="#f9c8bd"/>
    <path id="Caminho_4798" data-name="Caminho 4798" d="M345.8,359.17a3.42,3.42,0,0,1-1.24,2.14,6.28,6.28,0,0,1-4.7,1.52,3.34,3.34,0,0,1-2.24-1.06,5.091,5.091,0,0,0,2.26.28,10.179,10.179,0,0,0,2.18-.45,10.372,10.372,0,0,0,2-.92,5.519,5.519,0,0,0,1.74-1.51Z" fill="#d15c5d"/>
    <path id="Caminho_4799" data-name="Caminho 4799" d="M354.11,373.47c-1.31,1.31-7.63-.66-13.24-.26-4,.27-7.31,3.18-9.51,2.84-.82,11.43-6.83,31.57-7.24,43-.41,10,1.22,24.14-1,33.73a63.19,63.19,0,0,0,31.22.91Z" fill="#b0dff9"/>
    <path id="Caminho_4800" data-name="Caminho 4800" d="M340.59,386.25c-.06.69.14,1.27.45,1.3s.61-.51.67-1.21-.14-1.27-.45-1.3S340.65,385.55,340.59,386.25Z" fill="#58b3d0"/>
    <path id="Caminho_4801" data-name="Caminho 4801" d="M340,401.61c-.06.7.14,1.28.45,1.31s.61-.51.67-1.21-.14-1.27-.45-1.3S340.09,400.92,340,401.61Z" fill="#58b3d0"/>
    <path id="Caminho_4802" data-name="Caminho 4802" d="M339.46,417c-.06.7.14,1.28.45,1.31s.61-.52.67-1.21-.14-1.28-.45-1.3S339.52,416.29,339.46,417Z" fill="#58b3d0"/>
    <path id="Caminho_4803" data-name="Caminho 4803" d="M340.78,373.24a28.279,28.279,0,0,1-.41,5.2c-.17,1.72-.37,3.46-.49,5.18-.27,3.46-.39,6.93-.56,10.41l-.48,10.42-.24,5.21-.12,2.6a21.066,21.066,0,0,1-.25,2.64,21.371,21.371,0,0,0-.35,5.07c.17,1.65.83,3.31.88,5.17a6.38,6.38,0,0,1-.55,2.71,7.18,7.18,0,0,0-.71,2.34c-.07,1.53,1.25,3,1.28,5s-1.12,3.46-1.53,5.06a5.711,5.711,0,0,0-.15,2.47,20.058,20.058,0,0,0,.5,2.52,18.8,18.8,0,0,1,.5,2.59,12.8,12.8,0,0,1-.06,2.63,11.131,11.131,0,0,0,.09,2.58,4,4,0,0,0,1.07,2.3,4,4,0,0,1-1.22-2.27,11.539,11.539,0,0,1-.21-2.62,11.59,11.59,0,0,0,0-2.57,16.919,16.919,0,0,0-.59-2.51,18.427,18.427,0,0,1-.59-2.57,8.585,8.585,0,0,1-.1-1.35,6.661,6.661,0,0,1,.19-1.35c.43-1.75,1.42-3.29,1.38-4.9s-1.37-3-1.37-5a7.739,7.739,0,0,1,.75-2.64,5.549,5.549,0,0,0,.46-2.36c-.05-1.63-.7-3.27-.92-5.09a22.79,22.79,0,0,1,.31-5.31c.11-.86.22-1.69.26-2.55l.15-2.6.28-5.21c.21-3.47.35-6.95.62-10.42s.47-6.94.85-10.4c.19-1.74.46-3.45.71-5.18l.43-2.57A11.9,11.9,0,0,0,340.78,373.24Z" fill="#58b3d0"/>
    <path id="Caminho_4804" data-name="Caminho 4804" d="M349.18,369.26l-8.31,3.95,2.03,8.41,8.88-7.44Z" fill="#e4f4fb"/>
    <path id="Caminho_4805" data-name="Caminho 4805" d="M340.87,373.21l-2.77,9.02-4.96-5.68,2.1-5.41Z" fill="#e4f4fb"/>
    <path id="Caminho_4806" data-name="Caminho 4806" d="M318.06,381.15c-4.64-2.32-3.35,5.4-4.38,7-1.55,2.34-1.1,5.24-1.36,7.88-.15,1.53-7.41,18.43-8.17,18.14-3.35-1.29-3.09.52-5.41,1.29-1.55.51-11.59,0-14.68-.26a41.274,41.274,0,0,0-5.67,0c-2.84.26-3.09.26-3.09.26-.52,3.6.51,11.33,0,14.68,5.41-.77,11.07.78,16.48.26,5.16-.52,11.6,1.55,16.75.26,4.89-1.29,9.53-15.46,11.33-20.1A88.92,88.92,0,0,0,323.47,394c.52-3.35.26-8.25-1.8-10.82Z" fill="#9c4f4f"/>
    <path id="Caminho_4807" data-name="Caminho 4807" d="M322.28,398.64c0-.95-.27-2-.27-3,.13-1.22,0-.95,1.09-1.63,1.49-.95,3.13-1.36,4.62-2.59a3.311,3.311,0,0,0,1.09-.95c-1.63-1-4.35-.27-6.26-.41-.36-1.56,1.63-7.9,3.63-12.48a20.612,20.612,0,0,0,2.63-1.19c1.63-.81,3.47-2.45,5.31-2.45-3.88,9.39-4.08,19.59-5.51,29.8A163.769,163.769,0,0,0,327.39,426c-2.19-4.92-2.74-11.11-3.75-16a80.639,80.639,0,0,1-1.36-11.36Z" fill="#dc8181"/>
    <path id="Caminho_4808" data-name="Caminho 4808" d="M315.55,454.15c.41-4.7,1-9.18,1.63-13.88,1-8.77.61-17.75.61-26.73s0-18.36-1-27.34c-.2-2.25-1.07-5,0-5.75,1.45-1,4.71-1.19,6.35-1.8,1-.33,2-.67,3.08-1.06-2,4.58-4,10.92-3.63,12.48,1.91.14,4.63-.54,6.26.41a3.31,3.31,0,0,1-1.09.95c-1.49,1.23-3.13,1.64-4.62,2.59-1.09.68-1,.41-1.09,1.63,0,1,.27,2,.27,3a80.64,80.64,0,0,0,1.36,11.3c1,4.91,1.56,11.1,3.75,16,0,20.37,1.83,42.68,1.83,42.68-3.06,2.44-11.43,1.22-15.31.61C314.12,468.64,315.14,458.43,315.55,454.15Z" fill="#c96b6b"/>
    <path id="Caminho_4809" data-name="Caminho 4809" d="M354.79,409.26l2.86-6.94c.82-2,1.63-3-.27-4.08a38,38,0,0,1-6.26-3.95c-1.09-1.09-2.72-2.31-.81-3,1.76-.68,4.48-.27,6.25-.27s3.4-.28,5-.41c0-1.36-1.5-3-2-4.22a27.629,27.629,0,0,1-2-6.53,41.363,41.363,0,0,1-.43-7,47.4,47.4,0,0,0,6.62,2.14c3.46.82,11.61,3.41,12.65,4.08,2.53,1.67-.62,10.41-1,13.88-.82,5.92-1.84,11.84-2.25,17.75-.61,8.57-1,17.14-.81,25.71.2,6.53,1.22,16.74,5.1,22.25-3.06,4.08-23.88,8.77-26.94,8.36,0,0-2.24-21.22-2.86-27.34-.37-4.54-.82-9.11-1.25-13.69a45.92,45.92,0,0,0,2.89-4.88,103.155,103.155,0,0,0,5.51-11.86Z" fill="#c96b6b"/>
    <path id="Caminho_4810" data-name="Caminho 4810" d="M351.05,370.69c2.07.59,4.05,1.37,6,2.14a41.367,41.367,0,0,0,.43,7,27.629,27.629,0,0,0,2,6.53c.54,1.22,2,2.86,2,4.22-1.64.13-3.27.41-5,.41s-4.49-.41-6.25.27c-1.91.68-.28,1.9.81,3a38,38,0,0,0,6.26,3.95c1.9,1.08,1.09,2,.27,4.08l-2.86,6.94a103.161,103.161,0,0,1-5.57,11.83,45.912,45.912,0,0,1-2.89,4.88c-.74-8-1.4-16-1.4-23.86A77.819,77.819,0,0,1,351.05,370.69Z" fill="#dc8181"/>
    <path id="Caminho_4811" data-name="Caminho 4811" d="M379.36,454.22c3.86,0,7.72,1.63,12-.2-.4-2,1-21.73-.2-26.2-2.64-9.15-3.45-18.9-5.69-28.24-1.42-5.89-2-23.16-12-20.93-4.27,1-4.47,8.33-4.88,12-.41,4.67.61,8.74,1.83,13.2,2,7.52,4.27,15.44,5.28,23,.61,4.06,1,8.13,1.63,12.19C377.53,441,379.36,454.22,379.36,454.22Z" fill="#dc8181"/>
    <path id="Caminho_4812" data-name="Caminho 4812" d="M168.2,345.36a6.779,6.779,0,0,0-2,0,2.72,2.72,0,0,0-2.19,3.13,3.21,3.21,0,0,0,2.61,3.26,3.53,3.53,0,0,0,3.11-.84Z" fill="#925244"/>
    <path id="Caminho_4813" data-name="Caminho 4813" d="M172.11,319.44c5.69-1.77,11.92.45,16.33,4.35a32,32,0,0,1,5.74,6.14c1.55,2.37,1.41,5.07,2.53,7.64,2,5.11,8.65,6.28,8.76,12.33.05,3.14-.45,4.78,2.37,6.8,2,1.56,4.9,2.13,6,4.69,1.13,2.35.16,5,.88,7.35.88,3.17,3.35,3.92,5.32,6.11,3.78,3.74,2.26,8.88.59,13.17-2.63,6.55-7.81,9.83-14,12.44-9.61,4.31-23.42,5.07-33.75,3.08-9.91-2.17-21.22-5.25-23.78-16.65-.82-4.21-.7-10.67,2.18-14.07,1.77-2,4.75-3.1,5.11-6,.32-2.28-1.88-4.27-1.54-6.76.36-2.9,4.34-3.33,4.48-6,.12-2.29-2.91-4.32-2.77-7,.15-2.91,3.31-3.58,3.64-6.07.32-2.07-1.44-4.46-1.1-6.94.86-6.42,6-11.64,11.74-14.09A8.732,8.732,0,0,1,172.11,319.44Z" fill="#010101"/>
    <path id="Caminho_4814" data-name="Caminho 4814" d="M167.07,329.53c1-1.3,3-3.85,4.81-4.67a17,17,0,0,1,4.59,1.95,22.07,22.07,0,0,1,8.3,7.89,24.3,24.3,0,0,1,2.58,5.42,28.848,28.848,0,0,1-1.44,9,18.32,18.32,0,0,1-2.49,4.741c1.08,2.9,3.35,8.12,4.82,9.83,2.49,2.69,5.39,3.36,8.68,3.79l-15.38,18.07c-.39.51-5.89-7.35-6.77-8.12-1.87-2.05-6.24-6.29-6.32-9.32a40.5,40.5,0,0,0,5.58-1.32c2.54-.72,3.05-1.22,2.84-3.88-.13-1.51-.45-3.63-.8-5.65-1.07-.37-2.19-.93-2.59-1.1-2-.85-4.22-2.1-4.95-4.24-1.28-3.75-1.15-3.37-3.61-8.08a21.059,21.059,0,0,1-1.6-3.8,19.133,19.133,0,0,1,.35-2.8,18.55,18.55,0,0,1,3.4-7.71Z" fill="#925244"/>
    <path id="Caminho_4815" data-name="Caminho 4815" d="M186.78,340.46a6.77,6.77,0,0,1,2,0,2.73,2.73,0,0,1,2.11,3.19,3.21,3.21,0,0,1-2.7,3.19,3.52,3.52,0,0,1-3.09-.92Z" fill="#925244"/>
    <path id="Caminho_4816" data-name="Caminho 4816" d="M179.41,339.87c0,.94.44,1.67,1,1.61s1-.86,1-1.8-.43-1.67-1-1.61S179.41,338.93,179.41,339.87Z" fill="#010101"/>
    <path id="Caminho_4817" data-name="Caminho 4817" d="M167.68,341.76c0,.95.43,1.67,1,1.62s1-.86,1-1.81-.44-1.66-1-1.61S167.68,340.82,167.68,341.76Z" fill="#010101"/>
    <path id="Caminho_4818" data-name="Caminho 4818" d="M180.71,349.63a3.5,3.5,0,0,1-1.09,2,5,5,0,0,1-2,1.17,3.85,3.85,0,0,1-2.35,0,2.75,2.75,0,0,1-1.68-1.51,4.09,4.09,0,0,0,1.86.75,4.45,4.45,0,0,0,1.88-.2,7.36,7.36,0,0,0,3.36-2.17Z" fill="#502923"/>
    <path id="Caminho_4819" data-name="Caminho 4819" d="M173.81,340.75a1.5,1.5,0,0,1,.54,1.17,2.5,2.5,0,0,1-.3,1.33,5.46,5.46,0,0,1-.33.52.76.76,0,0,0-.14.33,2.264,2.264,0,0,0,.35.73h0a3.52,3.52,0,0,0,.85.83,11,11,0,0,0,1.19.59,3.49,3.49,0,0,1-1.44,0,2.91,2.91,0,0,1-1.29-.8h0a3.424,3.424,0,0,1-.39-.54,1.36,1.36,0,0,1-.21-.87,2.54,2.54,0,0,1,.71-1.2,3.09,3.09,0,0,0,.48-.92,1.89,1.89,0,0,0-.02-1.17Z" fill="#502923"/>
    <path id="Caminho_4820" data-name="Caminho 4820" d="M181.56,334c-.37-.21-.69-.35-1-.5l-.94-.39c-.31-.13-.63-.24-1-.36s-.65-.22-1.07-.32a1.79,1.79,0,0,1,1.17-.45,3,3,0,0,1,1.22.2,3.149,3.149,0,0,1,1,.69,1.85,1.85,0,0,1,.62,1.13Z" fill="#010101"/>
    <path id="Caminho_4821" data-name="Caminho 4821" d="M165.19,337.34a2.32,2.32,0,0,1,.12-2.28,2.18,2.18,0,0,1,.9-.83,1.72,1.72,0,0,1,1.18-.15,8,8,0,0,0-1.23,1.5C165.83,336.08,165.6,336.65,165.19,337.34Z" fill="#010101"/>
    <path id="Caminho_4822" data-name="Caminho 4822" d="M207,376.51s5.67,22.67,10.05,32.46c5.66-2.06,8-2.32,14.68-4.38,4.36-1.34,14.43-6.44,15.71.77A127.35,127.35,0,0,1,214.24,419c-3.86,1.29-3.86,1.55-4.89-2.57-1-2.58-10.31-32.46-11.59-36.58Z" fill="#9c4f4f"/>
    <path id="Caminho_4823" data-name="Caminho 4823" d="M158.6,376.51s-5.67,22.67-10,32.46c-5.67-2.06-8-2.32-14.68-4.38-4.37-1.34-23.24-10.82-24.53-3.61,12.23,7.17,31.48,15.2,42,18,3.87,1.29,3.87,1.55,4.9-2.57,1-2.58,10.3-32.46,11.59-36.58Z" fill="#9c4f4f"/>
    <path id="Caminho_4824" data-name="Caminho 4824" d="M198.19,384v2.29c4.47,0,7.89-.14,12.36-3.7.32-.26-3.44-7.57-3.82-8.27-1.44-2.65-3.33-5.47-6-7-1.88-1-3.81-.78-6-1a5,5,0,0,1-.07,2.71c-.41,1.3-2,1.5-3.19,1.52-3.34.07-6.79.2-10.14.16-2.84-.06-5.62.17-8.42-.38-1.56-.3-1.47-1.69-1.43-3.22-4.86.32-9.38.13-12.93,3.67-1.61,1.6-3.54,14.14-3.54,14.14,5.28,1.79,8.33.69,10.81.67a103.644,103.644,0,0,1,1.38,12.31,38,38,0,0,1-1.05,8.71c-.61,2.69-.88,5.93-1.93,8.62-.64,1.58-1.4,2.37-1.7,4.27a12.61,12.61,0,0,1-2.34,5.29,20.451,20.451,0,0,0-2.65,6.18s5.62,2.55,7,3a56.91,56.91,0,0,0,7.61,1.51c2.57.4,5.35,0,8,.06a44.8,44.8,0,0,0,8.57-.51c2.55-.5,5.12-.44,7.67-.83a32.18,32.18,0,0,0,7.86-2.51c-.49-2-1.42-3.87-1.69-5.87a6.9,6.9,0,0,0-.73-3c-.69-1.32-1.25-1.31-1.28-3a13.87,13.87,0,0,0-.19-3.67c-.24-.66-.8-1-1-1.65a7.769,7.769,0,0,1,0-1.67,28.92,28.92,0,0,0-1-6.89c-1.33-5-.53-9.56-.08-14.48C198.29,388.91,198.13,386.46,198.19,384Z" fill="#ee7724"/>
    <path id="Caminho_4825" data-name="Caminho 4825" d="M107.2,354.17c-.49,1.24.87,2.71,1.48,3.7.49.74,1.36,1.48,1.11,2.46-.37,1.36-1.85,0-2.71-.61.25.86,1.6,2,1.11,3s-2.84,1.1-3.7,1c-1.23-.12-5.17-1.48-4.43-3.08Z" fill="#010101"/>
    <path id="Caminho_4826" data-name="Caminho 4826" d="M107,349.49c2.21-4.43,4.19-9.61,3.69-14.66-.24-2.22-1-4.68-3-5.79-2.22-1.23-4.69-.5-6.9-.37.24-3.08-6.66-3.45-8.51-3.82-3.57-.74-6.53-.25-9.11,2.46-2.22,2.34-3,5.42-6.29,6.66-.74.24-3.69.61-4.06,1-1.11,1.6,1.48,3.45,2.46,3.82a15.55,15.55,0,0,0,2.1.37c-4.44,2,1.1,10.35,3.32,12.08,1.73,1.35,3,2.83,1.85,5.29-.37,1-2.59,2.1-2.71,3.08s1.6,1.11,2.46,1.11c-2.58,2.59,3.58,3.58,5.06,3.58a7.1,7.1,0,0,0,5.42-2.71Z" fill="#010101"/>
    <path id="Caminho_4827" data-name="Caminho 4827" d="M83.76,350.34c-1.84-.46-2.58.46-2.67,2.31-.1,1.39,0,3.42.92,4.53.55.83,2.59,1.66,3.42.92Z" fill="#d47e72"/>
    <path id="Caminho_4828" data-name="Caminho 4828" d="M88,336.66c.55-4.34,7-5.45,7.3-.55,1.47-.83,3-2.68,5.08-1.94,1.66.55,1.57,3,1.76,4.44.34,2.25,1.49,2.89,3.11,3.07.23,2.22.21,4.49.3,6.72.19,3.7.56,8.69-1.2,12a13.07,13.07,0,0,1-5.11,5.45,22.931,22.931,0,0,0,2,5.77c.74,1.23,2.34,1.6,3.7,2.09l-1.6,6.16c-1.48,4.44-7,9.24-11.59,6-2.09-1.36-3.2-3.45-4.18-5.79-.74-1.73-2.1-3.57-1.85-5.55a15.668,15.668,0,0,0,3.2-1.72c1.36-.74,1.23-1.23,1.36-2.59.13-1.14.19-2.31.26-3.48l-1-.28a11.25,11.25,0,0,1-5-4.16c-.74-1.29-.37-3.51-.56-4.89-.28-1.94-.46-3.14-.74-5a55.269,55.269,0,0,1-1.06-11.69,11.452,11.452,0,0,1,3-.51C87.74,340,87.65,338.79,88,336.66Z" fill="#d47e72"/>
    <path id="Caminho_4829" data-name="Caminho 4829" d="M99.48,360.41a3.74,3.74,0,0,1-1.4,1.65,7.28,7.28,0,0,1-2,1,6.869,6.869,0,0,1-2.16.34,3.14,3.14,0,0,1-2.06-.64,4.3,4.3,0,0,0,2,.18,11.77,11.77,0,0,0,2-.45,12.448,12.448,0,0,0,1.9-.78,5.38,5.38,0,0,0,1.72-1.3Z" fill="#6b3126"/>
    <path id="Caminho_4830" data-name="Caminho 4830" d="M93.19,348.22a6.6,6.6,0,0,1-.82,3.06,9.87,9.87,0,0,0-1,2.86,2.94,2.94,0,0,0,0,1.42,2.11,2.11,0,0,0,.86,1.07,4.36,4.36,0,0,0,1.36.64,5.59,5.59,0,0,0,1.53.28A4.76,4.76,0,0,1,92,357a2.47,2.47,0,0,1-1.15-1.27,3.54,3.54,0,0,1-.11-1.7,7.21,7.21,0,0,1,.48-1.58,15.532,15.532,0,0,1,.75-1.4A8.9,8.9,0,0,0,93.19,348.22Z" fill="#6b3126"/>
    <path id="Caminho_4831" data-name="Caminho 4831" d="M101.79,343a3.81,3.81,0,0,0-1-.67,8.726,8.726,0,0,0-1.08-.39,7.3,7.3,0,0,0-1.11-.23,2.7,2.7,0,0,0-1.21.09,1.53,1.53,0,0,1,1.14-.87,3,3,0,0,1,1.46.05,3.08,3.08,0,0,1,1.25.72,1.69,1.69,0,0,1,.55,1.3Z" fill="#010101"/>
    <path id="Caminho_4832" data-name="Caminho 4832" d="M89,342a3.37,3.37,0,0,0-1.15.13,4.521,4.521,0,0,0-1,.4,4.861,4.861,0,0,0-.85.6,3.68,3.68,0,0,0-.73.91,1.61,1.61,0,0,1,.1-1.37,2.52,2.52,0,0,1,2.38-1.32A1.59,1.59,0,0,1,89,342Z" fill="#010101"/>
    <path id="Caminho_4833" data-name="Caminho 4833" d="M98.46,349.19c0,.94.43,1.71,1,1.71s1-.77,1-1.71-.44-1.71-1-1.71S98.46,348.24,98.46,349.19Z" fill="#010101"/>
    <path id="Caminho_4834" data-name="Caminho 4834" d="M86.72,349.93c0,.94.44,1.71,1,1.71s1-.77,1-1.71-.43-1.71-1-1.71S86.72,349,86.72,349.93Z" fill="#010101"/>
    <path id="Caminho_4835" data-name="Caminho 4835" d="M104.68,348.22c6.09-2,7.94,9.33-.22,7.94Z" fill="#d47e72"/>
    <path id="Caminho_4836" data-name="Caminho 4836" d="M130.37,431.26c1.73-2.71,3.33-5.17,4.8-7.88,1.36-2.47,2.84-4.69,4.2-7.15.61-1.23,1.35-2.22.61-3.57s-10-10.72-10.72-12.32c0,0,4.93-6.78,5.91-8.14,2.84,1.85,20,18.73,18.61,21.69s-4.06,5.3-6,7.88c-3.45,4.56-19.34,23.29-22.42,17.5C125.32,439.27,129.51,432.74,130.37,431.26Z" fill="#d47e72"/>
    <path id="Caminho_4837" data-name="Caminho 4837" d="M64.93,431.26c-1.73-2.71-3.33-5.17-4.81-7.88-1.35-2.47-2.83-4.69-4.19-7.15-.61-1.23-1.35-2.22-.61-3.57s10-10.72,10.72-12.32l-5.92-8.14c-2.83,1.85-20,18.73-18.61,21.69s4.07,5.3,6,7.88C51,426.33,66.9,445.06,70,439.27,70,439.27,65.79,432.74,64.93,431.26Z" fill="#d47e72"/>
    <path id="Caminho_4838" data-name="Caminho 4838" d="M138.75,393.13c1.06.93,1.82,1.59,2.09,1.78-3.2,3.82-6.4,8.14-11,10.48l-1.71-2.06a38.212,38.212,0,0,0,6-5.13C135.59,396.66,137.33,394.94,138.75,393.13Z" fill="#de960b"/>
    <path id="Caminho_4839" data-name="Caminho 4839" d="M56.63,393.05c1.3,1.62,2.83,3.07,4.17,4.58a42.441,42.441,0,0,0,6.2,5.89l-1.55,1.87c-4.56-2.34-7.76-6.66-11-10.48C54.73,394.71,55.53,394,56.63,393.05Z" fill="#de960b"/>
    <path id="Caminho_4840" data-name="Caminho 4840" d="M60.8,397.63c-1.34-1.51-2.87-3-4.17-4.58,3.86-3.43,11.44-10.47,13-12.68,1.85-2.46,3.08-4.55,6.28-5.54,2.59-.74,4.93-.25,7.52-.62.93-.12,1.86-.22,2.8-.32l2.45,5.47,7.76,8.31,5.74-8,2.64-6.1c2.39.14,4.76.37,7.09.67,2.59.37,4.93-.12,7.51.62,3.21,1,4.44,3.08,6.29,5.54,1.55,2.23,9.22,9.35,13.06,12.76-1.42,1.81-3.16,3.53-4.63,5.07a38.211,38.211,0,0,1-6,5.13c-2.65-3.19-5.33-6.46-8.27-9.4-.37,9.12-.74,18.36-.5,27.6.13,3.69.25,7.27.25,11a40.14,40.14,0,0,0,.25,5.42c.12,1.24.61,2.47.86,3.82s-.37,2.71-.37,4.07,1,2.34,1.35,3.57c.25,1.48-.36,3.08,0,4.69l.13.74s-3.94.49-5.05.73a46.2,46.2,0,0,1-7.27,1.11c-2.71.37-5.42.37-8.13.5H93.88c-2.71-.13-5.42-.13-8.13-.5a46,46,0,0,1-7.27-1.11c-1.11-.24-5-.73-5-.73l.12-.74c.37-1.61-.25-3.21,0-4.69.37-1.23,1.36-2.21,1.36-3.57s-.62-2.71-.37-4.07.74-2.58.86-3.82a40.14,40.14,0,0,0,.25-5.42c0-3.69.12-7.27.24-11,.25-9.24-.12-18.48-.49-27.6-3,3-5.73,6.34-8.43,9.59a42.441,42.441,0,0,1-6.22-5.92Z" fill="#fab83f"/>
    <path id="Caminho_4841" data-name="Caminho 4841" d="M105.42,371.57l6.04.86-.87,15.4-11.39-2.9-.87,10.72H93.35l-.37-10.84-10.29,4.44-3.21-16.14,6.47-1.3,10.17,13.74Z" fill="#de960b"/>
    <path id="Caminho_4842" data-name="Caminho 4842" d="M271.47,364.63c.29-.38.85-.47,1.23-.66,1.7-.76,2.36-2.46,3-4.06a33.061,33.061,0,0,0,1.8-12.19c-.19-3.21-1.8-4.63-4.72-5.38.09-5-5.58-8.31-10.3-7.18-2.83.76-5.1,2.93-7.55,4.53s-5.29,2.08-7.75,3.5a7.44,7.44,0,0,0-4.06,5.38c-.57,2.17,0,3.59,1,5.57a17.74,17.74,0,0,0,4,5.2c1,.94,2.84,2.64,4.26,2.64Z" fill="#a7a6a6"/>
    <path id="Caminho_4843" data-name="Caminho 4843" d="M272.32,356.22c-3.21-.38-1.41-6.23-.94-8-2.36-1.22-4.53-2.64-5.57-5.19-1.33.38-2.93,1.7-4.25,2.36a35.267,35.267,0,0,1-4.82,2.17,25,25,0,0,1-7.83,1.22,26,26,0,0,0-.1,6.53c.25,5-.63,10.83,1.26,15.49,1.48,3.66,3.6,5.89,6.71,6.79l-2.25,9.4s1.36,4.3,11.41,1.41c.32-.09-.63-7.37-1-11.33a4.111,4.111,0,0,0,.89-.35c2.39-1.26,4.66-4.66,5.54-7.06a38,38,0,0,0,1.51-6.32C271.64,361.79,271.91,357.55,272.32,356.22Z" fill="#f9c8bd"/>
    <path id="Caminho_4844" data-name="Caminho 4844" d="M249.88,364.53a3,3,0,0,0-4.54,2.08,3.74,3.74,0,0,0,1.64,4,4.71,4.71,0,0,0,4.09.38c.26-.07.44-.25.7-.32Z" fill="#f9c8bd"/>
    <path id="Caminho_4845" data-name="Caminho 4845" d="M270.47,365.1a10.119,10.119,0,0,1,1.38-1.51,3.19,3.19,0,0,1,3.84.13c1,1.07.95,3.14.51,4.34a3.48,3.48,0,0,1-3.21,2.71c-.89.06-2.4.25-3-.63Z" fill="#f9c8bd"/>
    <path id="Caminho_4846" data-name="Caminho 4846" d="M251.64,352.54a2.18,2.18,0,0,1,1.52-1,2.33,2.33,0,0,1,1.79.35,4,4,0,0,1-1.6.63,4.83,4.83,0,0,1-1.71.02Z" fill="#192946"/>
    <path id="Caminho_4847" data-name="Caminho 4847" d="M263.92,350.37a2.43,2.43,0,0,1,1.82-.6,2.16,2.16,0,0,1,1.67,1,6.939,6.939,0,0,1-1.75,0,5.152,5.152,0,0,1-1.74-.4Z" fill="#192946"/>
    <path id="Caminho_4848" data-name="Caminho 4848" d="M258.63,357.45a7.819,7.819,0,0,1,.48,3.15,25.735,25.735,0,0,1-.46,3.12,6,6,0,0,0-.11,2.81c.24.82,1.37,1.09,2.36,1.4a5.811,5.811,0,0,1-1.61,0,2,2,0,0,1-1.45-1,5.33,5.33,0,0,1-.17-3.33L258,362c.15-.51.24-1,.35-1.48a20.483,20.483,0,0,0,.28-3.07Z" fill="#e76767"/>
    <path id="Caminho_4849" data-name="Caminho 4849" d="M255.89,371.52a5.42,5.42,0,0,0,3.4,2.55c2,.38,4.53-1.13,4.53-2.92Z" fill="#fff"/>
    <path id="Caminho_4850" data-name="Caminho 4850" d="M254.11,371.54a3.29,3.29,0,0,1,1.65-2.77c1.12-.86,2.64-.73,3.95-.73a13.919,13.919,0,0,1,4.09.27c.92.32,2.37,2,1.85,3.09Z" fill="#a7a6a6"/>
    <path id="Caminho_4851" data-name="Caminho 4851" d="M255.19,361.31a1.38,1.38,0,1,1-1.37-1.37A1.38,1.38,0,0,1,255.19,361.31Z" fill="#010101"/>
    <circle id="Elipse_42" data-name="Elipse 42" cx="1.38" cy="1.38" r="1.38" transform="translate(265.28 359.93)" fill="#010101"/>
    <path id="Caminho_4852" data-name="Caminho 4852" d="M246.48,361.19a5.47,5.47,0,1,1,1.6,3.874,5.47,5.47,0,0,1-1.6-3.874Z" fill="none" stroke="#41576f" stroke-miterlimit="10" stroke-width="0.6"/>
    <path id="Caminho_4853" data-name="Caminho 4853" d="M260.83,361.19a5.47,5.47,0,1,1,1.6,3.878A5.48,5.48,0,0,1,260.83,361.19Z" fill="none" stroke="#41576f" stroke-miterlimit="10" stroke-width="0.6"/>
    <line id="Linha_20" data-name="Linha 20" x2="3.34" transform="translate(257.42 361.57)" fill="none" stroke="#41576f" stroke-miterlimit="10" stroke-width="0.6"/>
    <line id="Linha_21" data-name="Linha 21" x1="1.46" transform="translate(245.03 360.82)" fill="none" stroke="#41576f" stroke-linecap="round" stroke-miterlimit="10" stroke-width="0.6"/>
    <line id="Linha_22" data-name="Linha 22" x1="1.46" transform="translate(271.78 360.82)" fill="none" stroke="#41576f" stroke-linecap="round" stroke-miterlimit="10" stroke-width="0.6"/>
    <path id="Caminho_4854" data-name="Caminho 4854" d="M278.6,393.16c-1.9,1.89-2.18,5.31-1.53,7.67,1.65,6.2,11,25.17,11.06,25.42.17.75-.2.77-.16,1.4.08,1.38.73,1.59,1.79,2.41-2,2.4.84,3.36.86,5.75s-3.44,15.49-6.23,19.32c0,0,5.71,4.44,9.55,5.33.71-2.7,9.46-22,9.65-25.09s-12.06-31.29-19.75-41.15a9.56,9.56,0,0,0-4.16-2.37,7.072,7.072,0,0,1-1.08,1.31Z" fill="#f8c7d9"/>
    <path id="Caminho_4855" data-name="Caminho 4855" d="M268.05,385.88c1.39,1,3.15,1.51,4.66,2.39,2.65,1.26,5,2.65,7.68,3.78,6.55,2.9,2,36.14,1.77,39-.38,3.15.75,5.29,1.63,8.31s.76,6.05-2.14,7.81c-2.26,1.26-5.92,1.38-8.44,1.63-1.38.13-3-.12-4.4.13s-2.4.88-3.65,1.14c-4.92.88-11.09,2.14-15.75.25-.88-.38-1.76-.89-2.52-1.26h0v-.26c-4.4.76-12.71,1.27-13.59-4.53-.38-3,1.76-5.54,2.26-8.44s1.26-23.29-.38-29.84c-.75-2.77-8.66-10.39,1.14-14,5.45-2,9.57-4.16,15-5.92,1.51-.63,2.4-.88,3.65-.25s2.52,1.76,3.91,2.39c2.77,1.39,4.66,1,7.43.13h0Z" fill="#f7bfcf"/>
    <path id="Caminho_4856" data-name="Caminho 4856" d="M260.37,393.94c1.26,0,1.76-.5,2.52.5,0,0,.75,8.94.88,10.58.38,7.43,1.64,31.36,1.39,35.89,0,1.39,0,1.51-1.39,1.89a21.649,21.649,0,0,1-2.9.13,15.181,15.181,0,0,1-4.78-.38h0C256.09,430.84,260.37,393.94,260.37,393.94Z" fill="#34383d"/>
    <path id="Caminho_4857" data-name="Caminho 4857" d="M262.21,395.12c.46.14,1-1.06,1.05-1.34a7.51,7.51,0,0,0,.6-2.92c0-.74.14-1.83-.74-2.08a8.219,8.219,0,0,0-2.88-.14c-.74.07-1.2.11-1.24.92a6.58,6.58,0,0,0,.46,2.29c.21.63.46,1.3.67,2,.18.49.53.77.74,1.23Z" fill="#34383d"/>
    <path id="Caminho_4858" data-name="Caminho 4858" d="M260.84,388.1l-4.06,6.42-5.48-8.39,3.12-5.12Z" fill="#f39fbc"/>
    <path id="Caminho_4859" data-name="Caminho 4859" d="M262.64,388.1l4.06,6.42,4.72-7.89-3.97-4.58Z" fill="#f39fbc"/>
    <path id="Caminho_4860" data-name="Caminho 4860" d="M236.57,394.07c2,1.76,2.52,5.16,2,7.55-1.26,6.3-9.44,25.82-9.44,26.07-.13.75.25.75.25,1.38,0,1.39-.63,1.64-1.64,2.52,2.15,2.27-.63,3.4-.5,5.8s4.41,15.23,7.43,18.89c0,0-5.41,4.78-9.19,5.91-.88-2.64-10.83-21.4-11.21-24.43s10.07-32,17.13-42.31c.62-.88,1.51-2,2.77-2a5.88,5.88,0,0,1,2.4.62Z" fill="#f8c7d9"/>
  </g>
</svg>
