<svg id="Componente_5_1" data-name="Componente 5 – 1" xmlns="http://www.w3.org/2000/svg" width="288.382" height="206.55" viewBox="0 0 288.382 206.55">
  <rect id="Retângulo_8" data-name="Retângulo 8" width="155.62" height="206.55" transform="translate(47.676)" fill="#467f32"/>
  <rect id="Retângulo_9" data-name="Retângulo 9" width="147.23" height="199.21" transform="translate(52.066 4.01)" fill="#fff"/>
  <path id="Caminho_240" data-name="Caminho 240" d="M199.78,1143.7H131a1.06,1.06,0,0,1,0-2.11h68.75a1.06,1.06,0,0,1,0,2.11Z" transform="translate(-58.914 -1050.45)" fill="#94bf84"/>
  <path id="Caminho_241" data-name="Caminho 241" d="M238.56,1143.7H205.71a1.06,1.06,0,0,1,0-2.11h32.85a1.06,1.06,0,0,1,0,2.11Z" transform="translate(-58.914 -1050.45)" fill="#94bf84"/>
  <path id="Caminho_242" data-name="Caminho 242" d="M238.56,1161.28H169.81a1.06,1.06,0,0,1,0-2.11h68.75a1.06,1.06,0,0,1,0,2.11Z" transform="translate(-58.914 -1050.45)" fill="#94bf84"/>
  <path id="Caminho_243" data-name="Caminho 243" d="M163.88,1161.28H131a1.06,1.06,0,0,1,0-2.11h32.85a1.06,1.06,0,0,1,0,2.11Z" transform="translate(-58.914 -1050.45)" fill="#94bf84"/>
  <path id="Caminho_244" data-name="Caminho 244" d="M157.35,1170.07H131a1.06,1.06,0,0,1,0-2.11h26.32a1.06,1.06,0,0,1,0,2.11Z" transform="translate(-58.914 -1050.45)" fill="#94bf84"/>
  <path id="Caminho_245" data-name="Caminho 245" d="M202.43,1170.07H161.58a1.06,1.06,0,1,1,0-2.11h40.85a1.06,1.06,0,0,1,0,2.11Z" transform="translate(-58.914 -1050.45)" fill="#94bf84"/>
  <path id="Caminho_246" data-name="Caminho 246" d="M157.35,1152.48H131a1.05,1.05,0,1,1,0-2.1h26.32a1.05,1.05,0,1,1,0,2.1Z" transform="translate(-58.914 -1050.45)" fill="#94bf84"/>
  <path id="Caminho_247" data-name="Caminho 247" d="M187.44,1152.48H161.58a1.05,1.05,0,1,1,0-2.1h25.86a1.05,1.05,0,1,1,0,2.1Z" transform="translate(-58.914 -1050.45)" fill="#94bf84"/>
  <path id="Caminho_248" data-name="Caminho 248" d="M238.56,1152.48H190.13a1.05,1.05,0,1,1,0-2.1h48.43a1.05,1.05,0,1,1,0,2.1Z" transform="translate(-58.914 -1050.45)" fill="#94bf84"/>
  <path id="Caminho_249" data-name="Caminho 249" d="M199.78,1095.4H131a1.06,1.06,0,0,1,0-2.11h68.75a1.06,1.06,0,0,1,0,2.11Z" transform="translate(-58.914 -1050.45)" fill="#94bf84"/>
  <path id="Caminho_250" data-name="Caminho 250" d="M238.56,1095.4H205.71a1.06,1.06,0,0,1,0-2.11h32.85a1.06,1.06,0,0,1,0,2.11Z" transform="translate(-58.914 -1050.45)" fill="#94bf84"/>
  <path id="Caminho_251" data-name="Caminho 251" d="M238.56,1113H169.81a1.06,1.06,0,0,1,0-2.11h68.75a1.06,1.06,0,0,1,0,2.11Z" transform="translate(-58.914 -1050.45)" fill="#94bf84"/>
  <path id="Caminho_252" data-name="Caminho 252" d="M163.88,1113H131a1.06,1.06,0,0,1,0-2.11h32.85a1.06,1.06,0,0,1,0,2.11Z" transform="translate(-58.914 -1050.45)" fill="#94bf84"/>
  <path id="Caminho_253" data-name="Caminho 253" d="M157.35,1121.77H131a1.06,1.06,0,0,1,0-2.11h26.32a1.06,1.06,0,0,1,0,2.11Z" transform="translate(-58.914 -1050.45)" fill="#94bf84"/>
  <path id="Caminho_254" data-name="Caminho 254" d="M202.43,1121.77H161.58a1.06,1.06,0,1,1,0-2.11h40.85a1.06,1.06,0,0,1,0,2.11Z" transform="translate(-58.914 -1050.45)" fill="#94bf84"/>
  <path id="Caminho_255" data-name="Caminho 255" d="M157.35,1104.19H131a1.06,1.06,0,0,1,0-2.11h26.32a1.06,1.06,0,0,1,0,2.11Z" transform="translate(-58.914 -1050.45)" fill="#94bf84"/>
  <path id="Caminho_256" data-name="Caminho 256" d="M187.44,1104.19H161.58a1.06,1.06,0,1,1,0-2.11h25.86a1.06,1.06,0,0,1,0,2.11Z" transform="translate(-58.914 -1050.45)" fill="#94bf84"/>
  <path id="Caminho_257" data-name="Caminho 257" d="M238.56,1104.19H190.13a1.06,1.06,0,1,1,0-2.11h48.43a1.06,1.06,0,0,1,0,2.11Z" transform="translate(-58.914 -1050.45)" fill="#94bf84"/>
  <path id="Caminho_258" data-name="Caminho 258" d="M199.78,1187.64H131a1.05,1.05,0,1,1,0-2.1h68.75a1.05,1.05,0,0,1,0,2.1Z" transform="translate(-58.914 -1050.45)" fill="#94bf84"/>
  <path id="Caminho_259" data-name="Caminho 259" d="M238.56,1187.64H205.71a1.05,1.05,0,0,1,0-2.1h32.85a1.05,1.05,0,0,1,0,2.1Z" transform="translate(-58.914 -1050.45)" fill="#94bf84"/>
  <path id="Caminho_260" data-name="Caminho 260" d="M238.56,1205.22H169.81a1.05,1.05,0,1,1,0-2.1h68.75a1.05,1.05,0,0,1,0,2.1Z" transform="translate(-58.914 -1050.45)" fill="#94bf84"/>
  <path id="Caminho_261" data-name="Caminho 261" d="M163.88,1205.22H131a1.05,1.05,0,1,1,0-2.1h32.85a1.05,1.05,0,0,1,0,2.1Z" transform="translate(-58.914 -1050.45)" fill="#94bf84"/>
  <path id="Caminho_262" data-name="Caminho 262" d="M157.35,1214H131a1.05,1.05,0,1,1,0-2.1h26.32a1.05,1.05,0,1,1,0,2.1Z" transform="translate(-58.914 -1050.45)" fill="#94bf84"/>
  <path id="Caminho_263" data-name="Caminho 263" d="M202.43,1214H161.58a1.05,1.05,0,1,1,0-2.1h40.85a1.05,1.05,0,1,1,0,2.1Z" transform="translate(-58.914 -1050.45)" fill="#94bf84"/>
  <path id="Caminho_264" data-name="Caminho 264" d="M157.35,1196.43H131a1.05,1.05,0,1,1,0-2.1h26.32a1.05,1.05,0,0,1,0,2.1Z" transform="translate(-58.914 -1050.45)" fill="#94bf84"/>
  <path id="Caminho_265" data-name="Caminho 265" d="M187.44,1196.43H161.58a1.05,1.05,0,1,1,0-2.1h25.86a1.05,1.05,0,0,1,0,2.1Z" transform="translate(-58.914 -1050.45)" fill="#94bf84"/>
  <path id="Caminho_266" data-name="Caminho 266" d="M238.56,1196.43H190.13a1.05,1.05,0,1,1,0-2.1h48.43a1.05,1.05,0,0,1,0,2.1Z" transform="translate(-58.914 -1050.45)" fill="#94bf84"/>
  <rect id="Retângulo_10" data-name="Retângulo 10" width="9.65" height="14.5" transform="translate(220.971 115.372) rotate(-32.24)" fill="#c9c9c9"/>
  <path id="Caminho_267" data-name="Caminho 267" d="M298.13,1131.07A41.32,41.32,0,1,1,267,1081.65,41.32,41.32,0,0,1,298.13,1131.07Z" transform="translate(-58.914 -1050.45)" fill="#9bd7f6" opacity="0.5"/>
  <path id="Caminho_268" data-name="Caminho 268" d="M298.13,1131.07a41.318,41.318,0,1,1-80.595-18.251Z" transform="translate(-58.914 -1050.45)" fill="#9bd7f6" opacity="0.5"/>
  <path id="Caminho_269" data-name="Caminho 269" d="M230.4,1078.5a51.42,51.42,0,1,0,70.91,16.06,51.42,51.42,0,0,0-70.91-16.06Zm49.46,78.44a41.31,41.31,0,1,1,12.91-57A41.31,41.31,0,0,1,279.86,1156.94Z" transform="translate(-58.914 -1050.45)" fill="#8a8a8a"/>
  <path id="Caminho_270" data-name="Caminho 270" d="M282.19,1098.76c-.73,4.47-9.68,6.74-20,5.07s-18.09-6.65-17.36-11.13,9.67-6.74,20-5.07S282.91,1094.28,282.19,1098.76Z" transform="translate(-58.914 -1050.45)" fill="#fff" opacity="0.5"/>
  <path id="Caminho_271" data-name="Caminho 271" d="M345.35,1237.42a12.42,12.42,0,0,1-3.88,17.13h0a12.41,12.41,0,0,1-17.12-3.88l-37.94-60.15a12.41,12.41,0,0,1,3.88-17.13h0a12.41,12.41,0,0,1,17.12,3.88Z" transform="translate(-58.914 -1050.45)" fill="#8a8a8a"/>
  <path id="Caminho_272" data-name="Caminho 272" d="M295.83,1171.53l49.71,78.81a12.39,12.39,0,0,0-.19-12.92l-37.94-60.15A12.39,12.39,0,0,0,295.83,1171.53Z" transform="translate(-58.914 -1050.45)" fill="#c9c9c9"/>
  <path id="Caminho_273" data-name="Caminho 273" d="M345.38,1244.55a12.4,12.4,0,0,1-17.12-3.88l-37.94-60.15a12.23,12.23,0,0,1-1.88-5.7,12.41,12.41,0,0,0-2,15.7l37.94,60.15a12.41,12.41,0,0,0,22.88-7.55,11.392,11.392,0,0,1-1.88,1.43Z" transform="translate(-58.914 -1050.45)" fill="#333"/>
  <path id="Caminho_274" data-name="Caminho 274" d="M153.84,1163.5c-35.25,0-47.06-22.86-47.06-22.86S95,1163.5,59.72,1163.5c0,0-10.85,67.82,47.06,93C164.69,1231.32,153.84,1163.5,153.84,1163.5Z" transform="translate(-58.914 -1050.45)" fill="#8a8a8a"/>
  <path id="Caminho_275" data-name="Caminho 275" d="M106.4,1141.3c-2.26,3.74-15,22.2-46.68,22.2,0,0-10.8,67.51,46.68,92.79Z" transform="translate(-58.914 -1050.45)" fill="#c9c9c9"/>
  <path id="Caminho_276" data-name="Caminho 276" d="M145.41,1172.24c-19.23-1.9-31.5-10.11-38.63-17.06-7.13,7-19.4,15.16-38.63,17.06a103.3,103.3,0,0,0,2.43,26.86c5.1,22,17.27,37.88,36.2,47.28,18.93-9.4,31.1-25.29,36.2-47.28a103.3,103.3,0,0,0,2.43-26.86Z" transform="translate(-58.914 -1050.45)" fill="#63b346"/>
  <rect id="Retângulo_11" data-name="Retângulo 11" width="12.19" height="43.43" transform="translate(41.766 126.38)" fill="#fff"/>
  <rect id="Retângulo_12" data-name="Retângulo 12" width="43.43" height="12.19" transform="translate(26.146 142.01)" fill="#fff"/>
  <path id="Caminho_277" data-name="Caminho 277" d="M137.87,1180.24c-.91,2.94-7.53,3.51-14.78,1.28s-12.41-6.43-11.51-9.38,7.53-3.51,14.79-1.28S138.78,1177.3,137.87,1180.24Z" transform="translate(-58.914 -1050.45)" fill="#82cc64"/>
</svg>
