<svg id="Componente_1_1" data-name="Componente 1 – 1" xmlns="http://www.w3.org/2000/svg" width="333.986" height="298.367" viewBox="0 0 333.986 298.367">
  <path id="Caminho_44" data-name="Caminho 44" d="M627.6,201.36l3.2.98,2.15-4.96,4.86.86,2.22-3.46,1.75,1.12-2.97,4.62-4.6-.81-2.24,5.17-4.82-1.48Z" transform="translate(-400.002 -144.728)" fill="#63b346"/>
  <path id="Caminho_45" data-name="Caminho 45" d="M422.27,379.99l3.2.98,2.15-4.97,4.86.86,2.22-3.45,1.75,1.12-2.97,4.62-4.6-.82-2.24,5.17-4.82-1.48Z" transform="translate(-400.002 -144.728)" fill="#63b346"/>
  <path id="Caminho_46" data-name="Caminho 46" d="M647.33,438.79s17.08-57.79,18.45-70.53-8.18-8.8-8.18-8.8,8-24.29,2.23-30-11.06,5-11.06,5-1.76-29.49-7.95-29.5c-11.55,0-11.32,32.16-11.32,32.16s-2.94-12.6-9.12-9.14c-9.32,5.2,4,30.45,4,30.45s-11.87,0-16,6C600.89,375.06,647.33,438.79,647.33,438.79Z" transform="translate(-400.002 -144.728)" fill="#94bf84"/>
  <path id="Caminho_47" data-name="Caminho 47" d="M641.74,431.14s49.26-8.22,60-16.93.11-12.63.11-12.63,24.74-12.66,24.46-21.27-12.58-4.23-12.58-4.23,20.85-23.72,15.91-28.22c-9.19-8.39-33.3,16.26-33.3,16.26s7.16-11.72-.38-13.58c-11.36-2.8-19.75,26.12-19.75,26.12s2.13-11.42-5.71-9.9C656.41,369.49,641.74,431.14,641.74,431.14Z" transform="translate(-400.002 -144.728)" fill="#94bf84"/>
  <path id="Caminho_48" data-name="Caminho 48" d="M670.47,366.76c7.86-1.42,5.71,9.9,5.71,9.9s8.39-28.92,19.75-26.12c7.54,1.86.38,13.58.38,13.58s24.11-24.65,33.3-16.26l-87.7,83.29C643.47,423.2,657.3,369.14,670.47,366.76Z" transform="translate(-400.002 -144.728)" fill="#467f32"/>
  <path id="Caminho_49" data-name="Caminho 49" d="M627.73,437.92s25.94-26.32,39-29.07,10.71,6.54,10.71,6.54,25.92-22.62,31.93-17.14-.5,10.77-.5,10.77,21.59-3.82,24.68,3.25c4.75,10.86-30.75,16.78-30.75,16.78s14.88,1,11.42,7.84C709,447.16,627.73,437.92,627.73,437.92Z" transform="translate(-400.002 -144.728)" fill="#36627f"/>
  <path id="Caminho_50" data-name="Caminho 50" d="M733.55,412.27c-3.09-7.07-24.68-3.25-24.68-3.25s6.5-5.29.5-10.77-31.12,14.06-31.12,14.06,5.92-11.29-7.14-8.55-43.38,34.16-43.38,34.16Z" transform="translate(-400.002 -144.728)" fill="#578ab3"/>
  <path id="Caminho_51" data-name="Caminho 51" d="M586.43,166.45a10,10,0,0,1,4.07,18,6.58,6.58,0,0,0-2.59,3.84l-1.32,5.32a2.9,2.9,0,0,1-3.29,2.16l-3.31-.54a2.9,2.9,0,0,1-2.42-3.1c.46-5.49,1-7.48-.76-9.93a10,10,0,0,1,9.62-15.75Z" transform="translate(-400.002 -144.728)" fill="#f7cc7f"/>
  <path id="Caminho_52" data-name="Caminho 52" d="M585.54,189.7c.57-4.7,1.37-9.67,1.64-11.08,5,.28,3.1-5,.79-2.85a4.31,4.31,0,0,0-1.17,2.35,13.06,13.06,0,0,1-4.77-1.39,6.171,6.171,0,0,0-.13-2.78c-.49-1.12-1.92-1.43-2.49-.34a1.72,1.72,0,0,0-.1,1.37,4.4,4.4,0,0,0,2.22,2c-.26,3.74-.62,7.51-1.08,11.22l.47.06c.45-3.65.81-7.36,1.07-11a13.339,13.339,0,0,0,4.71,1.34c-.34,1.8-1.1,6.65-1.63,11.06Zm4-12.19a2.81,2.81,0,0,1-2.28.64,3.821,3.821,0,0,1,1-2c1.28-1.15,2.04.56,1.3,1.36Zm-8.1-3.37a5.2,5.2,0,0,1,.11,2.34,3.75,3.75,0,0,1-1.82-1.66,1.08,1.08,0,0,1,.56-1.39c.08-.02.98.27,1.17.71Z" transform="translate(-400.002 -144.728)" fill="#fae0b2"/>
  <path id="Caminho_53" data-name="Caminho 53" d="M588,188.15a.651.651,0,0,0,0,.13l-1.32,5.32a2.9,2.9,0,0,1-3.29,2.16l-3.31-.54a2.9,2.9,0,0,1-2.42-3.1c.2-2.44.43-4.19.46-5.6Z" transform="translate(-400.002 -144.728)" fill="#96d9c9"/>
  <path id="Caminho_54" data-name="Caminho 54" d="M592.9,162.48l2.61-4.75a.94.94,0,0,0-.37-1.29,1,1,0,0,0-1.3.37l-2.61,4.76a1,1,0,1,0,1.67.91Z" transform="translate(-400.002 -144.728)" fill="#fae0b2"/>
  <path id="Caminho_55" data-name="Caminho 55" d="M598.61,174l5.69-.49a.95.95,0,1,0-.16-1.89l-5.69.49a.95.95,0,1,0,.16,1.89Z" transform="translate(-400.002 -144.728)" fill="#fae0b2"/>
  <path id="Caminho_56" data-name="Caminho 56" d="M604.25,191.39a1,1,0,0,0,0-1.34,30.9,30.9,0,0,0-4.58-3.72.95.95,0,1,0-1,1.58,29.88,29.88,0,0,1,4.29,3.49.94.94,0,0,0,1.29-.01Z" transform="translate(-400.002 -144.728)" fill="#fae0b2"/>
  <path id="Caminho_57" data-name="Caminho 57" d="M578.84,162.23a1,1,0,0,0,.68-1.17,36.159,36.159,0,0,1-1.18-7.38,1,1,0,0,0-1.9.11,37.815,37.815,0,0,0,1.24,7.76A1,1,0,0,0,578.84,162.23Z" transform="translate(-400.002 -144.728)" fill="#fae0b2"/>
  <path id="Caminho_58" data-name="Caminho 58" d="M573,169.52a.94.94,0,0,0-.64-1.18l-5.91-1.78a1,1,0,1,0-.55,1.82l5.92,1.78a.94.94,0,0,0,1.18-.64Z" transform="translate(-400.002 -144.728)" fill="#fae0b2"/>
  <path id="Caminho_59" data-name="Caminho 59" d="M563.26,185.23a1.149,1.149,0,0,0,.26,0,30.331,30.331,0,0,0,5.93-2.37,1,1,0,0,0-.9-1.68,28.5,28.5,0,0,1-5.54,2.22.95.95,0,0,0,.25,1.86Z" transform="translate(-400.002 -144.728)" fill="#fae0b2"/>
  <path id="Caminho_60" data-name="Caminho 60" d="M476.6,227.24l3-7,7.5-1.54a1.05,1.05,0,0,0,.48-1.83l-5.79-5,.85-7.6a1.05,1.05,0,0,0-1.59-1l-6.56,3.94-7-3.15a1,1,0,0,0-1.46,1.19l1.73,7.45-5.16,5.65a1,1,0,0,0,.68,1.75l7.64.66,3.79,6.65a1,1,0,0,0,1.89-.17Z" transform="translate(-400.002 -144.728)" fill="#f7cc7f"/>
  <path id="Caminho_61" data-name="Caminho 61" d="M429.08,203.07l1.23,4.93,8.17-1.09,2.69,6.99,6.24.18-.09,3.15-8.35-.24-2.55-6.62-8.5,1.14-1.84-7.42Z" transform="translate(-400.002 -144.728)" fill="#63b346"/>
  <path id="Caminho_62" data-name="Caminho 62" d="M501.86,439.43h143.6a10.1,10.1,0,0,0,9.93-10.28V423a10.1,10.1,0,0,0-9.93-10.27H501.86a20.25,20.25,0,0,1,.27,26.35Z" transform="translate(-400.002 -144.728)" fill="#b3413d"/>
  <path id="Caminho_63" data-name="Caminho 63" d="M504.08,415.82h79.65a10.11,10.11,0,0,1,9.93,10.28h0a10.11,10.11,0,0,1-9.93,10.28H504.08a20.36,20.36,0,0,0,0-20.56Z" transform="translate(-400.002 -144.728)" fill="#fae0b2"/>
  <path id="Caminho_64" data-name="Caminho 64" d="M552.31,394.24a.59.59,0,0,1,.59-.84h76c6,0,10.78,4.34,10.78,9.69h0c0,5.34-4.83,9.68-10.78,9.68h-76a.6.6,0,0,1-.59-.85h0A18.52,18.52,0,0,0,552.31,394.24Z" transform="translate(-400.002 -144.728)" fill="#824fb3"/>
  <path id="Caminho_65" data-name="Caminho 65" d="M552.79,395.2h37.66c7,0,12.65,3.64,12.65,8.12s-5.66,8.11-12.65,8.11H552.54A18.44,18.44,0,0,0,552.79,395.2Z" transform="translate(-400.002 -144.728)" fill="#f7cc7f"/>
  <path id="Caminho_66" data-name="Caminho 66" d="M562.52,399.05h4.9c1.06,0,1.91.35,1.91.79v.07h-6.81Z" transform="translate(-400.002 -144.728)" fill="#3c3c3c"/>
  <path id="Caminho_67" data-name="Caminho 67" d="M558.33,401c0-1.09,1.28-2,2.86-2h6.3c-1.2,0-2.17.67-2.17,1.5v21.22L561.87,419l-3.54,2.73Z" transform="translate(-400.002 -144.728)" fill="#3c3c3c"/>
  <path id="Caminho_68" data-name="Caminho 68" d="M566.28,392.7h44.21c3.92,0,7.1-3.76,7.1-8.4h0c0-4.65-3.18-8.41-7.1-8.41H566.28a14.78,14.78,0,0,1,.32,16.34Z" transform="translate(-400.002 -144.728)" fill="#fae0b2"/>
  <path id="Caminho_69" data-name="Caminho 69" d="M617.59,384.3h0c0-4.65-3.26-8.41-7.27-8.41H565.44a.42.42,0,0,1-.38-.44h0a.41.41,0,0,1,.38-.43h71.2c4.43,0,8,4.15,8,9.28h0c0,5.12-3.59,9.27-8,9.27h-71.2a.41.41,0,0,1-.38-.43h0a.42.42,0,0,1,.38-.44h44.88C614.33,392.7,617.59,388.94,617.59,384.3Z" transform="translate(-400.002 -144.728)" fill="#578ab3"/>
  <path id="Caminho_70" data-name="Caminho 70" d="M574,380h4.91c1.05,0,1.91.35,1.91.78v.06H574Z" transform="translate(-400.002 -144.728)" fill="#ff504a"/>
  <path id="Caminho_71" data-name="Caminho 71" d="M569.82,382c0-1.07,1.28-1.94,2.86-1.94H579c-1.2,0-2.17.66-2.17,1.47v20.81l-3.47-2.68-3.55,2.68Z" transform="translate(-400.002 -144.728)" fill="#ff504a"/>
  <path id="Caminho_72" data-name="Caminho 72" d="M495.84,251.5l-6.53-1.71,4.43,58.87,7.83.26-3.95-55.28a2.39,2.39,0,0,0-1.78-2.14Z" transform="translate(-400.002 -144.728)" fill="#184655"/>
  <path id="Caminho_73" data-name="Caminho 73" d="M493.15,310.34a2.26,2.26,0,0,0,.45,0,2.6,2.6,0,0,0,2.14-2.87L491.4,252.1a2.38,2.38,0,0,0-2.55-2.32,2.6,2.6,0,0,0-2.14,2.87L491.05,308a2.43,2.43,0,0,0,2.1,2.34Z" transform="translate(-400.002 -144.728)" fill="#f7cc7f"/>
  <path id="Caminho_74" data-name="Caminho 74" d="M553.22,313.29a.49.49,0,0,1,0,.12h0a3.85,3.85,0,0,1-3.9,3.76l-55.12-4.92a3.86,3.86,0,0,1-3.17-4.4c0-.09,0-.18,0-.28Z" transform="translate(-400.002 -144.728)" fill="#f7cc7f"/>
  <path id="Caminho_75" data-name="Caminho 75" d="M514.84,372.75c3.61,2,14.64-1.51,14.64-1.82.16,3,12.35,32.45,12.35,32.45v9.06s-25.13,1.2-24.77-1,1.71-.77,6.72-5c.45-.37,7.49-2,5.58-6.16C525.53,391.93,517.38,378,514.84,372.75Z" transform="translate(-400.002 -144.728)" fill="#f7a491"/>
  <path id="Caminho_76" data-name="Caminho 76" d="M542.65,412.76H515.14c-1-.1-1.22-.9-.87-1.39.72-1,6-3.39,9.54-5,6.17.72,17-1.65,18-3.05C544.44,406.85,543.21,412.65,542.65,412.76Z" transform="translate(-400.002 -144.728)" fill="#63b346"/>
  <path id="Caminho_77" data-name="Caminho 77" d="M548.69,351.6c.37-1.11-23.69-11.29-24.76-10.13-1.91,2.06,13,40.7,13,40.7L519.8,387.4s-17.8-44.65-17.08-52.81,9.67-17.45,29-11.51S548.69,351.6,548.69,351.6Z" transform="translate(-400.002 -144.728)" fill="#184655"/>
  <path id="Caminho_78" data-name="Caminho 78" d="M498.88,377.83a90.488,90.488,0,0,1,13.54-1c-.5,3.74-2.91,22.93-2.47,24.11a14.45,14.45,0,0,0,5.75,7s-18.7,16.81-19.81,14.87.83-1.68,2.05-8.09c.11-.57,2.81-9.51,3-14.34C501.24,391.18,499,382.93,498.88,377.83Z" transform="translate(-400.002 -144.728)" fill="#f7a491"/>
  <path id="Caminho_79" data-name="Caminho 79" d="M504.87,315c2.61-1.38,9.37-1.43,16.81-.95a171,171,0,0,1,42.61,8.34l9.23,3.05V316s29.37-4.9,30.39,2.36c1.54,10.94-.37,33.14-10.15,38.09-30.39,15.4-73-24.52-73.14-19.3-.2,7-6.13,33.12-7.65,44.54-4.21.08-11.45.07-14.59-.65C497.74,358.69,497.46,319,504.87,315Z" transform="translate(-400.002 -144.728)" fill="#578ab3"/>
  <path id="Caminho_80" data-name="Caminho 80" d="M516.27,408.33l-21,16.74c-.83.54-1.52.07-1.56-.53-.09-1.24,2.48-6.41,4.22-9.87,5.23-3.35,12.13-12.08,12-13.79C512.15,402.74,516.62,407.89,516.27,408.33Z" transform="translate(-400.002 -144.728)" fill="#63b346"/>
  <path id="Caminho_81" data-name="Caminho 81" d="M563.79,223.75c.71-6.43,1.45-12.89,6.79-17.6,4.33-3.82,9.83-4.47,15.27-2.42,15.4,5.78,7.47,19.43,27.11,33.2,6.11,4.28,12.83,7.2,17.43,13,6.43,8.07,4,17.76-1.86,24.24-28,31-59.37-10.86-61.62-20.9C565.24,245.75,563.34,227.89,563.79,223.75Z" transform="translate(-400.002 -144.728)" fill="#333"/>
  <path id="Caminho_82" data-name="Caminho 82" d="M569.49,259.93a84.375,84.375,0,0,1,4.65-7.56c2.38-4.22,8.52-6.35,8.52-6.35s2.05,0,4.41.16a1.88,1.88,0,0,0,.45.78c.88.66,6-.2,9.24,2,11,9.4,8,55,7.09,69.4l-33.49.32s4.22-31-2.58-38.95C563,274.22,566.09,266.18,569.49,259.93Z" transform="translate(-400.002 -144.728)" fill="#63b346"/>
  <path id="Caminho_83" data-name="Caminho 83" d="M584.59,230.59s1.84,13.12,3.12,16.31-7.07,10-14,12.08,2.12-7,1.84-10.45S574,229,574,229Z" transform="translate(-400.002 -144.728)" fill="#f7a491"/>
  <path id="Caminho_84" data-name="Caminho 84" d="M574.33,233.61c-.21-2.67-.36-4.63-.36-4.63l10.62,1.61s.26,1.55.56,3.73C580.85,236.81,577,236,574.33,233.61Z" transform="translate(-400.002 -144.728)" fill="#f47458"/>
  <path id="Caminho_85" data-name="Caminho 85" d="M581.26,206.63A12,12,0,0,1,588,211.5c2.59,3.94,4.36,15.51-4.15,20.92s-15.12-2.24-15.23-9.7S570.13,205.32,581.26,206.63Z" transform="translate(-400.002 -144.728)" fill="#f7a491"/>
  <path id="Caminho_86" data-name="Caminho 86" d="M566.69,220.39c.73,1.8,2.17,2.91,3.22,2.49s1.31-2.22.59-4-2.17-2.92-3.22-2.49S566,218.59,566.69,220.39Z" transform="translate(-400.002 -144.728)" fill="#f7a491"/>
  <path id="Caminho_87" data-name="Caminho 87" d="M580,206.39s5.34,11.93,10,13,4.62,7.07,4.62,7.07-.11-13.87-4.5-17.05A18.446,18.446,0,0,0,580,206.39Z" transform="translate(-400.002 -144.728)" fill="#333"/>
  <path id="Caminho_88" data-name="Caminho 88" d="M588.16,221.87c-.62,1.93,0,3.84,1.26,4.26s2.88-.82,3.49-2.76.06-3.84-1.26-4.26S588.78,219.93,588.16,221.87Z" transform="translate(-400.002 -144.728)" fill="#f7a491"/>
  <path id="Caminho_89" data-name="Caminho 89" d="M528.25,308c2-.73,5-.82,5-1.08-.2-1.08-9.08,2.36-7.88.8.67-.87,7.31-4,8.93-3.45s11.85,3.38,11.85,3.38l28.12-6.58s7.1-16.09,7.8-29.92a38.78,38.78,0,0,1,15,5.06c-2.46,13.23-8.44,34.66-15.05,38.68-2.78,1.69-36-2-36-2s-7.31-.52-8.5-1c-.91-.34-3.24-1.66-4.51-2-2.89-.82-8,1.23-8.05.66C524.89,310.16,526.2,308.77,528.25,308Z" transform="translate(-400.002 -144.728)" fill="#f7a491"/>
  <path id="Caminho_90" data-name="Caminho 90" d="M581.84,256.41c.27-4.26,1.89-8.37,6.43-9.69a9.2,9.2,0,0,1,8.21,1.8c2.67,2.18,3.42,5.67,3.41,9A127.788,127.788,0,0,1,598,280.19a48.77,48.77,0,0,0-16.92-5.31C581.05,274.83,581.49,262,581.84,256.41Z" transform="translate(-400.002 -144.728)" fill="#94bf84"/>
  <path id="Caminho_91" data-name="Caminho 91" d="M669,264.44l43.6-8.1a1.62,1.62,0,0,0,1.29-1.88l-5.47-29.27a1.6,1.6,0,0,0-1.88-1.28L662.92,232a1.59,1.59,0,0,0-1.29,1.87l5.46,29.27a1.61,1.61,0,0,0,1.91,1.3Z" transform="translate(-400.002 -144.728)" fill="#f7cc7f"/>
  <rect id="Retângulo_5" data-name="Retângulo 5" width="16.72" height="7.75" rx="1.61" transform="matrix(0.983, -0.183, 0.183, 0.983, 286.728, 78.88)" fill="#f7cc7f"/>
  <path id="Caminho_92" data-name="Caminho 92" d="M667,263.32a1.62,1.62,0,0,0,1.85,1.14l43.88-8.15a1.6,1.6,0,0,0,1.31-1.72l-2.29-26.24a1.63,1.63,0,0,0-.63-1.14,1.66,1.66,0,0,0-1.27-.3L661.08,236a1.6,1.6,0,0,0-1.26,2Z" transform="translate(-400.002 -144.728)" fill="#fae0b2"/>
  <path id="Caminho_93" data-name="Caminho 93" d="M467.02,167.47l7.47,2.03,1.61-9.03-2.45-.43-1.13,6.36-4.84-1.32Z" transform="translate(-400.002 -144.728)" fill="#63b346"/>
  <path id="Caminho_94" data-name="Caminho 94" d="M704.86,291.44a11.54,11.54,0,0,0-6,1.54,8.67,8.67,0,0,0-3.22,3.31l.35.24a7.87,7.87,0,0,1,4-2.46,9.8,9.8,0,0,1,4.48-.05Z" transform="translate(-400.002 -144.728)" fill="#355389"/>
  <path id="Caminho_95" data-name="Caminho 95" d="M695.8,296.41s11.39,1.9,10.33,10.78S693.05,323,682.32,317.48c-14.43-7.38-8.73-26.17,1.54-27.62S695.8,296.41,695.8,296.41Z" transform="translate(-400.002 -144.728)" fill="#ff504a"/>
  <path id="Caminho_96" data-name="Caminho 96" d="M691,292.5s-3-3-9.49-.27-7,15.68-1.17,14.93S695.61,294.37,691,292.5Z" transform="translate(-400.002 -144.728)" fill="#f48c7f"/>
  <path id="Caminho_97" data-name="Caminho 97" d="M612.6,174.54l46.85,16.68a2.91,2.91,0,0,0,3.71-1.76l8.65-24.19a2.9,2.9,0,0,0-1.76-3.7L623.2,144.9a2.9,2.9,0,0,0-3.71,1.75l-8.65,24.19A2.9,2.9,0,0,0,612.6,174.54Z" transform="translate(-400.002 -144.728)" fill="#578ab3"/>
  <path id="Caminho_98" data-name="Caminho 98" d="M643.66,168.32a9.25,9.25,0,1,0,4.763-5.271,9.28,9.28,0,0,0-4.763,5.271Z" transform="translate(-400.002 -144.728)" fill="#fff"/>
  <path id="Caminho_99" data-name="Caminho 99" d="M651.07,167a2.73,2.73,0,1,0,1.4-1.558A2.74,2.74,0,0,0,651.07,167Z" transform="translate(-400.002 -144.728)" fill="#86b1f2"/>
  <path id="Caminho_100" data-name="Caminho 100" d="M646.61,174.65l8.24,2.93.28-.78a3.39,3.39,0,0,0-2.06-4.33l-1.84-.66a3.39,3.39,0,0,0-4.34,2.06Z" transform="translate(-400.002 -144.728)" fill="#86b1f2"/>
  <path id="Caminho_101" data-name="Caminho 101" d="M642.5,163.27a1.18,1.18,0,0,0,.4-2.3l-20.48-7.29a1.34,1.34,0,0,0-.4-.07,1.19,1.19,0,0,0-.4,2.3l20.48,7.29a1.4,1.4,0,0,0,.4.07Z" transform="translate(-400.002 -144.728)" fill="#fff"/>
  <path id="Caminho_102" data-name="Caminho 102" d="M637,168.36a1.178,1.178,0,0,0,.4-2.29l-16-5.7a1.391,1.391,0,0,0-.4-.06,1.19,1.19,0,0,0-1.12.78,1.17,1.17,0,0,0,0,.9,1.15,1.15,0,0,0,.67.61l16,5.69a1,1,0,0,0,.45.07Z" transform="translate(-400.002 -144.728)" fill="#fff"/>
  <path id="Caminho_103" data-name="Caminho 103" d="M539.81,357H652.93a6.35,6.35,0,0,1,6.36,6.35v5.33a6.35,6.35,0,0,1-6.36,6.35H539.81l.06-.06A12.91,12.91,0,0,0,539.81,357Z" transform="translate(-400.002 -144.728)" fill="#ff504a"/>
  <path id="Caminho_104" data-name="Caminho 104" d="M541.81,359.66h60.48a6.35,6.35,0,0,1,6.36,6.35h0a6.35,6.35,0,0,1-6.36,6.34H541.81a12.9,12.9,0,0,0,0-12.69Z" transform="translate(-400.002 -144.728)" fill="#fae0b2"/>
  <path id="Caminho_105" data-name="Caminho 105" d="M447.23,357.51,455.8,336a2.1,2.1,0,0,0-1.18-2.73L423.77,321a2.12,2.12,0,0,0-2.75,1.17l-8.57,21.47a2.1,2.1,0,0,0,1.18,2.73l30.85,12.27a2.12,2.12,0,0,0,2.75-1.13Z" transform="translate(-400.002 -144.728)" fill="#fae0b2"/>
  <path id="Caminho_106" data-name="Caminho 106" d="M418.12,345.1l7.7-19.29a.6.6,0,0,0-.34-.79h0a.6.6,0,0,0-.78.34L417,344.65a.6.6,0,0,0,.34.78h0a.6.6,0,0,0,.78-.33Z" transform="translate(-400.002 -144.728)" fill="#466eb6"/>
  <path id="Caminho_107" data-name="Caminho 107" d="M421.79,342.56l6.33-15.84a.62.62,0,0,0-.34-.79h0a.61.61,0,0,0-.79.34l-6.33,15.84a.6.6,0,0,0,.34.78h0a.6.6,0,0,0,.79-.33Z" transform="translate(-400.002 -144.728)" fill="#466eb6"/>
  <path id="Caminho_108" data-name="Caminho 108" d="M422.7,346.92l7.71-19.29a.62.62,0,0,0-.34-.79h0a.62.62,0,0,0-.79.34l-7.7,19.29a.6.6,0,0,0,.34.79h0a.6.6,0,0,0,.78-.34Z" transform="translate(-400.002 -144.728)" fill="#466eb6"/>
  <path id="Caminho_109" data-name="Caminho 109" d="M426.75,343.43l5.95-14.89a.6.6,0,0,0-.34-.78h0a.6.6,0,0,0-.79.33L425.63,343a.61.61,0,0,0,.34.79h0a.6.6,0,0,0,.78-.36Z" transform="translate(-400.002 -144.728)" fill="#466eb6"/>
  <path id="Caminho_110" data-name="Caminho 110" d="M418.32,323.75l.16-.39a.28.28,0,0,1,.35-.16l2.93,1.16a.29.29,0,0,1,.14.36l-.16.39a.28.28,0,0,1-.35.16l-2.92-1.16A.28.28,0,0,1,418.32,323.75Z" transform="translate(-400.002 -144.728)" fill="#355389"/>
  <path id="Caminho_111" data-name="Caminho 111" d="M417.66,325.41l.16-.39a.27.27,0,0,1,.34-.16l2.93,1.17a.26.26,0,0,1,.14.35l-.15.39a.27.27,0,0,1-.35.16l-2.93-1.16A.28.28,0,0,1,417.66,325.41Z" transform="translate(-400.002 -144.728)" fill="#355389"/>
  <path id="Caminho_112" data-name="Caminho 112" d="M417,327.07l.15-.39a.28.28,0,0,1,.35-.16l2.93,1.17a.26.26,0,0,1,.14.35l-.16.39a.26.26,0,0,1-.34.16l-2.93-1.16a.27.27,0,0,1-.14-.36Z" transform="translate(-400.002 -144.728)" fill="#355389"/>
  <path id="Caminho_113" data-name="Caminho 113" d="M416.33,328.73l.16-.38a.28.28,0,0,1,.35-.17l2.92,1.17a.27.27,0,0,1,.15.35l-.16.39a.26.26,0,0,1-.35.16l-2.93-1.16A.28.28,0,0,1,416.33,328.73Z" transform="translate(-400.002 -144.728)" fill="#355389"/>
  <path id="Caminho_114" data-name="Caminho 114" d="M415.67,330.39l.15-.38a.28.28,0,0,1,.35-.17L419.1,331a.26.26,0,0,1,.14.36l-.15.38a.28.28,0,0,1-.35.17l-2.93-1.17A.27.27,0,0,1,415.67,330.39Z" transform="translate(-400.002 -144.728)" fill="#355389"/>
  <path id="Caminho_115" data-name="Caminho 115" d="M415,332.06l.15-.39a.27.27,0,0,1,.35-.16l2.93,1.16a.27.27,0,0,1,.14.36l-.16.39a.27.27,0,0,1-.34.16l-2.93-1.17a.26.26,0,0,1-.14-.35Z" transform="translate(-400.002 -144.728)" fill="#355389"/>
  <path id="Caminho_116" data-name="Caminho 116" d="M414.34,333.72l.16-.39a.27.27,0,0,1,.35-.16l2.92,1.16a.27.27,0,0,1,.14.36l-.15.39a.28.28,0,0,1-.35.16l-2.93-1.17A.27.27,0,0,1,414.34,333.72Z" transform="translate(-400.002 -144.728)" fill="#355389"/>
  <path id="Caminho_117" data-name="Caminho 117" d="M413.68,335.38l.15-.39a.28.28,0,0,1,.35-.16l2.93,1.16a.28.28,0,0,1,.14.36l-.15.39a.28.28,0,0,1-.35.16l-2.93-1.16a.27.27,0,0,1-.14-.36Z" transform="translate(-400.002 -144.728)" fill="#355389"/>
  <path id="Caminho_118" data-name="Caminho 118" d="M413,337l.15-.39a.28.28,0,0,1,.35-.16l2.93,1.17a.27.27,0,0,1,.14.35l-.16.39a.27.27,0,0,1-.35.16l-2.92-1.16A.27.27,0,0,1,413,337Z" transform="translate(-400.002 -144.728)" fill="#355389"/>
  <path id="Caminho_119" data-name="Caminho 119" d="M412.35,338.7l.16-.39a.27.27,0,0,1,.34-.16l2.93,1.17a.26.26,0,0,1,.14.35l-.15.39a.27.27,0,0,1-.35.16l-2.93-1.16A.28.28,0,0,1,412.35,338.7Z" transform="translate(-400.002 -144.728)" fill="#355389"/>
  <path id="Caminho_120" data-name="Caminho 120" d="M411.69,340.36l.15-.38a.28.28,0,0,1,.35-.17l2.93,1.17a.26.26,0,0,1,.14.35l-.16.39a.25.25,0,0,1-.34.16l-2.93-1.16a.26.26,0,0,1-.14-.36Z" transform="translate(-400.002 -144.728)" fill="#355389"/>
  <path id="Caminho_121" data-name="Caminho 121" d="M411,342l.16-.39a.28.28,0,0,1,.35-.17l2.93,1.17a.28.28,0,0,1,.14.36l-.16.38a.28.28,0,0,1-.35.17l-2.93-1.17A.27.27,0,0,1,411,342Z" transform="translate(-400.002 -144.728)" fill="#355389"/>
  <path id="Caminho_122" data-name="Caminho 122" d="M402.93,340.31l12.25,17.41a.27.27,0,0,1,.06.12l1.25,3.83a.48.48,0,0,1-.74.53l-3.28-2.47a.35.35,0,0,1-.1-.11l-12.28-17.44a.48.48,0,0,1,.13-.68l2.06-1.31a.48.48,0,0,1,.65.12Z" transform="translate(-400.002 -144.728)" fill="#ff504a"/>
  <path id="Caminho_123" data-name="Caminho 123" d="M412.38,359.64v.05l3.16,2.37.86-.57-1.18-3.63a14.861,14.861,0,0,0-2.84,1.78Z" transform="translate(-400.002 -144.728)" fill="#f7cc7f"/>
  <path id="Caminho_124" data-name="Caminho 124" d="M527,151.94c-1.76,1.41-4.83,5.93-8.74,9.1-2.29,1.85-4,1.38-7,1.73-13.87,1.67-10.11,4.5-11.77,4.78.47,1.08,4.79,10.24,5.6,12.09a3.38,3.38,0,0,0,3.89,2.22c2.87-.4,5.76-.69,8.58-1.3,7.24-1.57,11.26-5.18,16.45-9.56a3.39,3.39,0,0,0,1-4.26A118.142,118.142,0,0,0,527,151.94Z" transform="translate(-400.002 -144.728)" fill="#8a8a8a"/>
  <path id="Caminho_125" data-name="Caminho 125" d="M498,178.57c.06,3-.17,3.62,1.12,3.16a18.577,18.577,0,0,0,2.28-1c.52-.27.54-.63.12-1.05-.62-.62-1.25-1.22-1.87-1.81a2.67,2.67,0,0,0-1.17-3.21c-.23-.13-.06.15-2-4.28,6.38-.79,10.89-1.32,18.67-2.27a10.55,10.55,0,0,0,5.55-2.41l16.68-13.94a1.52,1.52,0,0,0,.25-2.26A1.72,1.72,0,0,0,536,149l-21,2.59a11.49,11.49,0,0,0-6.17,2.64q-8.19,6.86-16.41,13.68c-.75.62-1,1.2-.69,1.89a1.47,1.47,0,0,0,1.88.93.9.9,0,0,1,1.23.69c1.07,2.89,1.82,3.52,1.56,4.58a2.9,2.9,0,0,0,1.6,2.57Z" transform="translate(-400.002 -144.728)" fill="#4a4a4a"/>
  <path id="Caminho_126" data-name="Caminho 126" d="M469.11,383.32l-3.18,3a84.21,84.21,0,0,0-18.07,25l-.49,1s-8.31.74-9.48-6.77h0a125,125,0,0,0,18.26-26.75l1.51-3.51Z" transform="translate(-400.002 -144.728)" fill="#63b346"/>
  <path id="Caminho_127" data-name="Caminho 127" d="M457.66,375.31c-.4.58,1.83,2.84,5,5s6.06,3.53,6.47,2.95-1.84-2.87-5-5.07S458.07,374.72,457.66,375.31Z" transform="translate(-400.002 -144.728)" fill="#86b1f2"/>
  <path id="Caminho_128" data-name="Caminho 128" d="M457.65,375.33h0s6.33,5.34,8.94,5.89l-.8,1.09a32.131,32.131,0,0,1-3.15-1.95C459.52,378.17,457.31,375.94,457.65,375.33Z" transform="translate(-400.002 -144.728)" fill="#355389"/>
  <path id="Caminho_129" data-name="Caminho 129" d="M449.19,390.85c0,.92.35,4.9,7,6.56-.44.6-.87,1.19-1.29,1.8-4.2-1.24-6.08-3.39-6.93-5-.14-.26-.3-.61-.41-.87C448.1,392.49,448.65,391.68,449.19,390.85Z" transform="translate(-400.002 -144.728)" fill="#b75742"/>
  <path id="Caminho_130" data-name="Caminho 130" d="M455.57,396.24l9.77-.35-2.32,1.96,1.38,2.5L455.17,398Z" transform="translate(-400.002 -144.728)" fill="#b75742"/>
  <path id="Caminho_131" data-name="Caminho 131" d="M454.68,398.5l3.47,6.03-2.44-.93-.94,1.92-1.63-6.34Z" transform="translate(-400.002 -144.728)" fill="#b75742"/>
  <path id="Caminho_132" data-name="Caminho 132" d="M453.36,400.14a3.2,3.2,0,1,0-2.88-3.41,3.16,3.16,0,0,0,2.88,3.41Z" transform="translate(-400.002 -144.728)" fill="#f47458"/>
  <path id="Caminho_133" data-name="Caminho 133" d="M432.64,263.34,453.2,245c1.33-1.19.78-3.64-1.07-4.68l-16.4-9.27a2.58,2.58,0,0,0-3,.14L412.17,249.5c-1.33,1.19-.78,3.63,1.07,4.67l16.4,9.27a2.56,2.56,0,0,0,3-.1Z" transform="translate(-400.002 -144.728)" fill="#8a8a8a"/>
  <path id="Caminho_134" data-name="Caminho 134" d="M433.61,248.78l1.72-14.06a1.28,1.28,0,0,0-.88-1.29.82.82,0,0,0-1.12.67L431.75,247l-15.58,3.76a.86.86,0,0,0-.53,1.22,1.2,1.2,0,0,0,1.32.78Z" transform="translate(-400.002 -144.728)" fill="#fff"/>
  <path id="Caminho_135" data-name="Caminho 135" d="M721.17,440.27c.66,0,1.2.76,1.2,1.7s-.54,1.69-1.35.55H476.07c-.31,0-.57-.5-.57-1.12h0c0-.62.25-1.13.57-1.13Z" transform="translate(-400.002 -144.728)" fill="#63b346"/>
  <path id="Caminho_136" data-name="Caminho 136" d="M702.07,184.37l-2.13,4.19-4.8-.15-2.05,4.87-5.06-1.74-2.56,5.4-4.86-1.03-3.31,4.8,1.82,1.26,2.48-3.59,5.12,1.08,2.46-5.19,5.15,1.76,2.26-5.37,4.69.15,1.97-3.89,3.06.74.52-2.14Z" transform="translate(-400.002 -144.728)" fill="#63b346"/>
  <path id="Caminho_137" data-name="Caminho 137" d="M444.97,291.67l-4.37,1.77-3.51-3.27-4.75,2.33-2.68-4.63-5.48,2.4-2.99-3.96-5.66,1.44.55,2.14,4.23-1.08,3.15,4.18,5.28-2.3,2.71,4.7,5.25-2.57,3.43,3.19,4.05-1.64,1.81,2.56,1.81-1.27Z" transform="translate(-400.002 -144.728)" fill="#63b346"/>
</svg>
