<svg id="Componente_11_1" data-name="Componente 11 – 1" xmlns="http://www.w3.org/2000/svg" width="141.992" height="169.02" viewBox="0 0 141.992 169.02">
  <path id="Caminho_8406" data-name="Caminho 8406" d="M723.23,1266.15c-51.43-6.14-64.69-41.56-64.69-41.56s-21.22,31.3-72.65,25.17c0,0-27.65,97.07,52.48,143.85C727.26,1367,723.23,1266.15,723.23,1266.15Z" transform="translate(-581.266 -1224.59)" fill="#888989"/>
  <path id="Caminho_8407" data-name="Caminho 8407" d="M657.87,1225.49c-3.94,5.06-25.75,29.78-72,24.27,0,0-27.52,96.63,52,143.54Z" transform="translate(-581.266 -1224.59)" fill="#c9c8c8"/>
  <path id="Caminho_8408" data-name="Caminho 8408" d="M595.22,1266.61c28.39.49,47.7-9.41,59.29-18.34,9.22,11.36,25.75,25.43,53.49,31.47a151.3,151.3,0,0,1-8.12,38.8c-11.17,31.24-31.64,52.36-60.87,62.87-26-16.94-41.1-42.2-44.81-75.17a151.692,151.692,0,0,1,1.02-39.63Z" transform="translate(-581.266 -1224.59)" fill="#fff"/>
  <path id="Caminho_8760" data-name="Caminho 8760" d="M645.52,1336l-21.84-2.44c-2-.22-2.54-.9-2.32-2.9q1.33-12,2.68-24c.23-2,.94-2.6,3-2.38,1.09.12,2.19.2,3.26.38.71.12,1,0,1-.79.28-2.93.62-5.86,1-8.78a17.681,17.681,0,1,1,35.11,4.22c-.29,2.78-.58,5.56-.94,8.33-.1.78,0,1.15.89,1.17a29.615,29.615,0,0,1,3.37.35c1.81.21,2.42,1,2.22,2.8-.53,4.85-1.08,9.69-1.62,14.53l-1.05,9.34c-.25,2.29-.89,2.81-3.14,2.56Zm3.25-29.26c3.3.37,6.6.71,9.9,1.13.74.09,1-.1,1-.83.18-2.1.44-4.2.68-6.3a18.645,18.645,0,0,0,.14-5.06,10.79,10.79,0,0,0-21.11-1c-.79,3.27-.8,6.66-1.32,10-.13.84.17,1,.91,1.06,3.28.26,6.54.66,9.8,1.02ZM651,1330c-.73-2.84-1.4-5.6-2.16-8.33-.21-.76-.09-1.07.64-1.4a3.76,3.76,0,0,0,2.09-4.12,3.92,3.92,0,0,0-7.48-.87,3.73,3.73,0,0,0,1.08,4.48c.72.53.69.88.3,1.59-1.33,2.49-2.58,5-3.89,7.6Z" transform="translate(-581.266 -1224.59)" fill="#63b346"/>
</svg>
