<svg id="Componente_18_1" data-name="Componente 18 – 1" xmlns="http://www.w3.org/2000/svg" width="24.909" height="30.77" viewBox="0 0 24.909 30.77">
  <g id="Grupo_1007" data-name="Grupo 1007" transform="translate(-535.531 -670.38)" opacity="0.5">
    <path id="Caminho_7769" data-name="Caminho 7769" d="M560.44,695.93a5.21,5.21,0,0,1-5.21,5.2h-14.5a5.21,5.21,0,0,1-4.29-8.15l2.45-3.56a12.344,12.344,0,0,1,1.85-.11c1.29,0,2.63.17,4,.23,3.4.18,6.77-.62,10.17-.75h1.77l2.89,4.2a5.18,5.18,0,0,1,.87,2.94Z" fill="#578ab3"/>
  </g>
  <path id="Caminho_7770" data-name="Caminho 7770" d="M559.52,693l-2.89-4.2-4.25-6.19v-7.83a1.46,1.46,0,0,0,1.46-1.47v-1.46a1.46,1.46,0,0,0-1.46-1.47h-8.79a1.47,1.47,0,0,0-1.47,1.47v1.46a1.47,1.47,0,0,0,1.47,1.47v7.83l-4.7,6.83L536.44,693a5.21,5.21,0,0,0,4.29,8.15h14.5a5.2,5.2,0,0,0,4.29-8.15Zm-15.93-21.15h8.79v1.46h-8.79Zm11.64,27.84h-14.5a3.74,3.74,0,0,1-3.08-5.86l3.09-4.5,4.31-6.27v-8.28h5.86v1.46H548v1.47h2.93v1.46h-1.46v1.47h1.46v1.46H548v1.47h3.28l3.6,5.24,3.45,5a3.74,3.74,0,0,1-3.08,5.86Z" transform="translate(-535.531 -670.38)" fill="#3c3c3c"/>
</svg>
