<svg id="Componente_3_1" data-name="Componente 3 – 1" xmlns="http://www.w3.org/2000/svg" width="81.563" height="58.656" viewBox="0 0 81.563 58.656">
  <path id="Caminho_990" data-name="Caminho 990" d="M437.7,648.4l-38.23-16.56a2.53,2.53,0,0,0-2,0L359.22,648.4a2.55,2.55,0,0,0,0,4.68L373,659v16c0,8.57,11.19,15.29,25.48,15.29s25.48-6.72,25.48-15.29V659l2.55-1.11V685.1a2.55,2.55,0,1,0,5.1,0V655.72l6.11-2.64a2.55,2.55,0,0,0-.02-4.68ZM398.46,637l31.81,13.79-2.52,1.09-29-3.62a2.55,2.55,0,1,0-.63,5.06l20.41,2.55-20.09,8.7-31.82-13.78Zm20.38,38c0,2.4-2,4.87-5.4,6.78-8.19,4.54-21.75,4.56-30,0-3.44-1.91-5.41-4.38-5.41-6.78V661.24l19.38,8.4a2.53,2.53,0,0,0,2,0l19.37-8.4Z" transform="translate(-357.683 -631.634)" fill="#3c3c3c"/>
</svg>
