<svg id="Componente_13_1" data-name="Componente 13 – 1" xmlns="http://www.w3.org/2000/svg" width="33.992" height="30.943" viewBox="0 0 33.992 30.943">
  <path id="Caminho_7796" data-name="Caminho 7796" d="M103.61,729.77a2.35,2.35,0,0,1,2.76,1.38,6.84,6.84,0,0,1,.38,3.34,7,7,0,0,1,3.41.63,2.34,2.34,0,0,1,1.55,1.82,2.126,2.126,0,0,1-1.89,1.86c-.94.19-1.94.08-2.87.33a.611.611,0,0,0-.31.18.62.62,0,0,0-.07.43,6.3,6.3,0,0,1-.22,2.63A2.31,2.31,0,0,1,104.4,744a2.34,2.34,0,0,1-2.1-1.81,6.68,6.68,0,0,1,0-2.95l-1.81-.27a6.111,6.111,0,0,1-2-.53,2.08,2.08,0,0,1-1.16-1.61c-.13-2.43,3.48-1.34,4.64-2.32C103.37,733.31,101.6,730.57,103.61,729.77Z" transform="translate(-78.134 -728.897)" fill="#5f559f" opacity="0.5"/>
  <path id="Caminho_7797" data-name="Caminho 7797" d="M79.67,748.54a2.39,2.39,0,0,1,2.8-1.36,10.53,10.53,0,0,1,3.27,2.65c.77-.89,1.25-1.76,2.35-2.16.79-.29,2.91-1.07,3.52-.49s.22,2.56-.3,3.37-2.17,1.39-2.64,2.22a.57.57,0,0,0-.1.35c0,.15.14.26.25.36.67.58,2.42,1.55,2.79,2.35s.61,2.07,0,2.71-3.23.14-4.1-.34a6.73,6.73,0,0,1-2.06-2.12L84,757.18c-.56.41-1,1.5-1.65,1.7a2.77,2.77,0,0,1-2.3-.12c-1.82-1.62,1.72-4.28,1.84-5.79C82,751.2,78.82,750.52,79.67,748.54Z" transform="translate(-78.134 -728.897)" fill="#5f559f" opacity="0.5"/>
  <path id="Caminho_7798" data-name="Caminho 7798" d="M90,759.84a2.64,2.64,0,0,1-1.87-.78l-2.34-2.35-2.35,2.35a2.645,2.645,0,1,1-3.74-3.74L82.07,753l-2.34-2.35a2.645,2.645,0,0,1,3.74-3.74l2.35,2.35,2.34-2.35a2.645,2.645,0,1,1,3.74,3.74L89.56,753l2.34,2.35a2.65,2.65,0,0,1-1.9,4.49Zm-4.21-4.64,3.1,3.1a1.55,1.55,0,0,0,1.11.46,1.52,1.52,0,0,0,1.11-.46,1.56,1.56,0,0,0,0-2.22L88,753l3.1-3.11a1.54,1.54,0,0,0,.47-1.11,1.58,1.58,0,0,0-2.69-1.11l-3.1,3.11-3.11-3.11a1.58,1.58,0,0,0-2.22,0,1.56,1.56,0,0,0,0,2.22l3.1,3.11-3.1,3.11a1.53,1.53,0,0,0-.46,1.11,1.55,1.55,0,0,0,.46,1.11,1.53,1.53,0,0,0,1.11.46,1.55,1.55,0,0,0,1.11-.46Z" transform="translate(-78.134 -728.897)" fill="#3c3c3c"/>
  <path id="Caminho_7799" data-name="Caminho 7799" d="M90.91,742.26H80.72a2.43,2.43,0,1,1,0-4.85H90.91a2.54,2.54,0,0,1,2.65,2.42,2.3,2.3,0,0,1-.8,1.74,2.77,2.77,0,0,1-1.85.69Zm-10.19-3.78a1.37,1.37,0,1,0,0,2.71H90.91a1.7,1.7,0,0,0,1.14-.42,1.28,1.28,0,0,0,.44-.94,1.48,1.48,0,0,0-1.58-1.35Z" transform="translate(-78.134 -728.897)" fill="#3c3c3c"/>
  <path id="Caminho_7800" data-name="Caminho 7800" d="M90.91,736.2H80.72a2.43,2.43,0,1,1,0-4.85H90.91a2.55,2.55,0,0,1,2.65,2.43,2.28,2.28,0,0,1-.8,1.73A2.72,2.72,0,0,1,90.91,736.2Zm-10.19-3.78a1.37,1.37,0,1,0,0,2.71H90.91a1.7,1.7,0,0,0,1.14-.42,1.25,1.25,0,0,0,.44-.93,1.48,1.48,0,0,0-1.58-1.36Z" transform="translate(-78.134 -728.897)" fill="#3c3c3c"/>
  <path id="Caminho_7801" data-name="Caminho 7801" d="M109.54,755.4H99.35a2.43,2.43,0,1,1,0-4.85h10.19a2.43,2.43,0,1,1,0,4.85Zm-10.19-3.78a1.37,1.37,0,1,0,0,2.7h10.19a1.37,1.37,0,1,0,0-2.7Z" transform="translate(-78.134 -728.897)" fill="#3c3c3c"/>
  <path id="Caminho_7802" data-name="Caminho 7802" d="M104.45,744.54a2.65,2.65,0,0,1-2.65-2.64v-2.45H99.35a2.65,2.65,0,0,1,0-5.29h2.45v-2.45a2.65,2.65,0,1,1,5.29,0v2.45h2.45a2.65,2.65,0,0,1,0,5.29h-2.45v2.45A2.64,2.64,0,0,1,104.45,744.54Zm-5.1-9.31a1.58,1.58,0,0,0,0,3.15h3.52v3.52a1.58,1.58,0,0,0,3.15,0v-3.52h3.52a1.58,1.58,0,0,0,0-3.15H106v-3.52a1.58,1.58,0,0,0-3.15,0v3.52Z" transform="translate(-78.134 -728.897)" fill="#3c3c3c"/>
</svg>
