<svg id="Componente_11_1" data-name="Componente 11 – 1" xmlns="http://www.w3.org/2000/svg" width="60.834" height="61.086" viewBox="0 0 60.834 61.086">
  <path id="Caminho_7127" data-name="Caminho 7127" d="M144.75,951.22v2.55a.9.9,0,0,1-1.79,0v-2.55a1.08,1.08,0,1,0-2.16,0v7.72a.9.9,0,0,1-1.79,0V949a1.09,1.09,0,0,0-2.17,0v9.94a.89.89,0,1,1-1.78,0V946.12a1.09,1.09,0,0,0-2.17,0v12.81a.89.89,0,0,1-1.78,0V948.36a1.09,1.09,0,0,0-2.17,0v12.32a8.93,8.93,0,0,1,4.34,2.51l.24.25a.895.895,0,1,1-1.3,1.23l-.24-.25a7,7,0,0,0-5.1-2.2H126a.89.89,0,0,1-.68-.31l-2.74-3.19a1.17,1.17,0,0,0-.87-.42,1.19,1.19,0,0,0-.91.35,1.23,1.23,0,0,0-.18,1.5l4.62,7.53a8.18,8.18,0,0,0,3.55,3.14.89.89,0,0,1,.53.81v4h11v-4a.92.92,0,0,1,.26-.63,7.93,7.93,0,0,0,2.34-5.65v-7.78a.9.9,0,0,1,1.79,0v7.78a9.69,9.69,0,0,1-2.6,6.64v3.79a2.25,2.25,0,0,1,1.38,2.08v1.57a2.35,2.35,0,0,1,1.22,2.06v8.24a.9.9,0,0,1-1.79,0v-8.24a.58.58,0,0,0-.58-.58h-15a.59.59,0,0,0-.59.58v8.24a.89.89,0,1,1-1.78,0v-8.24a2.35,2.35,0,0,1,1.22-2.06v-1.57a2.26,2.26,0,0,1,1.37-2.08v-3.6a9.76,9.76,0,0,1-3.81-3.57l-4.62-7.53a3.021,3.021,0,0,1,4.84-3.57l2.47,2.87h.72V948.36a2.88,2.88,0,0,1,4-2.65,2.87,2.87,0,0,1,5.71.41v.21a3,3,0,0,1,1.09-.21,2.88,2.88,0,0,1,2.84,2.45,2.88,2.88,0,0,1,4,2.65Z" transform="translate(-118.689 -929.584)" fill="#63b346"/>
  <path id="Caminho_7128" data-name="Caminho 7128" d="M171.71,984.14v5.59a.89.89,0,0,1-1.78,0v-5.59a.89.89,0,1,1,1.78,0Z" transform="translate(-118.689 -929.584)" fill="#63b346"/>
  <path id="Caminho_7129" data-name="Caminho 7129" d="M179,951.51l-5.73,9.34a12,12,0,0,1-4.75,4.41V970a2.59,2.59,0,0,1,1.7,2.43v1.78a2.72,2.72,0,0,1,1.51,2.44v3.68a.9.9,0,1,1-1.79,0v-3.68a.94.94,0,0,0-.93-.94H150.32a.94.94,0,0,0-.94.94v13.08a.9.9,0,0,1-1.79,0V976.65a2.74,2.74,0,0,1,1.51-2.44v-1.78a2.59,2.59,0,0,1,1.72-2.43v-4.93a11.86,11.86,0,0,1-3.23-8.15V939.38a3.35,3.35,0,0,1,3.35-3.34,3.309,3.309,0,0,1,1.56.39,3.35,3.35,0,0,1,3.34-3.15,3.31,3.31,0,0,1,1.56.39v-.61a3.341,3.341,0,0,1,6.68-.17,3.34,3.34,0,0,1,4.91,3v3a.9.9,0,1,1-1.79,0v-3a1.56,1.56,0,1,0-3.11,0V949a.9.9,0,0,1-1.79,0V933.06a1.56,1.56,0,0,0-3.12,0V949a.89.89,0,0,1-1.78,0V936.62a1.56,1.56,0,1,0-3.12,0V949a.89.89,0,0,1-1.78,0v-9.57a1.56,1.56,0,1,0-3.12,0v17.54a10.09,10.09,0,0,0,3,7.16.86.86,0,0,1,.26.63v5.14h14.11v-5.14a.92.92,0,0,1,.52-.82,10.22,10.22,0,0,0,4.5-4l5.73-9.33a1.71,1.71,0,0,0-.25-2.12,1.67,1.67,0,0,0-1.28-.51,1.72,1.72,0,0,0-1.25.6l-3.39,4a.89.89,0,0,1-.68.31h-1.07a9,9,0,0,0-6.48,2.79l-.3.31a.891.891,0,1,1-1.3-1.22l.3-.32a10.74,10.74,0,0,1,5.44-3.08v-8.64a.9.9,0,0,1,1.79,0v8.39h1.21l3.13-3.64a3.51,3.51,0,0,1,5.65,4.12Z" transform="translate(-118.689 -929.584)" fill="#63b346"/>
  <path id="Caminho_7142" data-name="Caminho 7142" d="M178.47,947.19a3.51,3.51,0,0,0-5.14.2L170.2,951h-1.21v-8.39a.9.9,0,0,0-1.79,0v8.64a10.74,10.74,0,0,0-5.44,3.08l-.3.32a.891.891,0,0,0,1.3,1.22l.3-.31a9,9,0,0,1,6.48-2.79h1.07a.89.89,0,0,0,.68-.31l3.39-4a1.72,1.72,0,0,1,1.25-.6,1.67,1.67,0,0,1,1.28.51,1.71,1.71,0,0,1,.25,2.12l-5.73,9.33a10.22,10.22,0,0,1-4.5,4,.92.92,0,0,0-.52.82v5.14H152.6v-5.14a.86.86,0,0,0-.26-.63,10.09,10.09,0,0,1-3-7.16V939.38a1.56,1.56,0,0,1,3.12,0V949a.89.89,0,0,0,1.78,0V936.62a1.56,1.56,0,0,1,3.12,0V949a.89.89,0,0,0,1.78,0V933.06a1.56,1.56,0,1,1,3.12,0V949a.9.9,0,0,0,1.79,0V935.84a1.56,1.56,0,1,1,3.11,0v3a.9.9,0,1,0,1.79,0v-3a3.34,3.34,0,0,0-4.91-3,3.341,3.341,0,1,0-6.68.17v.61a3.31,3.31,0,0,0-1.56-.39,3.35,3.35,0,0,0-3.34,3.15,3.31,3.31,0,0,0-1.56-.39,3.35,3.35,0,0,0-3.35,3.34v17.54a11.86,11.86,0,0,0,3.23,8.15V970a2.59,2.59,0,0,0-1.72,2.43v1.78a2.74,2.74,0,0,0-1.51,2.44v13.08a.9.9,0,0,0,1.79,0V976.65a.94.94,0,0,1,.94-.94H169a.94.94,0,0,1,.93.94v3.68a.9.9,0,1,0,1.79,0v-3.68a2.72,2.72,0,0,0-1.51-2.44v-1.78a2.59,2.59,0,0,0-1.7-2.43v-4.74a12,12,0,0,0,4.75-4.41l5.73-9.34a3.48,3.48,0,0,0-.52-4.32Zm-10.05,26.73H150.89v-1.49a.79.79,0,0,1,.79-.79h15.94a.79.79,0,0,1,.8.79Z" transform="translate(-118.689 -929.584)" fill="#3c3c3c"/>
  <path id="Caminho_7143" data-name="Caminho 7143" d="M171.71,984.14v5.59a.89.89,0,0,1-1.78,0v-5.59a.89.89,0,1,1,1.78,0Z" transform="translate(-118.689 -929.584)" fill="#3c3c3c"/>
  <path id="Caminho_7144" data-name="Caminho 7144" d="M143.86,954.66a.89.89,0,0,0,.89-.89v-2.55a2.88,2.88,0,0,0-4-2.65,2.88,2.88,0,0,0-2.84-2.45,3,3,0,0,0-1.09.21v-.21a2.87,2.87,0,0,0-5.71-.41,2.88,2.88,0,0,0-4,2.65v12.08h-.72L124,957.56a3.02,3.02,0,0,0-4.84,3.57l4.62,7.53a9.76,9.76,0,0,0,3.81,3.57v3.6a2.26,2.26,0,0,0-1.37,2.08v1.57a2.35,2.35,0,0,0-1.22,2.06v8.24a.89.89,0,0,0,1.78,0v-8.24a.59.59,0,0,1,.59-.58h15a.58.58,0,0,1,.58.58v8.24a.9.9,0,0,0,1.79,0v-8.24a2.35,2.35,0,0,0-1.22-2.06v-1.57a2.25,2.25,0,0,0-1.38-2.08V972a9.69,9.69,0,0,0,2.6-6.64v-7.78a.9.9,0,0,0-1.79,0v7.78a7.93,7.93,0,0,1-2.34,5.65.92.92,0,0,0-.26.63v4h-11v-4a.89.89,0,0,0-.53-.81,8.179,8.179,0,0,1-3.55-3.14l-4.62-7.53a1.23,1.23,0,0,1,.18-1.5,1.19,1.19,0,0,1,.91-.35,1.17,1.17,0,0,1,.87.42l2.74,3.19a.89.89,0,0,0,.68.31h.86a7,7,0,0,1,5.1,2.2l.24.25a.895.895,0,0,0,1.3-1.23l-.24-.25a8.929,8.929,0,0,0-4.34-2.51V948.36a1.09,1.09,0,0,1,2.17,0v10.57a.89.89,0,0,0,1.78,0V946.12a1.09,1.09,0,0,1,2.17,0v12.81a.89.89,0,0,0,1.78,0V949a1.09,1.09,0,0,1,2.17,0v9.94a.9.9,0,0,0,1.79,0v-7.72a1.08,1.08,0,1,1,2.16,0v2.55a.89.89,0,0,0,.89.89ZM128,977.86a.47.47,0,0,1,.47-.47h12.85a.47.47,0,0,1,.47.47v1.26H128Z" transform="translate(-118.689 -929.584)" fill="#3c3c3c"/>
</svg>
