<svg id="Componente_11_1" data-name="Componente 11 – 1" xmlns="http://www.w3.org/2000/svg" width="29.308" height="30.773" viewBox="0 0 29.308 30.773">
  <path id="Caminho_7716" data-name="Caminho 7716" d="M83.17,640.28v-9.82H93.78v10.59Z" transform="translate(-81.24 -610.727)" fill="#b7cd2c" opacity="0.5"/>
  <path id="Caminho_7717" data-name="Caminho 7717" d="M96.74,637.49l2.96-9.96,9.63,2.64L106.77,640Z" transform="translate(-81.24 -610.727)" fill="#b7cd2c" opacity="0.5"/>
  <path id="Caminho_7718" data-name="Caminho 7718" d="M93.26,625.73l-3.67-9.44,9.38-3.62,3.64,9.76Z" transform="translate(-81.24 -610.727)" fill="#b7cd2c" opacity="0.5"/>
  <path id="Caminho_7719" data-name="Caminho 7719" d="M91.07,626.61a1.09,1.09,0,0,0,1.41.61l10.31-4.06a1.08,1.08,0,0,0,.61-1.4l-4.05-10.35a1.1,1.1,0,0,0-1.41-.61L87.6,614.86a1.08,1.08,0,0,0-.61,1.4ZM98.26,612l4,10.07-10.06,4L88.2,616Z" transform="translate(-81.24 -610.727)" fill="#3c3c3c"/>
  <path id="Caminho_7720" data-name="Caminho 7720" d="M93.41,628.25H82.33a1.08,1.08,0,0,0-1.09,1.08v11.09a1.08,1.08,0,0,0,1.09,1.08H93.41a1.08,1.08,0,0,0,1.08-1.08V629.33a1.08,1.08,0,0,0-1.08-1.08Zm-.13,12H82.46V629.47H93.28Z" transform="translate(-81.24 -610.727)" fill="#3c3c3c"/>
  <path id="Caminho_7721" data-name="Caminho 7721" d="M109.77,628.19l-10.71-2.85a1.1,1.1,0,0,0-1.32.79l-2.85,10.71a1.09,1.09,0,0,0,.76,1.33h0L106.36,641a1.09,1.09,0,0,0,1.33-.77h0l2.82-10.73A1.07,1.07,0,0,0,109.77,628.19Zm-3.22,11.56L96.1,637l2.78-10.45,10.45,2.78Z" transform="translate(-81.24 -610.727)" fill="#3c3c3c"/>
  <path id="Caminho_7722" data-name="Caminho 7722" d="M93.38,622.38a.54.54,0,0,0,.32.31.61.61,0,0,0,.46,0,.51.51,0,0,0,.33-.31,2.8,2.8,0,0,0,0-.71v-.87l2.41-.94.57.61.26.26a1.638,1.638,0,0,0,.25.21.62.62,0,0,0,.23.07.57.57,0,0,0,.26,0,.61.61,0,0,0,.32-.31.58.58,0,0,0,0-.45,2.14,2.14,0,0,0-.43-.56l-3-3.21L95,616.1a1.42,1.42,0,0,0-.3-.25.731.731,0,0,0-.37-.14,1,1,0,0,0-.82.32.751.751,0,0,0-.17.36,2.31,2.31,0,0,0,0,.46v4.89a4.059,4.059,0,0,1,0,.42A1.1,1.1,0,0,0,93.38,622.38Zm2.86-3.31-1.76.7L94.39,617Z" transform="translate(-81.24 -610.727)" fill="#3c3c3c"/>
  <path id="Caminho_7723" data-name="Caminho 7723" d="M85.56,637.58a.76.76,0,0,0,.61.19h1.94a5.994,5.994,0,0,0,.85-.08,2.2,2.2,0,0,0,.67-.17,1.61,1.61,0,0,0,.74-.6,1.84,1.84,0,0,0,.27-1,1.56,1.56,0,0,0-1.25-1.55,1.45,1.45,0,0,0,1-1.39,1.64,1.64,0,0,0-.36-1,1.411,1.411,0,0,0-.39-.34,1.719,1.719,0,0,0-.61-.22,5.156,5.156,0,0,0-.79-.06h-2a.82.82,0,0,0-.6.19.84.84,0,0,0-.19.61V637a.82.82,0,0,0,.11.58Zm1.12-5.19h1a2.879,2.879,0,0,1,1,.16.62.62,0,0,1,.34.61.87.87,0,0,1-.11.41.76.76,0,0,1-.4.35,2.749,2.749,0,0,1-.75.09H86.65Zm0,2.57H88a1.861,1.861,0,0,1,1,.21.77.77,0,0,1,.32.7c0,.62-.43.94-1.3.94H86.65Z" transform="translate(-81.24 -610.727)" fill="#3c3c3c"/>
  <path id="Caminho_7724" data-name="Caminho 7724" d="M100.2,634.65a2.579,2.579,0,0,0,.46.67,2.549,2.549,0,0,0,.65.48,4.246,4.246,0,0,0,.86.33,2.89,2.89,0,0,0,1.17.09,2.391,2.391,0,0,0,.93-.35,2.462,2.462,0,0,0,.61-.55,1.76,1.76,0,0,0,.31-.61.56.56,0,0,0,0-.42.58.58,0,0,0-.35-.26.45.45,0,0,0-.42.06,1.369,1.369,0,0,0-.29.34,1.69,1.69,0,0,1-.77.6,1.47,1.47,0,0,1-1,0,1.55,1.55,0,0,1-.78-.38,1.52,1.52,0,0,1-.37-.86,2.91,2.91,0,0,1,.11-1.21,2.74,2.74,0,0,1,.89-1.58,1.55,1.55,0,0,1,1.38-.26,1.49,1.49,0,0,1,.74.44,1.91,1.91,0,0,1,.39.84,1.6,1.6,0,0,0,.17.46.53.53,0,0,0,.33.21.52.52,0,0,0,.4-.07.53.53,0,0,0,.25-.34,1.39,1.39,0,0,0-.09-.9,2.37,2.37,0,0,0-.72-1,3.339,3.339,0,0,0-2.44-.7,2.69,2.69,0,0,0-1.1.39,3,3,0,0,0-.89.84,3.86,3.86,0,0,0-.56,1.26,4.381,4.381,0,0,0-.15.88,3.4,3.4,0,0,0,.06.84,3.28,3.28,0,0,0,.22.76Z" transform="translate(-81.24 -610.727)" fill="#3c3c3c"/>
</svg>
