<svg id="Componente_13_1" data-name="Componente 13 – 1" xmlns="http://www.w3.org/2000/svg" width="60.936" height="58.77" viewBox="0 0 60.936 58.77">
  <path id="Caminho_7130" data-name="Caminho 7130" d="M609,953.37a1,1,0,0,1,1.05-1h4.21a1.05,1.05,0,0,1,0,2.1h-4.21a1,1,0,0,1-1.05-1.1Z" transform="translate(-604.84 -931.31)" fill="#63b346"/>
  <path id="Caminho_7131" data-name="Caminho 7131" d="M619.55,966a1.054,1.054,0,0,1-.47,1.41l-4.43,2.21a1.049,1.049,0,0,1-.93-1.88l4.42-2.21a1,1,0,0,1,1.41.47Z" transform="translate(-604.84 -931.31)" fill="#63b346"/>
  <path id="Caminho_7132" data-name="Caminho 7132" d="M613.25,939.71a1,1,0,0,1,1.4-.47l4.43,2.21a1.051,1.051,0,0,1-.94,1.88l-4.42-2.21a1,1,0,0,1-.47-1.41Z" transform="translate(-604.84 -931.31)" fill="#63b346"/>
  <path id="Caminho_7133" data-name="Caminho 7133" d="M605.84,986a1.051,1.051,0,1,1,.11-2.1l17.86.94a1.05,1.05,0,1,1-.06,2.1h0Z" transform="translate(-604.84 -931.31)" fill="#63b346"/>
  <path id="Caminho_7134" data-name="Caminho 7134" d="M634.26,935.51v-3.15a1.05,1.05,0,0,1,2.1,0v3.15a1.05,1.05,0,0,1-2.1,0Z" transform="translate(-604.84 -931.31)" fill="#63b346"/>
  <path id="Caminho_7135" data-name="Caminho 7135" d="M642.06,967.09a14.43,14.43,0,0,0,9-13.59c0-8.18-7.07-14.84-15.75-14.84s-15.76,6.66-15.76,14.84a14.43,14.43,0,0,0,9,13.59l.12.07.84,1.36a5.35,5.35,0,0,0,1.59,10.06h8.41a11.13,11.13,0,0,0,2.14-9.66,3.691,3.691,0,0,0-.55-.4l.84-1.36Zm-.95-1.87-.42.22a1,1,0,0,0-.4.38l-1.37,2.25h-.46v-8l4.94-5-1.48-1.48-5.26,5.25a1.05,1.05,0,0,0-.3.74v8.4h-2.1v-8.4a1.11,1.11,0,0,0-.31-.74l-5.26-5.25-1.48,1.48,4.94,5v8h-.46l-1.37-2.25a1,1,0,0,0-.4-.38l-.42-.22a.31.31,0,0,0-.1-.05,12.37,12.37,0,0,1-7.75-11.67c0-7,6.13-12.74,13.66-12.74S649,946.48,649,953.5a12.37,12.37,0,0,1-7.75,11.67Z" transform="translate(-604.84 -931.31)" fill="#63b346"/>
  <path id="Caminho_7136" data-name="Caminho 7136" d="M650.68,942.4a1,1,0,0,1-.06-.34,1.06,1.06,0,0,1,.72-1l4.69-1.56a1.042,1.042,0,0,1,.62,1.99l-4.7,1.57a1,1,0,0,1-1.27-.66Z" transform="translate(-604.84 -931.31)" fill="#63b346"/>
  <path id="Caminho_7137" data-name="Caminho 7137" d="M656.89,967.72a1.049,1.049,0,1,1-.93,1.88l-4.43-2.21a1.051,1.051,0,0,1,.94-1.88Z" transform="translate(-604.84 -931.31)" fill="#63b346"/>
  <path id="Caminho_7138" data-name="Caminho 7138" d="M656.31,952.32h4.21a1.05,1.05,0,0,1,0,2.1h-4.21a1.05,1.05,0,1,1,0-2.1Z" transform="translate(-604.84 -931.31)" fill="#63b346"/>
  <path id="Caminho_7139" data-name="Caminho 7139" d="M665.77,989.08a1,1,0,0,1-1,1H605.89a1.05,1.05,0,0,1,0-2.1H629.4a1,1,0,0,0,.73-1.8c-2.88-2.82-12-5.4-24.24-5.54a1.05,1.05,0,0,1,0-2.1c12.76.15,25.91,3.16,27.2,8.61a1.06,1.06,0,0,0,1,.83h2.37a1,1,0,0,0,1-.83c1.29-5.45,14.45-8.46,27.2-8.61a1.05,1.05,0,0,1,0,2.1c-12.23.14-21.36,2.72-24.24,5.54a1,1,0,0,0,.74,1.8h23.5a1,1,0,0,1,1.11,1.1Z" transform="translate(-604.84 -931.31)" fill="#63b346"/>
  <path id="Caminho_7140" data-name="Caminho 7140" d="M665.77,984.88v.06a1.06,1.06,0,0,1-1,1l-17.87.94a1.05,1.05,0,0,1-1.1-1h0a1.05,1.05,0,0,1,1-1l17.87-.94a1,1,0,0,1,1.1.94Z" transform="translate(-604.84 -931.31)" fill="#63b346"/>
  <path id="Caminho_7146" data-name="Caminho 7146" d="M642.06,967.09a14.43,14.43,0,0,0,9-13.59c0-8.18-7.07-14.84-15.75-14.84s-15.76,6.66-15.76,14.84a14.43,14.43,0,0,0,9,13.59l.12.07.84,1.36a5.35,5.35,0,0,0,1.59,10.06h8.41a11.13,11.13,0,0,0,2.14-9.66,3.691,3.691,0,0,0-.55-.4l.84-1.36Zm-2.55,9.39H631.1a1.05,1.05,0,0,1,0-2.1h8.41a1.05,1.05,0,1,1,0,2.1Zm0-4.2H631.1a1.05,1.05,0,0,1,0-2.1h8.41a1.05,1.05,0,1,1,0,2.1Zm1.6-7.06-.42.22a1,1,0,0,0-.4.38l-1.37,2.25h-.46v-8l4.94-5-1.48-1.48-5.26,5.25a1.05,1.05,0,0,0-.3.74v8.4h-2.1v-8.4a1.11,1.11,0,0,0-.31-.74l-5.26-5.25-1.48,1.48,4.94,5v8h-.46l-1.37-2.25a1,1,0,0,0-.4-.38l-.42-.22a.31.31,0,0,0-.1-.05,12.37,12.37,0,0,1-7.75-11.67c0-7,6.13-12.74,13.66-12.74S649,946.48,649,953.5a12.37,12.37,0,0,1-7.75,11.67Z" transform="translate(-604.84 -931.31)" fill="#3c3c3c"/>
  <path id="Caminho_7147" data-name="Caminho 7147" d="M619.55,942.86a1.054,1.054,0,0,1-1.41.47l-4.42-2.21a1.049,1.049,0,1,1,.93-1.88l4.43,2.21a1,1,0,0,1,.47,1.41Z" transform="translate(-604.84 -931.31)" fill="#3c3c3c"/>
  <path id="Caminho_7148" data-name="Caminho 7148" d="M657.41,940.5a1,1,0,0,1-.71,1l-4.7,1.57a1.07,1.07,0,0,1-1.38-1.01,1.06,1.06,0,0,1,.72-1l4.69-1.56a1.037,1.037,0,0,1,1.38,1Z" transform="translate(-604.84 -931.31)" fill="#3c3c3c"/>
  <path id="Caminho_7149" data-name="Caminho 7149" d="M615.35,953.37a1,1,0,0,1-1.05,1h-4.21a1.05,1.05,0,0,1,0-2.1h4.21a1,1,0,0,1,1.05,1.1Z" transform="translate(-604.84 -931.31)" fill="#3c3c3c"/>
  <path id="Caminho_7150" data-name="Caminho 7150" d="M661.57,953.37a1,1,0,0,1-1.05,1h-4.21a1.05,1.05,0,1,1,0-2.1h4.21a1,1,0,0,1,1.05,1.1Z" transform="translate(-604.84 -931.31)" fill="#3c3c3c"/>
  <path id="Caminho_7151" data-name="Caminho 7151" d="M619.66,966.44a1,1,0,0,1-.58.94l-4.43,2.21a1.049,1.049,0,0,1-.93-1.88l4.42-2.21a1.049,1.049,0,0,1,1.52.94Z" transform="translate(-604.84 -931.31)" fill="#3c3c3c"/>
  <path id="Caminho_7152" data-name="Caminho 7152" d="M657.36,969.13a1.042,1.042,0,0,1-1.4.47l-4.43-2.21a1.051,1.051,0,0,1,.94-1.88l4.42,2.21a1,1,0,0,1,.47,1.41Z" transform="translate(-604.84 -931.31)" fill="#3c3c3c"/>
  <path id="Caminho_7153" data-name="Caminho 7153" d="M636.36,932.36v3.15a1.05,1.05,0,0,1-2.1,0v-3.15a1.05,1.05,0,0,1,2.1,0Z" transform="translate(-604.84 -931.31)" fill="#3c3c3c"/>
  <path id="Caminho_7154" data-name="Caminho 7154" d="M665.77,989.08a1,1,0,0,1-1,1H605.89a1.05,1.05,0,0,1,0-2.1H629.4a1,1,0,0,0,.73-1.8c-2.88-2.82-12-5.4-24.24-5.54a1.05,1.05,0,0,1,0-2.1c12.76.15,25.91,3.16,27.2,8.61a1.06,1.06,0,0,0,1,.83h2.37a1,1,0,0,0,1-.83c1.29-5.45,14.45-8.46,27.2-8.61a1.05,1.05,0,0,1,0,2.1c-12.23.14-21.36,2.72-24.24,5.54a1,1,0,0,0,.74,1.8h23.5a1,1,0,0,1,1.11,1.1Z" transform="translate(-604.84 -931.31)" fill="#3c3c3c"/>
  <path id="Caminho_7155" data-name="Caminho 7155" d="M624.8,985.93a1.05,1.05,0,0,1-1,1h0L605.84,986a1.051,1.051,0,1,1,.11-2.1l17.86.94a1,1,0,0,1,.99,1.09Z" transform="translate(-604.84 -931.31)" fill="#3c3c3c"/>
  <path id="Caminho_7156" data-name="Caminho 7156" d="M665.77,984.88v.06a1.06,1.06,0,0,1-1,1l-17.87.94a1.05,1.05,0,0,1-1.1-1h0a1.05,1.05,0,0,1,1-1l17.87-.94a1,1,0,0,1,1.1.94Z" transform="translate(-604.84 -931.31)" fill="#3c3c3c"/>
</svg>
