<svg id="Componente_12_1" data-name="Componente 12 – 1" xmlns="http://www.w3.org/2000/svg" width="80.063" height="57.613" viewBox="0 0 80.063 57.613">
  <path id="Caminho_7141" data-name="Caminho 7141" d="M393.19,933.34a2.46,2.46,0,0,0-2,0l-33.1,14.34v8.45l9.07,3.93v15.63c0,8.42,11,15,25,15s25-6.6,25-15V960.06l2.5-1.09V985.7a2.51,2.51,0,0,0,5,0V956.8l3.81-1.65v-6.49Zm19,42.35c0,2.36-1.93,4.78-5.31,6.66-8,4.47-21.36,4.48-29.43,0-3.37-1.88-5.31-4.3-5.31-6.66V962.23l19,8.24a2.46,2.46,0,0,0,2,0l19-8.24Z" transform="translate(-352.146 -933.078)" fill="#63b346"/>
  <path id="Caminho_7145" data-name="Caminho 7145" d="M430.74,949.61l-2.19-1-35.36-15.32a2.46,2.46,0,0,0-2,0l-33.1,14.34-4.45,1.93a2.51,2.51,0,0,0,0,4.59l4.45,1.93,9.07,3.93v15.63c0,8.42,11,15,25,15s25-6.6,25-15V960.06l2.5-1.09V985.7a2.51,2.51,0,0,0,5,0V956.8l3.81-1.65,2.19-.95a2.5,2.5,0,0,0,.08-4.59Zm-18.52,26.08c0,2.36-1.93,4.78-5.31,6.66-8,4.47-21.36,4.48-29.43,0-3.37-1.88-5.31-4.3-5.31-6.66V962.23l19,8.24a2.46,2.46,0,0,0,2,0l19-8.24ZM421,953l-28.46-3.56a2.519,2.519,0,0,0-.62,5l20.05,2.51-19.74,8.55-31.26-13.54,31.26-13.55,31.25,13.55Z" transform="translate(-352.146 -933.078)" fill="#3c3c3c"/>
</svg>
