<svg id="Componente_2_1" data-name="Componente 2 – 1" xmlns="http://www.w3.org/2000/svg" width="61.935" height="61.984" viewBox="0 0 61.935 61.984">
  <path id="Caminho_987" data-name="Caminho 987" d="M180.9,645.94a3.59,3.59,0,0,0-2.67-1,3.54,3.54,0,0,0-2.57,1.24l-3.18,3.71h-1.24v-8.55a.91.91,0,0,0-1.82,0v8.8a11,11,0,0,0-5.54,3.14l-.3.32a.9.9,0,0,0,0,1.28.91.91,0,0,0,1.29,0l.3-.32a9.12,9.12,0,0,1,6.61-2.84h1.08a.9.9,0,0,0,.69-.32l3.46-4a1.752,1.752,0,0,1,2.82,2.06L174,658.89a10.46,10.46,0,0,1-4.58,4.05.92.92,0,0,0-.53.83V669H154.56v-5.23a.91.91,0,0,0-.27-.64,10.27,10.27,0,0,1-3-7.29V638a1.59,1.59,0,1,1,3.17,0v9.74a.91.91,0,0,0,1.82,0V635.18a1.59,1.59,0,1,1,3.17,0v12.55a.91.91,0,0,0,1.82,0V631.56a1.59,1.59,0,1,1,3.17,0v16.17a.91.91,0,0,0,1.82,0V634.38a1.59,1.59,0,0,1,3.17,0v3.07a.91.91,0,0,0,1.82,0v-3.07a3.41,3.41,0,0,0-3.4-3.4,3.261,3.261,0,0,0-1.59.4,3.41,3.41,0,0,0-6.81.18v.61a3.4,3.4,0,0,0-5,2.81,3.44,3.44,0,0,0-1.6-.39,3.4,3.4,0,0,0-3.4,3.4v17.85a12.05,12.05,0,0,0,3.28,8.3v5a2.63,2.63,0,0,0-1.74,2.47v1.81a2.79,2.79,0,0,0-1.54,2.48v13.32a.91.91,0,0,0,1.82,0v-13.3a1,1,0,0,1,.95-.95h19a1,1,0,0,1,.95.95v3.76a.91.91,0,0,0,1.82,0v-3.76a2.79,2.79,0,0,0-1.54-2.48v-1.81a2.64,2.64,0,0,0-1.73-2.47v-4.82a12.32,12.32,0,0,0,4.84-4.5l5.83-9.51a3.55,3.55,0,0,0-.51-4.39Zm-11.05,24.88a.81.81,0,0,1,.81.81v1.52H152.81v-1.52a.81.81,0,0,1,.81-.81Z" transform="translate(-119.99 -628.221)" fill="#3c3c3c"/>
  <path id="Caminho_989" data-name="Caminho 989" d="M143.64,647.11a3,3,0,0,0-1.13.23,2.92,2.92,0,0,0-2.89-2.49,2.88,2.88,0,0,0-1.1.22v-.22a2.92,2.92,0,0,0-5.81-.41,2.92,2.92,0,0,0-4.06,2.69v12.3h-.74l-2.51-2.93a3.05,3.05,0,0,0-4.92,3.59l4.7,7.66a10,10,0,0,0,3.88,3.64V675a2.31,2.31,0,0,0-1.4,2.12v1.59a2.42,2.42,0,0,0-1.24,2.11v8.38a.91.91,0,0,0,1.82,0v-8.38a.59.59,0,0,1,.59-.6h15.32a.6.6,0,0,1,.6.6v8.38a.91.91,0,1,0,1.81,0v-8.38a2.43,2.43,0,0,0-1.23-2.11v-1.59a2.31,2.31,0,0,0-1.41-2.12v-3.86a9.86,9.86,0,0,0,2.64-6.75v-7.92a.91.91,0,1,0-1.81,0v7.92a8.07,8.07,0,0,1-2.38,5.74.91.91,0,0,0-.27.65v4H130.87v-4a.9.9,0,0,0-.53-.83,8.23,8.23,0,0,1-3.61-3.2l-4.7-7.66a1.24,1.24,0,0,1,2-1.46l2.79,3.25a.9.9,0,0,0,.69.32h.87a7.179,7.179,0,0,1,5.2,2.229l.241.261a.91.91,0,0,0,1.29,0,.9.9,0,0,0,0-1.28l-.24-.26a9.12,9.12,0,0,0-4.42-2.55V647.13a1.11,1.11,0,1,1,2.21,0v10.75a.91.91,0,1,0,1.81,0v-13a1.11,1.11,0,0,1,2.21,0v13a.91.91,0,0,0,1.82,0V647.77a1.1,1.1,0,0,1,2.2,0V650h0v7.25h0v.58a.91.91,0,0,0,1.82,0V650a1.11,1.11,0,0,1,2.21,0v2.59a.91.91,0,1,0,1.81,0V650a2.93,2.93,0,0,0-2.92-2.93ZM143,676.68a.47.47,0,0,1,.48.48v1.29h-14v-1.29a.47.47,0,0,1,.47-.48Z" transform="translate(-119.99 -628.221)" fill="#3c3c3c"/>
</svg>
