<svg id="Componente_4_1" data-name="Componente 4 – 1" xmlns="http://www.w3.org/2000/svg" width="62.078" height="59.85" viewBox="0 0 62.078 59.85">
  <path id="Caminho_991" data-name="Caminho 991" d="M652.81,666.19A14.69,14.69,0,0,0,662,652.36c0-8.33-7.19-15.1-16-15.1s-16,6.77-16,15.1a14.69,14.69,0,0,0,9.17,13.83l.12.07.85,1.39a3.18,3.18,0,0,0-1.16,4.34,3.746,3.746,0,0,0,.41.55,3.19,3.19,0,0,0,2.37,5.35h8.56a11.353,11.353,0,0,0,2.18-9.83,3.84,3.84,0,0,0-.56-.41l.85-1.39Zm-2.6,9.56h-8.56a1.07,1.07,0,0,1,0-2.14h8.56a1.07,1.07,0,0,1,0,2.14Zm0-4.28h-8.56a1.07,1.07,0,0,1,0-2.13h8.56a1.07,1.07,0,1,1,0,2.13Zm1.63-7.18-.43.23a1,1,0,0,0-.4.38l-1.4,2.3h-.47v-8.12l5-5-1.51-1.51-5.35,5.35a1.06,1.06,0,0,0-.31.75v8.56h-2.14v-8.56a1.06,1.06,0,0,0-.31-.75l-5.35-5.35-1.51,1.51,5,5v8.12h-.47l-1.39-2.3a1.071,1.071,0,0,0-.41-.38l-.42-.23h-.11A12.61,12.61,0,0,1,632,652.36c0-7.15,6.24-13,13.9-13s13.9,5.82,13.9,13a12.59,12.59,0,0,1-7.89,11.88Z" transform="translate(-614.915 -629.77)" fill="#3c3c3c"/>
  <rect id="Retângulo_22" data-name="Retângulo 22" width="2.14" height="7.17" rx="1.07" transform="translate(8.1 9.589) rotate(-63.43)" fill="#3c3c3c"/>
  <rect id="Retângulo_23" data-name="Retângulo 23" width="7.17" height="2.14" rx="1.07" transform="translate(46.356 10.216) rotate(-18.45)" fill="#3c3c3c"/>
  <rect id="Retângulo_24" data-name="Retângulo 24" width="6.42" height="2.14" rx="1.07" transform="translate(4.285 21.39)" fill="#3c3c3c"/>
  <rect id="Retângulo_25" data-name="Retângulo 25" width="6.42" height="2.14" rx="1.07" transform="translate(51.335 21.39)" fill="#3c3c3c"/>
  <rect id="Retângulo_26" data-name="Retângulo 26" width="7.17" height="2.14" rx="1.07" transform="translate(8.111 37.461) rotate(-26.57)" fill="#3c3c3c"/>
  <rect id="Retângulo_27" data-name="Retângulo 27" width="2.14" height="7.17" rx="1.07" transform="translate(46.607 36.326) rotate(-63.43)" fill="#3c3c3c"/>
  <rect id="Retângulo_28" data-name="Retângulo 28" width="2.14" height="5.35" rx="1.07" transform="translate(29.945)" fill="#3c3c3c"/>
  <path id="Caminho_992" data-name="Caminho 992" d="M676.94,679h0a1.07,1.07,0,0,0-1.08-1.07c-13,.16-26.37,3.21-27.68,8.77a1.08,1.08,0,0,1-1,.84h-2.42a1.06,1.06,0,0,1-1-.84c-1.32-5.56-14.71-8.61-27.69-8.77a1.07,1.07,0,0,0-1.08,1.07h0a1.06,1.06,0,0,0,1.01,1c12.46.15,21.75,2.78,24.69,5.65a1.07,1.07,0,0,1-.75,1.83H616a1.07,1.07,0,0,0-1.07,1.07h0a1.07,1.07,0,0,0,1.07,1.07h59.88a1.07,1.07,0,0,0,1.07-1.07h0a1.07,1.07,0,0,0-1.07-1.07H652a1.07,1.07,0,0,1-.75-1.83c2.93-2.87,12.23-5.5,24.68-5.65A1.06,1.06,0,0,0,676.94,679Z" transform="translate(-614.915 -629.77)" fill="#3c3c3c"/>
  <rect id="Retângulo_29" data-name="Retângulo 29" width="2.14" height="20.35" rx="1.07" transform="translate(0 55.669) rotate(-86.98)" fill="#3c3c3c"/>
  <rect id="Retângulo_30" data-name="Retângulo 30" width="20.35" height="2.14" rx="1.07" transform="translate(41.643 54.549) rotate(-3.02)" fill="#3c3c3c"/>
</svg>
