<svg id="Componente_14_1" data-name="Componente 14 – 1" xmlns="http://www.w3.org/2000/svg" width="25.649" height="30.77" viewBox="0 0 25.649 30.77">
  <path id="Caminho_7745" data-name="Caminho 7745" d="M319.26,619.38a.92.92,0,0,1,.2.49c0,.37-.39.57-.7.76a3.17,3.17,0,0,0-1.45,3,1.56,1.56,0,0,0,.48,1c.79.67,2.07-.08,3,.35a1.8,1.8,0,0,1,.91,1.23,9.2,9.2,0,0,1,.17,1.57,8.5,8.5,0,0,0,.35,1.94,2.71,2.71,0,0,0,.59,1.17,1.18,1.18,0,0,0,1.2.35c.72-.26.79-1.23,1.12-1.92a10.262,10.262,0,0,0,.87-1.54,11.307,11.307,0,0,0,.1-1.17,4.389,4.389,0,0,1,1.22-2.16c-1.25-.4-1.83-1.77-2.4-2.94a1.139,1.139,0,0,0-.31-.41,1,1,0,0,0-.55-.13,4.33,4.33,0,0,1-1.14-.11,5.308,5.308,0,0,1-1.19-.7,4.32,4.32,0,0,0-2.42-.65,1,1,0,0,1,.53-1.38,3.06,3.06,0,0,1,1.62-.18l1.53.11a6.079,6.079,0,0,1,1.81.31,3.11,3.11,0,0,1,1.71,1.63c.26.58.41,1.34,1,1.56s1.28-.3,1.69-.83a1.3,1.3,0,0,1,.37-.37,1,1,0,0,1,1.21.37,6,6,0,0,0,.9,1c.38.26,1,.23,1.17-.21a1,1,0,0,0,0-.53,11.4,11.4,0,0,0-8-8.38,2.59,2.59,0,0,0-1.84,0c-.81.4-1.09,1.44-1.82,2s-2.18.45-2.79,1.3C317.57,617.18,318.59,618.4,319.26,619.38Z" transform="translate(-308.361 -611.87)" fill="#b2833c" opacity="0.5"/>
  <path id="Caminho_7746" data-name="Caminho 7746" d="M313.68,624.4a5.485,5.485,0,0,1,.76.61,3.35,3.35,0,0,0,1.6.67,1.739,1.739,0,0,1,.68.16,1.41,1.41,0,0,1,.51,1.15l.15,1.39a.53.53,0,0,1,0,.33c-.07.1-.21.13-.34.18a1.43,1.43,0,0,0-.8,1,11.178,11.178,0,0,0-.21,1.29.73.73,0,0,1-.12.33c-.23.28-.68.12-1-.1a6,6,0,0,1-1.56-2.5,19.571,19.571,0,0,1-1.49-3.62C311.67,624.24,312.87,623.79,313.68,624.4Z" transform="translate(-308.361 -611.87)" fill="#b2833c" opacity="0.5"/>
  <path id="Caminho_7747" data-name="Caminho 7747" d="M331.71,632.53h0l-1.07-1.07a11.47,11.47,0,1,0-16.2-16.24l-1.07-1.07a.61.61,0,0,0,0-.85.59.59,0,0,0-.85,0,14.18,14.18,0,0,0-1.62,18.13.59.59,0,0,0,.49.26.661.661,0,0,0,.35-.11.61.61,0,0,0,.15-.84,12.94,12.94,0,0,1,.67-15.7l1.08,1.08a11.36,11.36,0,0,0-2.57,7.22,11.48,11.48,0,0,0,18.68,8.93l1.07,1.07a13,13,0,0,1-15.55.74.6.6,0,1,0-.68,1,14.129,14.129,0,0,0,7.35,2.42v1.53h-2.16a3,3,0,0,0-3,3,.6.6,0,0,0,.6.61h10.33a.61.61,0,0,0,.61-.61,3,3,0,0,0-3-3h-2.16V637.5a14.19,14.19,0,0,0,9.43-4.14.61.61,0,0,0,0-.85.59.59,0,0,0-.88.02Zm-9.36-17.87,1.22-1.52a10.31,10.31,0,0,1,8.84,7.42l-.14.13a1.3,1.3,0,0,0-.32.42l-.12-.33a1.29,1.29,0,0,0-.23-.39l-.54-.63a1.26,1.26,0,0,0-1-.44h-.67a.8.8,0,0,0-.7.42.77.77,0,0,0,0,.8,4.931,4.931,0,0,1-1.17.69l-.82-1.58v-.35a.61.61,0,0,0-.19-.44l-.82-.78a.569.569,0,0,0-.21-.13l-2.38-.84h-2.2a2.18,2.18,0,0,0-1.71.83l-.47-.66.58-1.42,2.78-1a.6.6,0,0,0,.27-.2Zm3,12.68c.13.43.13.43-.05.63l-.09.09a2.2,2.2,0,0,0-.53.87.48.48,0,0,1-.15.22,3.182,3.182,0,0,0-.26.35,1.9,1.9,0,0,0-.18.52c0,.12,0,.16-.06.19a2.051,2.051,0,0,1-.73.57,4.511,4.511,0,0,1-.39-.92c-.07-.19-.16-.39-.24-.58-.17-.37-.36-.78-.28-1v-.1a2.07,2.07,0,0,0,0-1.63,1.69,1.69,0,0,0-.35-.51,1.535,1.535,0,0,1-.13-.16.809.809,0,0,1,0-.17,1.2,1.2,0,0,0-.39-1,1.55,1.55,0,0,0-1.58-.26l-.3.06a1.45,1.45,0,0,1-1.37-.58,1.6,1.6,0,0,1-.12-1.6,3.252,3.252,0,0,1,.55-.73l.15-.18a3.594,3.594,0,0,0,.29-.39,4,4,0,0,1,.4-.5,3,3,0,0,1,.9-.11h.36v.09a.59.59,0,0,0,.31.44l.31.19a2.58,2.58,0,0,0,1.18.54.92.92,0,0,0,.72-.29h0l.08-.07h.11a3.072,3.072,0,0,1,.78.27,2.94,2.94,0,0,1,.43.87c.07.17.14.34.21.49l.09.2a2.85,2.85,0,0,0,1,1.35,1.61,1.61,0,0,0,.61.22l-.36.36a2.17,2.17,0,0,0-.92,2.26Zm-9.62,1.81-.31,1.62a10.3,10.3,0,0,1-3-5.8l.92-.3,1.75,1.33a.47.47,0,0,0,.25.11l1.09.22a.3.3,0,0,1,.22.15.32.32,0,0,1,0,.27,1.54,1.54,0,0,0,0,1l.14.43a.32.32,0,0,1-.21.41l-.44.15A.57.57,0,0,0,315.73,629.15Zm6.8,4.48a10.18,10.18,0,0,1-6.06-2l.37-1.93h.1a1.54,1.54,0,0,0,1-1.93l-.14-.43a.34.34,0,0,1,0-.2,1.52,1.52,0,0,0-1.16-2l-.95-.19-1.89-1.44a.6.6,0,0,0-.55-.09l-1,.32v-.39a10.28,10.28,0,0,1,9.82-10.26l-.55.68-2.87,1a.62.62,0,0,0-.36.33l-.81,2a.6.6,0,0,0,.06.58l1.26,1.76.07.08a3.221,3.221,0,0,0-.67.78,2.142,2.142,0,0,1-.22.29l-.14.17a4.181,4.181,0,0,0-.74,1,2.82,2.82,0,0,0,.24,2.82,2.62,2.62,0,0,0,2.48,1.06,3,3,0,0,0,.45-.09c.35-.08.41-.08.47,0h0v.13a1.71,1.71,0,0,0,.05.47,1.41,1.41,0,0,0,.41.68l.13.16c.1.26.07.39-.06.8v.1a2.66,2.66,0,0,0,.33,1.89c.08.17.15.33.2.47.42,1.23.75,1.52,1,1.65a1.05,1.05,0,0,0,.46.09,2.7,2.7,0,0,0,1.71-1,1.541,1.541,0,0,0,.31-.71.751.751,0,0,1,0-.15,1.329,1.329,0,0,1,.12-.16,1.63,1.63,0,0,0,.4-.66.79.79,0,0,1,.26-.4l.1-.11a1.55,1.55,0,0,0,.31-1.8c-.1-.33.05-.54.63-1.07a5.368,5.368,0,0,0,.72-.78,1.1,1.1,0,0,0,.2-1,1.18,1.18,0,0,0-1-.58l-.33-.06a2.11,2.11,0,0,1-.54-.84l-.09-.22a4.258,4.258,0,0,1-.17-.41,3.93,3.93,0,0,0-.69-1.27,2.85,2.85,0,0,0-1.34-.6c-.15-.05-.29-.08-.38-.12a.589.589,0,0,0-.35,0,1.25,1.25,0,0,0-.53.23l-.12.12-.29-.18a.74.74,0,0,0-.07-.42c-.29-.62-1.2-.57-1.38-.56h-.87l.1-.29a1,1,0,0,1,.91-.64h2L325,619l.54.52v.24a.64.64,0,0,0,.07.27l1.14,2.19a.59.59,0,0,0,.74.28l.34-.12a5.89,5.89,0,0,0,2.12-1.36.62.62,0,0,0,.17-.53h0l.54.63h0l.6,1.65a.59.59,0,0,0,.43.38h.13a.64.64,0,0,0,.43-.18l.28-.28a2.115,2.115,0,0,0,.2-.24c0,.27,0,.54,0,.82a10.29,10.29,0,0,1-10.2,10.36Zm2.76,6.62a1.81,1.81,0,0,1,1.7,1.2h-8.93a1.81,1.81,0,0,1,1.7-1.2Z" transform="translate(-308.361 -611.87)" fill="#3c3c3c"/>
</svg>
