<svg id="Componente_8_1" data-name="Componente 8 – 1" xmlns="http://www.w3.org/2000/svg" width="19.978" height="20.07" viewBox="0 0 19.978 20.07">
  <path id="Caminho_3365" data-name="Caminho 3365" d="M21.06,17.55a9.945,9.945,0,0,0-4.15.9,10.047,10.047,0,0,0-5.49,6.43,10.182,10.182,0,0,0-.36,2.67,9.958,9.958,0,0,0,2.6,6.73,9.846,9.846,0,0,1-.75,1.91h0c-.05.09-.09.17-.14.26h0a.881.881,0,0,0-.05.29.892.892,0,0,0,.67.87c.05,0,.1.01.15.01l.35-.03a9.962,9.962,0,0,0,3.19-.85,10,10,0,1,0,3.98-19.19Zm5.43,15.76h0l.09.18h0a.582.582,0,0,1,.03.19.592.592,0,0,1-.5.59h0c-.1-.01-.19-.01-.29-.02a6.648,6.648,0,0,1-2.13-.57A6.662,6.662,0,1,1,21.05,20.9a6.515,6.515,0,0,1,2.76.6,6.713,6.713,0,0,1,3.66,4.28,6.538,6.538,0,0,1,.24,1.78,6.667,6.667,0,0,1-1.73,4.48A6.74,6.74,0,0,0,26.49,33.31Z" transform="translate(-11.06 -17.55)" fill="content"/>
</svg>
