<svg id="Componente_17_1" data-name="Componente 17 – 1" xmlns="http://www.w3.org/2000/svg" width="33.994" height="29.932" viewBox="0 0 33.994 29.932">
  <path id="Caminho_7808" data-name="Caminho 7808" d="M560.38,635a3.8,3.8,0,0,0,.46,2.17l1.34,3.13c.56-.86,1.08-1.76,1.56-2.67a5.872,5.872,0,0,0,.7-1.82,2.33,2.33,0,0,0-.43-1.85,2,2,0,0,0-3.63,1.04Z" transform="translate(-531.006 -612.06)" fill="#da7d28" opacity="0.5"/>
  <path id="Caminho_7809" data-name="Caminho 7809" d="M562.68,627.13a2.08,2.08,0,0,0,1.63-1,2.44,2.44,0,0,0,.19-1l.16-2.87c0-.8.08-1.61,0-2.41a23.331,23.331,0,0,0-.36-2.51l-.55-3a2.25,2.25,0,0,0-.26-.82c-.52-.83-1.92-.6-2.5.19a4.61,4.61,0,0,0-.59,2.84l.08,6.84a12.468,12.468,0,0,0,0,3.23C560.76,627.4,561.82,627.25,562.68,627.13Z" transform="translate(-531.006 -612.06)" fill="#da7d28" opacity="0.5"/>
  <circle id="Elipse_48" data-name="Elipse 48" cx="1.89" cy="1.89" r="1.89" transform="translate(8.834 5.87)" fill="#da7d28" opacity="0.5"/>
  <circle id="Elipse_49" data-name="Elipse 49" cx="1.89" cy="1.89" r="1.89" transform="translate(16.993 5.93)" fill="#da7d28" opacity="0.5"/>
  <circle id="Elipse_50" data-name="Elipse 50" cx="1.89" cy="1.89" r="1.89" transform="translate(4.753 13)" fill="#da7d28" opacity="0.5"/>
  <circle id="Elipse_51" data-name="Elipse 51" cx="1.89" cy="1.89" r="1.89" transform="translate(8.834 20.06)" fill="#da7d28" opacity="0.5"/>
  <circle id="Elipse_52" data-name="Elipse 52" cx="1.89" cy="1.89" r="1.89" transform="translate(16.993 20.06)" fill="#da7d28" opacity="0.5"/>
  <path id="Caminho_7810" data-name="Caminho 7810" d="M533.2,619.3a14.77,14.77,0,0,0,0,15.49,15.05,15.05,0,0,0,13,7.2,13.05,13.05,0,0,0,7.27-2.07,6.85,6.85,0,0,0,3.18-5.74c0-2.1-1.24-3.27-2.34-4.29a4.475,4.475,0,0,1-1.76-2.84c0-.84.51-1.67,1.76-2.84s2.34-2.19,2.34-4.3c0-4-3.39-6.41-6.56-7.29a14.282,14.282,0,0,0-3.86-.51A15.16,15.16,0,0,0,533.2,619.3Zm16.6-5.55c3.58,1,5.71,3.3,5.71,6.16,0,1.6-1,2.5-2,3.45-1.45,1.36-2.13,2.53-2.13,3.69s.7,2.35,2.13,3.69c1,1,2,1.85,2,3.44a5.77,5.77,0,0,1-3,5,12.261,12.261,0,0,1-6.24,1.61h0a13.91,13.91,0,0,1-12-6.64,13.6,13.6,0,0,1,0-14.27,14.1,14.1,0,0,1,15.53-6.13Z" transform="translate(-531.006 -612.06)" fill="#3c3c3c"/>
  <path id="Caminho_7811" data-name="Caminho 7811" d="M562.35,641.8a.58.58,0,0,0,.56-.58,6.59,6.59,0,0,1,1-2.77A7.74,7.74,0,0,0,565,635.1h0a2.56,2.56,0,0,0-.76-1.83h-.06L564,633v-.24a62.2,62.2,0,0,0,1-9.75,84.249,84.249,0,0,0-.69-9.36,1.975,1.975,0,0,0-3.9.17,86.166,86.166,0,0,0-.67,9.19,62.673,62.673,0,0,0,1,9.75V633l-.17.16a2.57,2.57,0,0,0-.83,1.91c0,1.72,1.32,4.82,2.1,6.38a.58.58,0,0,0,.51.35Zm-.81-27.8a.85.85,0,0,1,.84-.74h.07a.64.64,0,0,1,.66.58,85.143,85.143,0,0,1,.68,9.2,25.953,25.953,0,0,1-.12,2.94v.41H561v-.41c-.08-1.1-.12-2.06-.12-2.94A83.565,83.565,0,0,1,561.54,614Zm2,13.56-.06.48c-.19,1.76-.43,3.31-.56,4.08l-.06.38h-1.05l-.07-.38c-.12-.77-.36-2.31-.56-4.08v-.48Zm-2.66,7.54a1.45,1.45,0,0,1,1.45-1.45,1.43,1.43,0,0,1,1.45,1.45,6.681,6.681,0,0,1-1,2.8l-.28.57-.43.9-.36-.94a11.269,11.269,0,0,1-.83-3.33Z" transform="translate(-531.006 -612.06)" fill="#3c3c3c"/>
  <path id="Caminho_7812" data-name="Caminho 7812" d="M537.65,624.32a2.63,2.63,0,1,0,2.63,2.63A2.63,2.63,0,0,0,537.65,624.32Zm0,4.08a1.45,1.45,0,1,1,1.032-.421A1.46,1.46,0,0,1,537.65,628.4Z" transform="translate(-531.006 -612.06)" fill="#3c3c3c"/>
  <path id="Caminho_7813" data-name="Caminho 7813" d="M543,631.74h0a2.53,2.53,0,0,0-1.31-.36,2.712,2.712,0,0,0-.68.09,2.63,2.63,0,1,0,2,.27Zm0,3a1.461,1.461,0,1,1,.14-1.1,1.41,1.41,0,0,1-.14,1.09Z" transform="translate(-531.006 -612.06)" fill="#3c3c3c"/>
  <path id="Caminho_7814" data-name="Caminho 7814" d="M551.2,617.61a2.62,2.62,0,0,0-2-.26,2.59,2.59,0,0,0-1.6,1.22,2.64,2.64,0,0,0,1,3.59h0a2.63,2.63,0,0,0,2.63-4.55Zm-.06,3a1.43,1.43,0,0,1-1.26.73,1.48,1.48,0,0,1-.72-.2,1.44,1.44,0,0,1-.53-2h0a1.44,1.44,0,0,1,2-.53,1.4,1.4,0,0,1,.68.88,1.42,1.42,0,0,1-.17,1.12Z" transform="translate(-531.006 -612.06)" fill="#3c3c3c"/>
  <path id="Caminho_7815" data-name="Caminho 7815" d="M550.56,631.47a2.58,2.58,0,0,0-2,.27,2.63,2.63,0,0,0-1,3.58,2.643,2.643,0,1,0,3-3.85Zm.73,2.91a1.45,1.45,0,0,1-2.66.35,1.41,1.41,0,0,1-.15-1.1,1.43,1.43,0,0,1,.68-.88h0a1.45,1.45,0,0,1,2,.53A1.42,1.42,0,0,1,551.29,634.38Z" transform="translate(-531.006 -612.06)" fill="#3c3c3c"/>
  <path id="Caminho_7816" data-name="Caminho 7816" d="M542.41,617.35a2.592,2.592,0,0,0-.68-.09,2.62,2.62,0,0,0-1.31.35,2.59,2.59,0,0,0-1.22,1.6,2.62,2.62,0,0,0,3.84,2.95h0a2.63,2.63,0,0,0-.63-4.81Zm.72,2.91a1.42,1.42,0,0,1-.67.88,1.491,1.491,0,0,1-.73.2,1.45,1.45,0,0,1-1.4-1.83,1.42,1.42,0,0,1,.67-.88,1.45,1.45,0,0,1,2,.53,1.41,1.41,0,0,1,.13,1.1Z" transform="translate(-531.006 -612.06)" fill="#3c3c3c"/>
</svg>
