<svg id="Componente_15_1" data-name="Componente 15 – 1" xmlns="http://www.w3.org/2000/svg" width="18.75" height="30.79" viewBox="0 0 18.75 30.79">
  <path id="Caminho_7733" data-name="Caminho 7733" d="M329.11,698h0v-4.39A5.85,5.85,0,0,0,327,689.4l-4.63-3.4v-.57l4.59-3.37a5.83,5.83,0,0,0,2.14-4.22v-4.38h0a1.44,1.44,0,0,0,1.44-1.45v-.24a1.44,1.44,0,0,0-1.44-1.44H313.24a1.44,1.44,0,0,0-1.44,1.44V672a1.44,1.44,0,0,0,1.44,1.45v4.38a5.8,5.8,0,0,0,2.14,4.22l4.59,3.37V686l-4.6,3.38a5.8,5.8,0,0,0-2.13,4.21V698h0a1.43,1.43,0,0,0-1.44,1.44v.24a1.43,1.43,0,0,0,1.44,1.44h15.87a1.43,1.43,0,0,0,1.44-1.44v-.24a1.43,1.43,0,0,0-1.44-1.44Zm-1,0H314.2v-4.39a4.89,4.89,0,0,1,1.74-3.44l4.8-3.52a.48.48,0,0,0,.19-.39v-1a.49.49,0,0,0-.19-.39l-4.8-3.52a4.89,4.89,0,0,1-1.74-3.44v-4.38h13.94v4.38a4.94,4.94,0,0,1-1.75,3.45l-4.78,3.51a.49.49,0,0,0-.2.39v1.06a.46.46,0,0,0,.2.38l4.78,3.52a4.9,4.9,0,0,1,1.75,3.44Z" transform="translate(-311.8 -670.33)" fill="#3c3c3c"/>
  <path id="Caminho_7734" data-name="Caminho 7734" d="M326.94,697.36v-3.12a4.3,4.3,0,0,0-1.57-3.12l-3.9-2.88a.5.5,0,0,0-.57,0l-3.9,2.88a4.27,4.27,0,0,0-1.58,3.12v3Z" transform="translate(-311.8 -670.33)" fill="#9a80b8" opacity="0.5"/>
  <path id="Caminho_7735" data-name="Caminho 7735" d="M325.37,680.37a.49.49,0,0,0,.18-.54.5.5,0,0,0-.46-.33h-7.83a.48.48,0,0,0-.46.33.49.49,0,0,0,.18.54l3.92,2.88a.47.47,0,0,0,.28.09.5.5,0,0,0,.29-.09Z" transform="translate(-311.8 -670.33)" fill="#9a80b8" opacity="0.5"/>
</svg>
