<svg id="Componente_12_1" data-name="Componente 12 – 1" xmlns="http://www.w3.org/2000/svg" width="29.138" height="29.797" viewBox="0 0 29.138 29.797">
  <g id="Grupo_1008" data-name="Grupo 1008" transform="translate(-81.334 -670.81)" opacity="0.5">
    <path id="Caminho_7784" data-name="Caminho 7784" d="M84.26,683.44a17,17,0,0,1,6-5.84c3.2-1.66,7-1.71,10.53-2.24,2.53-.37,5-1,7.49-1.61A53.45,53.45,0,0,1,107,690.38a9.63,9.63,0,0,1-1.43,3.56A9,9,0,0,1,103.2,696c-3.34,2.14-7.41,3.58-11.27,2.66A16.311,16.311,0,0,1,88,697.07a11.163,11.163,0,0,1-2.46-1.68,12.31,12.31,0,0,1-2.91-5.64C82,687.5,83,685.3,84.26,683.44Z" fill="#b4413d"/>
  </g>
  <path id="Caminho_7785" data-name="Caminho 7785" d="M87,697.26l.54.35A13.5,13.5,0,0,0,95,699.83h0a13.52,13.52,0,0,0,13.47-12.14h0l2-16.11a.71.71,0,0,0-.68-.77h-.08L93.6,672.72h-.1a13.567,13.567,0,0,0-8.19,23.1l.3.3.2.18-.08.25a12.5,12.5,0,0,0-.49,3.45.69.69,0,0,0,1.37,0,10.829,10.829,0,0,1,.21-2.13Zm-.33-2.87-.29.55-.42-.46a12.19,12.19,0,0,1,7.82-20.39h.08l15.1-1.81-1.89,15.22h0a12.17,12.17,0,0,1-12.11,11h0a12.218,12.218,0,0,1-7.228-2.369l-.282-.211.14-.32a10.829,10.829,0,0,1,2.25-3.25l.47-.47h9.26a.69.69,0,0,0,0-1.37h-7.9l4.5-4.5h6.29a.69.69,0,0,0,0-1.37H97.53l7.14-7.13a.707.707,0,0,0-1-1l-7.13,7.14v-4.93a.69.69,0,0,0-1.37,0V685l-4.5,4.5v-5.12a.69.69,0,1,0-1.37,0v6.49l-.47.47a12,12,0,0,0-2.19,3.05Z" transform="translate(-81.334 -670.81)" fill="#3c3c3c"/>
</svg>
