<svg xmlns="http://www.w3.org/2000/svg" width="114.75" height="28.33" viewBox="0 0 114.75 28.33">
  <g id="Grupo_52" data-name="Grupo 52" transform="translate(-163.12 -648.33)">
    <g id="Grupo_49" data-name="Grupo 49">
      <g id="Grupo_38" data-name="Grupo 38">
        <g id="Grupo_37" data-name="Grupo 37">
          <path id="Caminho_1600" data-name="Caminho 1600" d="M205.37,672.33a.555.555,0,0,1-.55-.55v-6.97c0-1.85-.97-3.53-2.88-3.53-1.88,0-2.99,1.68-2.99,3.53v6.97a.555.555,0,0,1-.55.55h-2.38a.555.555,0,0,1-.55-.55V658.8a.555.555,0,0,1,.55-.55h2.2a.548.548,0,0,1,.54.47h0a.548.548,0,0,0,.91.32,4.592,4.592,0,0,1,2.98-1.02,4.286,4.286,0,0,1,3.77,1.87.549.549,0,0,0,.89.06,5.042,5.042,0,0,1,4.2-1.87c3.99,0,5.95,2.45,5.95,6.67v7.03a.555.555,0,0,1-.55.55h-2.38a.555.555,0,0,1-.55-.55v-7.03c0-1.85-.77-3.42-2.65-3.42a3.2,3.2,0,0,0-3.05,3.48v6.97a.555.555,0,0,1-.55.55h-2.36Z" fill="#fff"/>
        </g>
      </g>
      <g id="Grupo_40" data-name="Grupo 40">
        <g id="Grupo_39" data-name="Grupo 39">
          <path id="Caminho_1601" data-name="Caminho 1601" d="M222.84,666.55a.5.5,0,0,0-.47.66c.49,1.39,1.9,2.33,4.03,2.33a6.277,6.277,0,0,0,3.43-1.02.514.514,0,0,1,.66.03l1.53,1.51a.494.494,0,0,1-.02.73,8.9,8.9,0,0,1-5.65,1.91c-4.84,0-7.72-2.99-7.72-7.49a7.031,7.031,0,0,1,7.46-7.35c4.57,0,7.48,2.75,7.13,8.23a.5.5,0,0,1-.5.46Zm6.38-2.88a.5.5,0,0,0,.48-.65c-.46-1.39-1.76-2.08-3.5-2.08a3.869,3.869,0,0,0-3.65,2.01.5.5,0,0,0,.45.72h6.22Z" fill="#fff"/>
        </g>
      </g>
      <g id="Grupo_42" data-name="Grupo 42">
        <g id="Grupo_41" data-name="Grupo 41">
          <path id="Caminho_1602" data-name="Caminho 1602" d="M245.46,672.33a.691.691,0,0,1-.69-.69v-6.66c0-1.89-.91-3.37-2.66-3.7a3.727,3.727,0,0,0-4.32,3.72v6.63a.691.691,0,0,1-.69.69h-2.06a.691.691,0,0,1-.69-.69V658.94a.691.691,0,0,1,.69-.69h1.8a.692.692,0,0,1,.69.61h0a.692.692,0,0,0,1.1.48,5.846,5.846,0,0,1,3.67-1.29c3.3,0,5.95,2.48,5.95,6.89v6.68a.691.691,0,0,1-.69.69h-2.1Z" fill="#fff"/>
        </g>
      </g>
      <g id="Grupo_44" data-name="Grupo 44">
        <g id="Grupo_43" data-name="Grupo 43">
          <path id="Caminho_1603" data-name="Caminho 1603" d="M254.11,654.85v2.99a.469.469,0,0,0,.47.47h2.93a.469.469,0,0,1,.47.47v2.05a.469.469,0,0,1-.47.47h-2.96a.469.469,0,0,0-.47.47v5.6a1.739,1.739,0,0,0,1.82,1.99,3.81,3.81,0,0,0,1.22-.23.478.478,0,0,1,.62.29l.67,2.04a.478.478,0,0,1-.3.6,7.581,7.581,0,0,1-2.44.43c-3.05.11-5.04-1.62-5.04-5.13v-5.6a.469.469,0,0,0-.47-.47h-1.68a.469.469,0,0,1-.47-.47v-2.05a.469.469,0,0,1,.47-.47h1.68a.469.469,0,0,0,.47-.47v-2.72a.475.475,0,0,1,.42-.47l2.53-.27A.487.487,0,0,1,254.11,654.85Z" fill="#fff"/>
        </g>
      </g>
      <g id="Grupo_46" data-name="Grupo 46">
        <g id="Grupo_45" data-name="Grupo 45">
          <path id="Caminho_1604" data-name="Caminho 1604" d="M273.11,665.32a7.305,7.305,0,1,1-7.35-7.32A7.1,7.1,0,0,1,273.11,665.32Zm-11.14,0c0,2.14,1.28,4.13,3.82,4.13s3.82-1.99,3.82-4.13a3.965,3.965,0,0,0-3.82-4.16A3.864,3.864,0,0,0,261.97,665.32Z" fill="#fff"/>
        </g>
      </g>
      <g id="Grupo_48" data-name="Grupo 48">
        <g id="Grupo_47" data-name="Grupo 47">
          <path id="Caminho_1605" data-name="Caminho 1605" d="M277.87,654.33a2.05,2.05,0,0,1-4.1,0A2.05,2.05,0,0,1,277.87,654.33Zm-3.79,4.44v13.02a.538.538,0,0,0,.54.54h2.39a.538.538,0,0,0,.54-.54V658.77a.538.538,0,0,0-.54-.54h-2.39A.538.538,0,0,0,274.08,658.77Z" fill="#fff"/>
        </g>
      </g>
    </g>
    <g id="Grupo_51" data-name="Grupo 51">
      <g id="Grupo_50" data-name="Grupo 50">
        <path id="Caminho_1606" data-name="Caminho 1606" d="M177.25,648.33a14.015,14.015,0,0,0-5.86,1.27,14.1,14.1,0,0,0-8.27,12.85,14.038,14.038,0,0,0,3.68,9.5,13.906,13.906,0,0,1-1.05,2.69h0c-.07.13-.13.25-.2.37h0a1.345,1.345,0,0,0-.07.4,1.266,1.266,0,0,0,.95,1.23c.07.01.14.01.22.02.17-.01.33-.02.5-.04a14.255,14.255,0,0,0,4.51-1.2,14.122,14.122,0,1,0,5.59-27.09Zm7.66,22.26h0c.04.09.09.17.13.25h0a.766.766,0,0,1,.04.27.831.831,0,0,1-.7.83h0l-.4-.03a9.44,9.44,0,0,1-3-.8,9.424,9.424,0,1,1,3.23-2.31A9.5,9.5,0,0,0,184.91,670.59Z" fill="#fff"/>
      </g>
    </g>
  </g>
</svg>
