<svg id="Componente_6_1" data-name="Componente 6 – 1" xmlns="http://www.w3.org/2000/svg" width="134.16" height="82.897" viewBox="0 0 134.16 82.897">
  <path id="Caminho_1" data-name="Caminho 1" d="M79.94,1511.32a.89.89,0,0,1-.89-.89v-11.35c0-3-1.57-5.75-4.68-5.75s-4.87,2.74-4.87,5.75v11.35a.89.89,0,0,1-.89.89H64.73a.89.89,0,0,1-.89-.89V1489.3a.89.89,0,0,1,.89-.89h3.58a.89.89,0,0,1,.88.76h0a.9.9,0,0,0,1.48.53,7.4,7.4,0,0,1,4.86-1.66,7,7,0,0,1,6.13,3,.89.89,0,0,0,1.45.09,8.21,8.21,0,0,1,6.84-3c6.5,0,9.7,4,9.7,10.86v11.44a.89.89,0,0,1-.9.89H94.88a.89.89,0,0,1-.89-.89V1499c0-3-1.26-5.57-4.32-5.57s-5,2.65-5,5.66v11.35a.89.89,0,0,1-.89.89Z" transform="translate(-63.84 -1429.034)" fill="#464745"/>
  <path id="Caminho_2" data-name="Caminho 2" d="M108.39,1501.91a.81.81,0,0,0-.77,1.07c.79,2.26,3.1,3.8,6.56,3.8a10.269,10.269,0,0,0,5.58-1.66.82.82,0,0,1,1.08.05l2.48,2.46a.81.81,0,0,1,0,1.19,14.579,14.579,0,0,1-9.2,3.11c-7.89,0-12.57-4.87-12.57-12.2,0-7,4.73-12,12.15-12s12.17,4.48,11.61,13.4a.82.82,0,0,1-.81.75Zm10.4-4.69a.81.81,0,0,0,.77-1.06c-.74-2.26-2.87-3.39-5.7-3.39a6.29,6.29,0,0,0-6,3.28.81.81,0,0,0,.73,1.17Z" transform="translate(-63.84 -1429.034)" fill="#464745"/>
  <path id="Caminho_3" data-name="Caminho 3" d="M145.23,1511.32a1.12,1.12,0,0,1-1.13-1.12v-10.84c0-3.08-1.49-5.5-4.33-6a6.08,6.08,0,0,0-7,6.06v10.8a1.12,1.12,0,0,1-1.13,1.12h-3.35a1.13,1.13,0,0,1-1.13-1.12v-20.66a1.14,1.14,0,0,1,1.13-1.13h2.92a1.14,1.14,0,0,1,1.13,1h0a1.12,1.12,0,0,0,1.78.78,9.46,9.46,0,0,1,6-2.1c5.38,0,9.7,4,9.7,11.22v10.89a1.13,1.13,0,0,1-1.13,1.12Z" transform="translate(-63.84 -1429.034)" fill="#464745"/>
  <path id="Caminho_4" data-name="Caminho 4" d="M159.31,1482.87v4.87a.77.77,0,0,0,.77.77h4.77a.77.77,0,0,1,.77.76v3.34a.78.78,0,0,1-.77.77H160a.77.77,0,0,0-.77.76v9.11c0,2.18,1.21,3.25,3,3.25a6,6,0,0,0,2-.38.79.79,0,0,1,1,.48l1.09,3.33a.78.78,0,0,1-.49,1,12.446,12.446,0,0,1-4,.7c-5,.19-8.21-2.64-8.21-8.35v-9.11a.76.76,0,0,0-.77-.76h-2.73a.78.78,0,0,1-.77-.77v-3.34a.77.77,0,0,1,.77-.76h2.73a.77.77,0,0,0,.77-.77v-4.43a.77.77,0,0,1,.69-.77l4.12-.44a.77.77,0,0,1,.88.74Z" transform="translate(-63.84 -1429.034)" fill="#464745"/>
  <path id="Caminho_5" data-name="Caminho 5" d="M190.25,1499.92c0,6.58-4.5,11.91-11.92,11.91s-11.88-5.33-11.88-11.91S171,1488,178.28,1488a11.57,11.57,0,0,1,11.97,11.92Zm-18.14,0c0,3.47,2.09,6.72,6.22,6.72s6.21-3.25,6.21-6.72-2.41-6.78-6.21-6.78C174.24,1493.14,172.11,1496.48,172.11,1499.92Z" transform="translate(-63.84 -1429.034)" fill="#464745"/>
  <path id="Caminho_6" data-name="Caminho 6" d="M198,1482c0,4.41-6.68,4.41-6.68,0S198,1477.61,198,1482Zm-6.17,7.24v21.19a.88.88,0,0,0,.88.88h3.9a.87.87,0,0,0,.88-.88v-21.19a.87.87,0,0,0-.88-.88h-3.9a.88.88,0,0,0-.89.89Z" transform="translate(-63.84 -1429.034)" fill="#63b346"/>
  <path id="Caminho_7" data-name="Caminho 7" d="M153.85,1453.6a23,23,0,0,1-32,19.51,22.887,22.887,0,0,1-7.35,2l-.81.06h-.35a2.06,2.06,0,0,1-1.54-2,2.391,2.391,0,0,1,.1-.66h0l.32-.6h0a23,23,0,0,0,1.72-4.38,23,23,0,1,1,39.94-13.86Z" transform="translate(-63.84 -1429.034)" fill="#63b346"/>
  <path id="Caminho_8" data-name="Caminho 8" d="M115.6,1452a15.32,15.32,0,0,0,15.32,15.31,15.14,15.14,0,0,0,6.06-1.25,15.384,15.384,0,0,0,4.89,1.31h.66a1.38,1.38,0,0,0,1.14-1.36,1.311,1.311,0,0,0-.07-.44h0l-.22-.4h0a15.664,15.664,0,0,1-1.14-2.92,15.25,15.25,0,0,0,4-10.3,15.77,15.77,0,0,0-.55-4.09A15.32,15.32,0,0,0,115.6,1452Z" transform="translate(-63.84 -1429.034)" fill="#f7fbff"/>
</svg>
