<svg id="Componente_1_1" data-name="Componente 1 – 1" xmlns="http://www.w3.org/2000/svg" width="114.75" height="28.33" viewBox="0 0 114.75 28.33">
  <g id="Grupo_27" data-name="Grupo 27" transform="translate(-53.41 -14.35)">
    <g id="Grupo_16" data-name="Grupo 16">
      <g id="Grupo_15" data-name="Grupo 15">
        <path id="Caminho_9" data-name="Caminho 9" d="M95.65,38.35a.555.555,0,0,1-.55-.55V30.83c0-1.85-.97-3.53-2.88-3.53-1.88,0-2.99,1.68-2.99,3.53V37.8a.555.555,0,0,1-.55.55H86.3a.555.555,0,0,1-.55-.55V24.82a.555.555,0,0,1,.55-.55h2.2a.548.548,0,0,1,.54.47h0a.548.548,0,0,0,.91.32,4.591,4.591,0,0,1,2.98-1.02,4.286,4.286,0,0,1,3.77,1.87.549.549,0,0,0,.89.06,5.042,5.042,0,0,1,4.2-1.87c3.99,0,5.95,2.45,5.95,6.67V37.8a.555.555,0,0,1-.55.55h-2.38a.555.555,0,0,1-.55-.55V30.77c0-1.85-.77-3.42-2.65-3.42a3.2,3.2,0,0,0-3.05,3.48V37.8a.555.555,0,0,1-.55.55Z" fill="#3d3d3d"/>
      </g>
    </g>
    <g id="Grupo_18" data-name="Grupo 18">
      <g id="Grupo_17" data-name="Grupo 17">
        <path id="Caminho_10" data-name="Caminho 10" d="M113.12,32.57a.5.5,0,0,0-.47.66c.49,1.39,1.9,2.33,4.03,2.33a6.277,6.277,0,0,0,3.43-1.02.514.514,0,0,1,.66.03l1.53,1.51a.494.494,0,0,1-.02.73,8.9,8.9,0,0,1-5.65,1.91c-4.84,0-7.72-2.99-7.72-7.49a7.031,7.031,0,0,1,7.46-7.35c4.57,0,7.48,2.75,7.13,8.23a.5.5,0,0,1-.5.46Zm6.39-2.88a.492.492,0,0,0,.47-.65c-.46-1.39-1.76-2.08-3.5-2.08a3.869,3.869,0,0,0-3.65,2.01.5.5,0,0,0,.45.72Z" fill="#3d3d3d"/>
      </g>
    </g>
    <g id="Grupo_20" data-name="Grupo 20">
      <g id="Grupo_19" data-name="Grupo 19">
        <path id="Caminho_11" data-name="Caminho 11" d="M135.75,38.35a.691.691,0,0,1-.69-.69V31c0-1.89-.91-3.37-2.66-3.7a3.727,3.727,0,0,0-4.32,3.72v6.63a.691.691,0,0,1-.69.69h-2.06a.691.691,0,0,1-.69-.69V24.97a.691.691,0,0,1,.69-.69h1.8a.692.692,0,0,1,.69.61h0a.692.692,0,0,0,1.1.48,5.846,5.846,0,0,1,3.67-1.29c3.3,0,5.95,2.48,5.95,6.89v6.68a.691.691,0,0,1-.69.69h-2.1Z" fill="#3d3d3d"/>
      </g>
    </g>
    <g id="Grupo_22" data-name="Grupo 22">
      <g id="Grupo_21" data-name="Grupo 21">
        <path id="Caminho_12" data-name="Caminho 12" d="M144.4,20.87v2.99a.469.469,0,0,0,.47.47h2.93a.469.469,0,0,1,.47.47v2.05a.469.469,0,0,1-.47.47h-2.96a.469.469,0,0,0-.47.47v5.59a1.739,1.739,0,0,0,1.82,1.99,3.809,3.809,0,0,0,1.22-.23.478.478,0,0,1,.62.29l.67,2.04a.478.478,0,0,1-.3.6,7.581,7.581,0,0,1-2.44.43c-3.05.11-5.04-1.62-5.04-5.13V27.8a.469.469,0,0,0-.47-.47h-1.68a.469.469,0,0,1-.47-.47V24.81a.469.469,0,0,1,.47-.47h1.68a.469.469,0,0,0,.47-.47V21.15a.475.475,0,0,1,.42-.47l2.53-.27A.461.461,0,0,1,144.4,20.87Z" fill="#3d3d3d"/>
      </g>
    </g>
    <g id="Grupo_24" data-name="Grupo 24">
      <g id="Grupo_23" data-name="Grupo 23">
        <path id="Caminho_13" data-name="Caminho 13" d="M163.4,31.34a7.305,7.305,0,1,1-14.61,0,7.025,7.025,0,0,1,7.26-7.32A7.1,7.1,0,0,1,163.4,31.34Zm-11.14,0c0,2.14,1.28,4.13,3.82,4.13s3.82-1.99,3.82-4.13a3.965,3.965,0,0,0-3.82-4.16A3.859,3.859,0,0,0,152.26,31.34Z" fill="#3d3d3d"/>
      </g>
    </g>
    <g id="Grupo_26" data-name="Grupo 26">
      <g id="Grupo_25" data-name="Grupo 25">
        <path id="Caminho_14" data-name="Caminho 14" d="M168.16,20.35a2.05,2.05,0,0,1-4.1,0A2.05,2.05,0,0,1,168.16,20.35Zm-3.79,4.44V37.81a.538.538,0,0,0,.54.54h2.39a.538.538,0,0,0,.54-.54V24.79a.538.538,0,0,0-.54-.54h-2.39A.538.538,0,0,0,164.37,24.79Z" fill="#64b447"/>
      </g>
    </g>
  </g>
  <g id="Grupo_29" data-name="Grupo 29" transform="translate(-53.41 -14.35)">
    <g id="Grupo_28" data-name="Grupo 28">
      <path id="Caminho_15" data-name="Caminho 15" d="M67.54,14.35a14.015,14.015,0,0,0-5.86,1.27,14.1,14.1,0,0,0-8.27,12.85,14.038,14.038,0,0,0,3.68,9.5,13.907,13.907,0,0,1-1.05,2.69h0c-.07.13-.13.25-.2.37h0a1.344,1.344,0,0,0-.07.4,1.267,1.267,0,0,0,.95,1.23c.07.01.14.01.22.02.17-.01.33-.02.5-.04a14.255,14.255,0,0,0,4.51-1.2,14.122,14.122,0,1,0,5.59-27.09ZM75.2,36.61h0c.04.09.09.17.13.25h0a.766.766,0,0,1,.04.27.831.831,0,0,1-.7.83h0l-.4-.03a9.44,9.44,0,0,1-3-.8,9.424,9.424,0,1,1,3.23-2.31A9.5,9.5,0,0,0,75.2,36.61Z" fill="#64b447"/>
    </g>
  </g>
</svg>
